M48
;DRILL file {KiCad (5.0.2)-1} date 24/01/2019 16:53:28
;FORMAT={-:-/ absolute / metric / decimal}
FMAT,2
METRIC,TZ
T1C0.400
T2C0.813
T3C1.000
T4C1.300
%
G90
G05
T1
X158.62Y-132.78
X158.67Y-151.82
X158.7Y-170.9
X166.01Y-132.78
X166.3Y-151.82
X166.63Y-170.9
X166.69Y-127.47
X166.75Y-135.56
X166.77Y-116.82
X166.79Y-154.31
X166.85Y-146.43
X166.95Y-165.95
X179.33Y-168.71
X179.45Y-151.89
X179.46Y-144.21
X179.67Y-132.81
X187.06Y-170.89
X187.19Y-112.82
X187.39Y-132.81
X187.62Y-116.25
X187.66Y-127.83
X187.72Y-154.65
X187.76Y-165.97
X187.78Y-135.44
X187.78Y-146.5
X187.78Y-151.9
X189.97Y-151.92
X191.19Y-134.07
X194.9Y-112.82
X195.4Y-96.66
X195.4Y-107.7
X198.34Y-153.65
X198.89Y-163.55
X198.89Y-171.41
X198.95Y-134.07
X199.79Y-144.36
X199.82Y-152.3
X201.09Y-131.98
X201.09Y-133.25
X201.13Y-124.28
X206.95Y-171.59
X207.09Y-113.84
X207.45Y-166.88
X207.96Y-152.49
X208.Y-155.15
X208.48Y-147.87
X208.72Y-133.43
X209.11Y-135.97
X209.42Y-128.66
X210.07Y-117.38
X215.58Y-114.29
X215.73Y-109.14
X216.57Y-97.97
X218.91Y-172.33
X218.92Y-165.53
X222.05Y-147.16
X222.06Y-153.57
X225.64Y-134.83
X225.65Y-128.29
X226.81Y-184.81
X227.21Y-172.97
X228.07Y-168.23
X228.8Y-108.59
X228.8Y-116.05
X229.75Y-157.32
X230.36Y-154.18
X231.14Y-149.73
X232.41Y-198.83
X232.73Y-197.67
X232.98Y-138.52
X233.57Y-135.44
X234.66Y-131.22
X234.84Y-186.35
X236.23Y-119.54
X237.19Y-116.67
X237.39Y-174.47
X237.41Y-179.89
X237.67Y-112.5
X239.52Y-100.94
X240.97Y-161.22
X241.06Y-155.6
X244.42Y-136.28
X244.43Y-142.58
X245.21Y-181.59
X246.44Y-176.66
X247.67Y-190.75
X248.51Y-124.
X248.54Y-117.55
X248.57Y-165.54
X249.37Y-163.01
X250.1Y-157.6
X251.33Y-205.18
X251.847Y-203.753
X252.04Y-147.
X252.78Y-144.41
X253.63Y-139.38
X255.73Y-128.06
X255.75Y-193.41
X255.96Y-125.4
X256.04Y-190.37
X257.4Y-120.47
X258.65Y-175.48
X259.35Y-109.34
X260.22Y-171.77
X263.77Y-192.45
X264.23Y-153.17
X264.86Y-187.55
X266.05Y-189.61
X267.31Y-176.24
X267.36Y-133.36
X267.88Y-173.58
X268.06Y-215.85
X268.42Y-196.86
X268.87Y-214.97
X269.Y-201.18
X269.245Y-168.213
X271.54Y-155.09
X271.56Y-157.57
X273.29Y-150.
X274.04Y-156.93
X275.41Y-135.33
X275.43Y-137.1
X275.44Y-138.76
X275.47Y-205.52
X276.305Y-129.795
X278.57Y-119.13
X279.21Y-174.1
X283.66Y-168.48
X283.84Y-137.71
X283.84Y-154.26
X284.48Y-166.44
X284.7Y-140.28
X284.75Y-152.74
X286.48Y-151.4
X287.15Y-131.49
X287.83Y-155.16
X288.38Y-137.75
X288.46Y-126.29
X289.42Y-127.97
X289.51Y-155.54
X289.86Y-116.96
X291.03Y-155.65
X291.6Y-153.38
X291.824Y-128.16
X292.14Y-150.84
X292.54Y-148.37
X293.23Y-145.76
X293.92Y-143.09
X294.39Y-139.85
X294.496Y-136.634
X294.9Y-148.46
X295.26Y-117.11
X295.93Y-134.968
X296.629Y-158.47
X297.242Y-157.07
X297.6Y-136.4
X298.11Y-132.8
X299.75Y-119.72
X299.91Y-156.622
T2
X288.122Y-152.599
X288.672Y-150.119
X289.222Y-147.639
X289.692Y-151.646
X289.771Y-145.159
X290.242Y-149.166
X290.321Y-142.679
X290.791Y-146.686
X290.871Y-140.2
X291.341Y-144.206
X291.421Y-137.72
X291.891Y-141.727
X291.97Y-135.24
X292.441Y-139.247
X292.52Y-132.76
X292.991Y-136.767
X293.07Y-130.281
X293.54Y-134.287
X293.62Y-127.801
X294.09Y-131.807
X294.169Y-125.321
X294.64Y-129.328
X295.19Y-126.848
X295.739Y-124.368
X303.001Y-155.897
X303.551Y-153.417
X304.1Y-150.938
X304.551Y-154.94
X304.65Y-148.458
X305.101Y-152.46
X305.2Y-145.978
X305.651Y-149.98
X305.75Y-143.498
X306.2Y-147.501
X306.299Y-141.018
X306.75Y-145.021
X306.849Y-138.539
X307.3Y-142.541
X307.399Y-136.059
X307.85Y-140.061
X307.949Y-133.579
X308.399Y-137.582
X308.498Y-131.099
X308.949Y-135.102
X309.048Y-128.619
X309.499Y-132.622
X310.049Y-130.142
X310.599Y-127.662
T4
X297.497Y-177.063
X298.903Y-170.717
T3
X291.448Y-163.622G85X290.96Y-163.514
G05
X291.978Y-161.23G85X291.49Y-161.122
G05
X292.534Y-165.655G85X292.046Y-165.547
G05
X293.822Y-159.846G85X293.333Y-159.738
G05
X296.439Y-166.521G85X295.951Y-166.413
G05
X297.727Y-160.712G85X297.239Y-160.604
G05
X299.368Y-167.17G85X298.88Y-167.062
G05
X300.656Y-161.361G85X300.167Y-161.253
G05
T0
M30
