M48
;DRILL file {KiCad (5.0.2)-1} date 24/01/2019 16:53:28
;FORMAT={-:-/ absolute / metric / decimal}
FMAT,2
METRIC,TZ
T1C1.200
T2C1.900
T3C3.000
T4C4.100
T5C4.800
%
G90
G05
T1
X294.501Y-163.94
X294.88Y-162.232
X301.336Y-165.455
X301.714Y-163.747
T2
X272.201Y-126.234
X282.139Y-128.346
X223.587Y-164.358
X233.593Y-166.122
X182.73Y-124.51
X192.89Y-124.51
X211.132Y-105.646
X221.268Y-106.354
X264.92Y-164.54
X274.84Y-166.74
X253.073Y-116.451
X263.047Y-118.389
X182.73Y-162.62
X192.89Y-162.62
X203.667Y-144.124
X213.813Y-144.656
X245.803Y-153.831
X255.777Y-155.769
X233.507Y-108.068
X243.513Y-109.832
X161.78Y-143.57
X171.94Y-143.57
X266.629Y-209.656
X274.951Y-215.484
X248.076Y-199.563
X257.624Y-203.037
X226.897Y-145.598
X236.903Y-147.362
X190.36Y-104.52
X200.52Y-104.52
X269.05Y-145.94
X278.97Y-148.14
X228.393Y-193.531
X238.367Y-195.469
X182.73Y-143.56
X192.89Y-143.56
X204.657Y-125.104
X214.803Y-125.636
X249.443Y-135.131
X259.417Y-137.069
X202.657Y-163.144
X212.803Y-163.676
X161.77Y-124.51
X171.93Y-124.51
X260.8Y-183.15
X270.72Y-185.35
X242.103Y-172.541
X252.077Y-174.479
X230.207Y-126.838
X240.213Y-128.602
X161.77Y-162.64
X171.93Y-162.64
T3
X270.84Y-143.736
X272.63Y-141.531
X277.589Y-142.63
X278.279Y-145.385
X230.125Y-191.28
X231.856Y-189.029
X236.843Y-189.998
X237.605Y-192.734
X184.Y-141.02
X185.27Y-138.48
X190.35Y-138.48
X191.62Y-141.02
X206.058Y-122.634
X207.459Y-120.164
X212.532Y-120.43
X213.668Y-123.033
X251.175Y-132.88
X252.906Y-130.629
X257.893Y-131.598
X258.655Y-134.334
X204.058Y-160.674
X205.459Y-158.204
X210.532Y-158.47
X211.668Y-161.073
X163.04Y-121.97
X164.31Y-119.43
X169.39Y-119.43
X170.66Y-121.97
X262.59Y-180.946
X264.38Y-178.741
X269.339Y-179.84
X270.029Y-182.595
X243.835Y-170.29
X245.566Y-168.039
X250.553Y-169.008
X251.315Y-171.744
X231.899Y-124.557
X233.591Y-122.276
X238.594Y-123.158
X239.403Y-125.88
X163.04Y-160.1
X164.31Y-157.56
X169.39Y-157.56
X170.66Y-160.1
X273.971Y-124.013
X275.742Y-121.793
X280.711Y-122.849
X281.425Y-125.598
X225.279Y-162.077
X226.971Y-159.796
X231.974Y-160.678
X232.783Y-163.4
X184.Y-121.97
X185.27Y-119.43
X190.35Y-119.43
X191.62Y-121.97
X212.576Y-103.2
X214.021Y-100.755
X219.088Y-101.11
X220.178Y-103.732
X266.71Y-162.336
X268.5Y-160.131
X273.459Y-161.23
X274.149Y-163.985
X254.805Y-114.2
X256.536Y-111.949
X261.523Y-112.918
X262.285Y-115.654
X184.Y-160.08
X185.27Y-157.54
X190.35Y-157.54
X191.62Y-160.08
X205.068Y-141.654
X206.469Y-139.184
X211.542Y-139.45
X212.678Y-142.053
X247.535Y-151.58
X249.266Y-149.329
X254.253Y-150.298
X255.015Y-153.034
X235.199Y-105.787
X236.891Y-103.506
X241.894Y-104.388
X242.703Y-107.11
X163.05Y-141.03
X164.32Y-138.49
X169.4Y-138.49
X170.67Y-141.03
X269.126Y-208.304
X271.623Y-206.952
X275.368Y-212.675
X275.784Y-209.866
X250.139Y-197.61
X252.201Y-195.658
X256.974Y-197.395
X257.299Y-200.216
X228.589Y-143.317
X230.281Y-141.036
X235.284Y-141.918
X236.093Y-144.64
X191.63Y-101.98
X192.9Y-99.44
X197.98Y-99.44
X199.25Y-101.98
T4
X250.79Y-154.8
X238.51Y-108.95
X166.86Y-143.57
X270.79Y-212.57
X252.85Y-201.3
X231.9Y-146.48
X195.44Y-104.52
X274.01Y-147.04
X233.38Y-194.5
X187.81Y-143.56
X209.73Y-125.37
X254.43Y-136.1
X207.73Y-163.41
X166.85Y-124.51
X265.76Y-184.25
X247.09Y-173.51
X235.21Y-127.72
X166.85Y-162.64
X277.17Y-127.29
X228.59Y-165.24
X187.81Y-124.51
X216.2Y-106.
X269.88Y-165.64
X258.06Y-117.42
X187.81Y-162.62
X208.74Y-144.39
T5
X177.32Y-113.42
X226.19Y-178.66
X272.54Y-113.46
X177.32Y-172.19
X222.53Y-123.32
X276.36Y-195.77
T0
M30
