0
SECTION
2
HEADER
9
$INSUNITS
70
4
9
$ACADVER
1
AC1014
9
$HANDSEED
5
FFFF
0
ENDSEC
0
SECTION
2
TABLES
0
TABLE
2
VPORT
5
8
100
AcDbSymbolTable
0
ENDTAB
0
TABLE
2
LTYPE
5
5
100
AcDbSymbolTable
0
LTYPE
5
14
100
AcDbSymbolTableRecord
100
AcDbLinetypeTableRecord
2
BYBLOCK
70
0
0
LTYPE
5
15
100
AcDbSymbolTableRecord
100
AcDbLinetypeTableRecord
2
BYLAYER
70
0
0
ENDTAB
0
TABLE
2
LAYER
5
2
100
AcDbSymbolTable
70
2
0
LAYER
5
50
100
AcDbSymbolTableRecord
100
AcDbLayerTableRecord
2
0
70
0
6
CONTINUOUS
0
ENDTAB
0
TABLE
2
STYLE
5
3
100
AcDbSymbolTable
70
1
0
STYLE
5
11
100
AcDbSymbolTableRecord
100
AcDbTextStyleTableRecord
2
STANDARD
70
0
0
ENDTAB
0
TABLE
2
VIEW
5
6
100
AcDbSymbolTable
70
0
0
ENDTAB
0
TABLE
2
UCS
5
7
100
AcDbSymbolTable
70
0
0
ENDTAB
0
TABLE
2
APPID
5
9
100
AcDbSymbolTable
70
2
0
APPID
5
12
100
AcDbSymbolTableRecord
100
AcDbRegAppTableRecord
2
ACAD
70
0
0
ENDTAB
0
TABLE
2
DIMSTYLE
5
A
100
AcDbSymbolTable
70
1
0
ENDTAB
0
TABLE
2
BLOCK_RECORD
5
1
100
AcDbSymbolTable
70
1
0
BLOCK_RECORD
5
1F
100
AcDbSymbolTableRecord
100
AcDbBlockTableRecord
2
*MODEL_SPACE
0
BLOCK_RECORD
5
1B
100
AcDbSymbolTableRecord
100
AcDbBlockTableRecord
2
*PAPER_SPACE
0
ENDTAB
0
ENDSEC
0
SECTION
2
BLOCKS
0
BLOCK
5
20
100
AcDbEntity
100
AcDbBlockBegin
2
*MODEL_SPACE
0
ENDBLK
5
21
100
AcDbEntity
100
AcDbBlockEnd
0
BLOCK
5
1C
100
AcDbEntity
100
AcDbBlockBegin
2
*PAPER_SPACE
0
ENDBLK
5
1D
100
AcDbEntity
100
AcDbBlockEnd
0
ENDSEC
0
SECTION
2
ENTITIES
0
LWPOLYLINE
5
100
100
AcDbEntity
8
0
100
AcDbPolyline
90
20
70
1
43
0.0
10
99.614200000000011
20
109.98600000000002
10
99.805800000000019
20
110.96700000000001
10
99.020500000000013
20
111.119
10
99.611400000000003
20
114.16200000000002
10
100.39700000000002
20
114.009
10
101.50399999999999
20
119.703
10
100.71799999999999
20
119.85600000000002
10
101.309
20
122.89900000000002
10
102.095
20
122.74700000000003
10
102.286
20
123.72700000000002
10
116.02800000000001
20
121.05600000000001
10
115.83799999999999
20
120.075
10
116.623
20
119.923
10
116.03200000000001
20
116.88000000000001
10
115.24500000000002
20
117.03100000000001
10
114.14000000000001
20
111.33800000000001
10
114.92400000000001
20
111.18600000000001
10
114.33300000000001
20
108.143
10
113.54799999999999
20
108.29600000000001
10
113.35700000000003
20
107.31299999999999
0
LWPOLYLINE
5
101
100
AcDbEntity
8
0
100
AcDbPolyline
90
20
70
1
43
0.0
10
9.6173199999999994
20
102.399
10
8.8180700000000005
20
102.399
10
8.8180700000000005
20
105.49900000000001
10
9.6173199999999994
20
105.49900000000001
10
9.6173199999999994
20
111.29899999999999
10
8.8180700000000005
20
111.29899999999999
10
8.8180700000000005
20
114.39900000000002
10
9.6173199999999994
20
114.39900000000002
10
9.6173199999999994
20
115.398
10
23.618200000000002
20
115.398
10
23.618200000000002
20
114.39900000000002
10
24.418900000000004
20
114.39900000000002
10
24.418900000000004
20
111.29899999999999
10
23.618200000000002
20
111.29899999999999
10
23.618200000000002
20
105.49900000000001
10
24.418900000000004
20
105.49900000000001
10
24.418900000000004
20
102.399
10
23.618200000000002
20
102.399
10
23.618200000000002
20
101.399
10
9.6173199999999994
20
101.399
0
LWPOLYLINE
5
102
100
AcDbEntity
8
0
100
AcDbPolyline
90
20
70
1
43
0.0
10
67.596800000000002
20
113.13800000000001
10
67.434200000000004
20
110.04300000000001
10
66.635099999999994
20
110.08600000000001
10
66.331699999999998
20
104.29299999999999
10
67.131100000000004
20
104.251
10
66.968500000000006
20
101.15600000000001
10
66.169100000000014
20
101.19700000000002
10
66.116900000000001
20
100.19800000000001
10
52.135300000000001
20
100.931
10
52.189200000000007
20
101.92900000000002
10
51.389800000000001
20
101.97200000000002
10
51.552500000000009
20
105.06700000000002
10
52.350500000000004
20
105.02600000000001
10
52.654899999999998
20
110.81800000000001
10
51.855499999999999
20
110.86
10
52.018100000000004
20
113.955
10
52.816100000000006
20
113.91400000000002
10
52.868300000000005
20
114.91300000000001
10
66.849999999999994
20
114.18000000000001
10
66.797799999999995
20
113.18100000000001
0
LWPOLYLINE
5
103
100
AcDbEntity
8
0
100
AcDbPolyline
90
20
70
1
43
0.0
10
44.574199999999998
20
102.399
10
44.574199999999998
20
101.399
10
30.573200000000003
20
101.399
10
30.573200000000003
20
102.399
10
29.773900000000001
20
102.399
10
29.773900000000001
20
105.49900000000001
10
30.573200000000003
20
105.49900000000001
10
30.573200000000003
20
111.29899999999999
10
29.773900000000001
20
111.29899999999999
10
29.773900000000001
20
114.39900000000002
10
30.573200000000003
20
114.39900000000002
10
30.573200000000003
20
115.398
10
44.574199999999998
20
115.398
10
44.574199999999998
20
114.39900000000002
10
45.373200000000004
20
114.39900000000002
10
45.373200000000004
20
111.29899999999999
10
44.574199999999998
20
111.29899999999999
10
44.574199999999998
20
105.49900000000001
10
45.373200000000004
20
105.49900000000001
10
45.373200000000004
20
102.399
0
LWPOLYLINE
5
104
100
AcDbEntity
8
0
100
AcDbPolyline
90
20
70
1
43
0.0
10
95.452500000000015
20
119.75700000000002
10
94.915199999999999
20
116.70299999999999
10
94.126800000000003
20
116.84200000000003
10
93.953199999999995
20
115.85700000000003
10
80.165899999999993
20
118.29000000000001
10
80.339500000000015
20
119.27300000000001
10
79.551400000000001
20
119.41200000000002
10
80.090100000000021
20
122.46600000000001
10
80.877099999999999
20
122.32700000000001
10
81.884299999999996
20
128.03799999999998
10
81.0976
20
128.17700000000002
10
81.636300000000006
20
131.22899999999998
10
82.423400000000001
20
131.09200000000001
10
82.596900000000005
20
132.07499999999999
10
96.384200000000021
20
129.64400000000001
10
96.210599999999999
20
128.65899999999999
10
96.998700000000014
20
128.52200000000005
10
96.461400000000012
20
125.46900000000001
10
95.673000000000002
20
125.60700000000003
10
94.665800000000004
20
119.89600000000002
0
LWPOLYLINE
5
105
100
AcDbEntity
8
0
100
AcDbPolyline
90
20
70
1
43
0.0
10
73.326600000000013
20
120.38500000000001
10
72.528999999999996
20
120.44
10
72.458799999999997
20
119.443
10
58.4923
20
120.42000000000002
10
58.5625
20
121.41800000000001
10
57.764500000000005
20
121.47300000000001
10
57.980800000000002
20
124.56700000000001
10
58.778800000000004
20
124.51000000000001
10
59.184100000000008
20
130.29599999999999
10
58.386099999999999
20
130.351
10
58.601000000000013
20
133.44400000000002
10
59.400399999999998
20
133.387
10
59.469200000000001
20
134.38600000000002
10
73.435599999999994
20
133.40899999999999
10
73.365399999999994
20
132.41200000000001
10
74.163399999999996
20
132.35700000000003
10
73.9482
20
129.26300000000001
10
73.150200000000012
20
129.31899999999999
10
72.745199999999997
20
123.53299999999999
10
73.543199999999999
20
123.47799999999999
0
LWPOLYLINE
5
106
100
AcDbEntity
8
0
100
AcDbPolyline
90
20
70
1
43
0.0
10
38.19380000000001
20
135.40200000000002
10
52.193100000000001
20
135.40200000000002
10
52.193100000000001
20
134.40100000000001
10
52.993899999999996
20
134.40100000000001
10
52.993899999999996
20
131.30200000000002
10
52.193100000000001
20
131.30200000000002
10
52.193100000000001
20
125.50200000000002
10
52.993899999999996
20
125.50200000000002
10
52.993899999999996
20
122.40200000000002
10
52.193100000000001
20
122.40200000000002
10
52.193100000000001
20
121.402
10
38.19380000000001
20
121.402
10
38.19380000000001
20
122.40200000000002
10
37.393000000000001
20
122.40200000000002
10
37.393000000000001
20
125.50200000000002
10
38.19380000000001
20
125.50200000000002
10
38.19380000000001
20
131.30200000000002
10
37.393000000000001
20
131.30200000000002
10
37.393000000000001
20
134.40100000000001
10
38.19380000000001
20
134.40100000000001
0
LWPOLYLINE
5
107
100
AcDbEntity
8
0
100
AcDbPolyline
90
20
70
1
43
0.0
10
110.714
20
19.914000000000001
10
112.49200000000002
20
22.452400000000004
10
113.146
20
21.993500000000004
10
116.47300000000001
20
26.746300000000005
10
115.81900000000002
20
27.205200000000005
10
117.596
20
29.742200000000004
10
118.25200000000002
20
29.284700000000004
10
118.825
20
30.103200000000001
10
130.29399999999998
20
22.073399999999999
10
129.72000000000003
20
21.254899999999999
10
130.376
20
20.795999999999999
10
128.59700000000001
20
18.2563
10
127.941
20
18.7151
10
124.61300000000001
20
13.963700000000001
10
125.26899999999999
20
13.504800000000001
10
123.49299999999999
20
10.9664
10
122.83700000000002
20
11.4253
10
122.264
20
10.605399999999999
10
110.79600000000001
20
18.635200000000005
10
111.369
20
19.455100000000002
0
LWPOLYLINE
5
108
100
AcDbEntity
8
0
100
AcDbPolyline
90
20
70
1
43
0.0
10
96.267100000000013
20
37.012700000000002
10
97.32820000000001
20
39.926000000000002
10
98.079300000000003
20
39.651499999999999
10
98.420800000000014
20
40.59170000000001
10
111.57700000000003
20
35.804099999999998
10
111.235
20
34.864400000000003
10
111.986
20
34.5901
10
110.92700000000001
20
31.677
10
110.17400000000001
20
31.9512
10
108.191
20
26.502400000000002
10
108.94200000000001
20
26.228200000000005
10
107.883
20
23.313600000000001
10
107.13000000000001
20
23.587900000000005
10
106.78800000000001
20
22.648100000000003
10
93.632199999999997
20
27.436699999999998
10
93.975399999999993
20
28.3766
10
93.22290000000001
20
28.649400000000004
10
94.284099999999995
20
31.5626
10
95.035200000000003
20
31.288400000000003
10
97.019499999999994
20
36.738599999999998
0
LINE
5
109
100
AcDbEntity
8
0
100
AcDbLine
10
52.193100000000001
20
145.66819015282584
30
0
11
53.647454137130204
21
145.41133647218902
31
0
0
LWPOLYLINE
5
110
100
AcDbEntity
8
0
100
AcDbPolyline
90
20
70
1
43
0.0
10
45.373200000000004
20
73.198599999999999
10
44.574199999999998
20
73.198599999999999
10
44.574199999999998
20
67.398500000000013
10
45.373200000000004
20
67.398500000000013
10
45.373200000000004
20
64.299400000000006
10
44.574199999999998
20
64.299400000000006
10
44.574199999999998
20
63.298900000000003
10
30.573200000000003
20
63.298900000000003
10
30.573200000000003
20
64.299400000000006
10
29.773900000000001
20
64.299400000000006
10
29.773900000000001
20
67.398500000000013
10
30.573200000000003
20
67.398500000000013
10
30.573200000000003
20
73.198599999999999
10
29.773900000000001
20
73.198599999999999
10
29.773900000000001
20
76.299099999999996
10
30.573200000000003
20
76.299099999999996
10
30.573200000000003
20
77.298200000000008
10
44.574199999999998
20
77.298200000000008
10
44.574199999999998
20
76.299099999999996
10
45.373200000000004
20
76.299099999999996
0
LWPOLYLINE
5
111
100
AcDbEntity
8
0
100
AcDbPolyline
90
20
70
1
43
0.0
10
88.858699999999999
20
31.198800000000002
10
88.667199999999994
20
30.217600000000004
10
74.925399999999996
20
32.888300000000001
10
75.115600000000001
20
33.870800000000003
10
74.331299999999999
20
34.022399999999998
10
74.921199999999999
20
37.066400000000002
10
75.707899999999995
20
36.913600000000002
10
76.813100000000006
20
42.606000000000002
10
76.029300000000006
20
42.759099999999997
10
76.620199999999997
20
45.8033
10
77.405799999999999
20
45.650100000000002
10
77.597399999999993
20
46.631600000000006
10
91.339100000000002
20
43.96070000000001
10
91.149000000000001
20
42.978200000000008
10
91.933199999999999
20
42.825499999999998
10
91.34190000000001
20
39.782700000000006
10
90.556299999999993
20
39.935499999999998
10
89.450000000000003
20
34.241500000000002
10
90.235299999999995
20
34.0899
10
89.643999999999991
20
31.047200000000004
0
LWPOLYLINE
5
112
100
AcDbEntity
8
0
100
AcDbPolyline
90
20
70
1
43
0.0
10
72.500100000000003
20
74.809700000000007
10
72.672200000000004
20
75.793599999999998
10
86.460899999999995
20
73.3626
10
86.287300000000016
20
72.378699999999995
10
87.073999999999998
20
72.239400000000003
10
86.536699999999996
20
69.187100000000015
10
85.7483
20
69.326499999999996
10
84.741100000000017
20
63.6143
10
85.529200000000003
20
63.475299999999997
10
84.990499999999997
20
60.421300000000002
10
84.202399999999997
20
60.560699999999997
10
84.029900000000012
20
59.575299999999999
10
70.241200000000006
20
62.006300000000003
10
70.416200000000003
20
62.991600000000005
10
69.628100000000018
20
63.130600000000001
10
70.165700000000001
20
66.184300000000007
10
70.953800000000001
20
66.045299999999997
10
71.960999999999999
20
71.757099999999994
10
71.174300000000002
20
71.896500000000003
10
71.711600000000004
20
74.948700000000002
0
LWPOLYLINE
5
113
100
AcDbEntity
8
0
100
AcDbPolyline
90
20
70
1
43
0.0
10
89.813699999999997
20
63.756500000000003
10
90.404899999999998
20
66.799199999999999
10
91.190200000000004
20
66.647499999999994
10
91.380400000000009
20
67.627099999999999
10
105.124
20
64.956599999999995
10
104.93200000000002
20
63.975499999999997
10
105.71899999999999
20
63.822400000000002
10
105.126
20
60.779700000000005
10
104.34200000000003
20
60.931399999999996
10
103.23399999999999
20
55.238700000000009
10
104.02000000000001
20
55.085500000000003
10
103.429
20
52.042800000000007
10
102.64299999999999
20
52.195900000000002
10
102.453
20
51.213500000000003
10
88.709900000000005
20
53.885399999999997
10
88.90140000000001
20
54.866500000000009
10
88.114400000000018
20
55.019600000000004
10
88.707000000000008
20
58.0623
10
89.491299999999995
20
57.909199999999998
10
90.59899999999999
20
63.603400000000008
0
LWPOLYLINE
5
114
100
AcDbEntity
8
0
100
AcDbPolyline
90
20
70
1
43
0.0
10
111.29000000000002
20
61.962200000000003
10
111.50700000000001
20
62.937700000000007
10
110.72499999999999
20
63.111199999999997
10
111.39700000000002
20
66.137699999999995
10
112.178
20
65.963800000000006
10
113.43299999999999
20
71.626200000000011
10
112.652
20
71.799800000000005
10
113.32300000000001
20
74.827300000000008
10
114.10400000000001
20
74.6524
10
114.319
20
75.629600000000011
10
127.988
20
72.599199999999996
10
127.77200000000001
20
71.622
10
128.553
20
71.44980000000001
10
127.88200000000002
20
68.423699999999997
10
127.101
20
68.597300000000004
10
125.845
20
62.933799999999998
10
126.626
20
62.761300000000006
10
125.95500000000001
20
59.735200000000006
10
125.17400000000001
20
59.907299999999999
10
124.95800000000001
20
58.930500000000009
0
LWPOLYLINE
5
115
100
AcDbEntity
8
0
100
AcDbPolyline
90
20
70
1
43
0.0
10
110.196
20
57.031500000000008
10
123.863
20
54.001100000000008
10
123.649
20
53.024300000000004
10
124.43000000000001
20
52.851800000000004
10
123.758
20
49.824200000000005
10
122.97800000000001
20
49.998100000000001
10
121.72200000000002
20
44.335700000000003
10
122.50299999999999
20
44.163500000000006
10
121.83300000000001
20
41.1357
10
121.053
20
41.30960000000001
10
120.83500000000001
20
40.3324
10
107.16700000000002
20
43.362699999999997
10
107.384
20
44.338500000000003
10
106.60200000000002
20
44.513500000000008
10
107.273
20
47.538200000000003
10
108.05500000000002
20
47.366100000000003
10
109.31
20
53.028100000000009
10
108.529
20
53.202100000000002
10
109.20000000000002
20
56.228200000000008
10
109.98100000000001
20
56.054600000000008
0
LWPOLYLINE
5
116
100
AcDbEntity
8
0
100
AcDbPolyline
90
20
70
1
43
0.0
10
50.024200000000008
20
75.907899999999998
10
50.823300000000003
20
75.865200000000002
10
50.874400000000009
20
76.8643
10
64.856099999999998
20
76.132599999999996
10
64.8035
20
75.133600000000001
10
65.602900000000005
20
75.09190000000001
10
65.440299999999993
20
71.995599999999996
10
64.640900000000002
20
72.038300000000007
10
64.337800000000001
20
66.246399999999994
10
65.137200000000007
20
66.203699999999998
10
64.974600000000009
20
63.107399999999998
10
64.175200000000004
20
63.150000000000006
10
64.123000000000005
20
62.151000000000003
10
50.141400000000004
20
62.883999999999993
10
50.195000000000007
20
63.883100000000006
10
49.395899999999997
20
63.924400000000006
10
49.558199999999999
20
67.0197
10
50.356200000000008
20
66.978000000000009
10
50.660699999999999
20
72.769900000000007
10
49.86160000000001
20
72.811599999999999
0
LWPOLYLINE
5
117
100
AcDbEntity
8
0
100
AcDbPolyline
90
20
70
1
43
0.0
10
24.418900000000004
20
67.398500000000013
10
24.418900000000004
20
64.299400000000006
10
23.618200000000002
20
64.299400000000006
10
23.618200000000002
20
63.298900000000003
10
9.6173199999999994
20
63.298900000000003
10
9.6173199999999994
20
64.299400000000006
10
8.8180700000000005
20
64.299400000000006
10
8.8180700000000005
20
67.398500000000013
10
9.6173199999999994
20
67.398500000000013
10
9.6173199999999994
20
73.198599999999999
10
8.8180700000000005
20
73.198599999999999
10
8.8180700000000005
20
76.299099999999996
10
9.6173199999999994
20
76.299099999999996
10
9.6173199999999994
20
77.298200000000008
10
23.618200000000002
20
77.298200000000008
10
23.618200000000002
20
76.299099999999996
10
24.418900000000004
20
76.299099999999996
10
24.418900000000004
20
73.198599999999999
10
23.618200000000002
20
73.198599999999999
10
23.618200000000002
20
67.398500000000013
0
LWPOLYLINE
5
118
100
AcDbEntity
8
0
100
AcDbPolyline
90
20
70
1
43
0.0
10
51.35390000000001
20
86.001900000000006
10
51.657200000000003
20
91.793800000000005
10
50.859300000000005
20
91.836500000000001
10
51.020499999999998
20
94.93180000000001
10
51.819899999999997
20
94.890199999999993
10
51.872100000000003
20
95.889600000000002
10
65.8523
20
95.156199999999998
10
65.801199999999994
20
94.157100000000014
10
66.599199999999996
20
94.115799999999993
10
66.436499999999995
20
91.019500000000008
10
65.637500000000003
20
91.062200000000004
10
65.334100000000007
20
85.27030000000002
10
66.133499999999998
20
85.227599999999995
10
65.972300000000004
20
82.132300000000015
10
65.172899999999998
20
82.173900000000003
10
65.119200000000006
20
81.174900000000008
10
51.139000000000003
20
81.907899999999998
10
51.191200000000009
20
82.907000000000011
10
50.392200000000003
20
82.948300000000017
10
50.5548
20
86.043199999999999
0
LWPOLYLINE
5
119
100
AcDbEntity
8
0
100
AcDbPolyline
90
20
70
1
43
0.0
10
107.97600000000001
20
79.631500000000003
10
106.87
20
73.938699999999997
10
107.65500000000002
20
73.785600000000002
10
107.06400000000001
20
70.74290000000002
10
106.27700000000002
20
70.896000000000015
10
106.08800000000001
20
69.913499999999999
10
92.34520000000002
20
72.585400000000007
10
92.535399999999996
20
73.566500000000005
10
91.749700000000004
20
73.7196
10
92.342399999999998
20
76.76230000000001
10
93.126300000000001
20
76.609200000000016
10
94.234399999999994
20
82.303399999999996
10
93.449100000000001
20
82.45620000000001
10
94.04000000000002
20
85.49890000000002
10
94.824200000000019
20
85.347500000000011
10
95.015800000000013
20
86.327200000000005
10
108.75900000000001
20
83.656700000000001
10
108.56700000000002
20
82.675200000000018
10
109.35299999999999
20
82.522500000000008
10
108.762
20
79.479799999999997
0
LWPOLYLINE
5
120
100
AcDbEntity
8
0
100
AcDbPolyline
90
20
70
1
43
0.0
10
130.07900000000001
20
78.333200000000005
10
129.297
20
78.505399999999995
10
129.08199999999999
20
77.530000000000001
10
115.41200000000002
20
80.560000000000002
10
115.63000000000001
20
81.535799999999995
10
114.84899999999999
20
81.709299999999999
10
115.52
20
84.735500000000016
10
116.301
20
84.563299999999998
10
117.55600000000001
20
90.224299999999999
10
116.77500000000002
20
90.399299999999997
10
117.446
20
93.425399999999996
10
118.227
20
93.251900000000006
10
118.444
20
94.227599999999995
10
132.11099999999999
20
91.197300000000013
10
131.8951261731134
20
90.222069998722333
10
132.67593683787069
20
90.049015017367367
10
132.005
20
87.021799999999999
10
131.22399999999999
20
87.195400000000006
10
129.96800000000002
20
81.532899999999998
10
130.75
20
81.359399999999994
0
LWPOLYLINE
5
121
100
AcDbEntity
8
0
100
AcDbPolyline
90
20
70
1
43
0.0
10
87.337199999999996
20
78.337500000000006
10
73.549899999999994
20
80.768100000000004
10
73.723500000000001
20
81.753399999999999
10
72.935400000000001
20
81.891400000000004
10
73.474100000000007
20
84.943600000000004
10
74.261099999999999
20
84.804599999999994
10
75.268300000000011
20
90.516400000000004
10
74.4816
20
90.655799999999999
10
75.02030000000002
20
93.709400000000016
10
75.807400000000001
20
93.570100000000011
10
75.980900000000005
20
94.555400000000006
10
89.768200000000007
20
92.1233
10
89.5946
20
91.139399999999995
10
90.3827
20
91.000100000000003
10
89.845400000000012
20
87.946399999999997
10
89.057000000000016
20
88.085400000000007
10
88.049800000000005
20
82.37360000000001
10
88.836500000000015
20
82.234300000000005
10
88.299199999999999
20
79.183400000000006
10
87.511099999999999
20
79.321400000000011
0
LWPOLYLINE
5
122
100
AcDbEntity
8
0
100
AcDbPolyline
90
20
70
1
43
0.0
10
29.773900000000001
20
83.349400000000017
10
29.773900000000001
20
86.448499999999996
10
30.573200000000003
20
86.448499999999996
10
30.573200000000003
20
92.248599999999996
10
29.773900000000001
20
92.248599999999996
10
29.773900000000001
20
95.349100000000021
10
30.573200000000003
20
95.349100000000021
10
30.573200000000003
20
96.34820000000002
10
44.574199999999998
20
96.34820000000002
10
44.574199999999998
20
95.349100000000021
10
45.373200000000004
20
95.349100000000021
10
45.373200000000004
20
92.248599999999996
10
44.574199999999998
20
92.248599999999996
10
44.574199999999998
20
86.448499999999996
10
45.373200000000004
20
86.448499999999996
10
45.373200000000004
20
83.349400000000017
10
44.574199999999998
20
83.349400000000017
10
44.574199999999998
20
82.3489
10
30.573200000000003
20
82.3489
10
30.573200000000003
20
83.349400000000017
0
LWPOLYLINE
5
123
100
AcDbEntity
8
0
100
AcDbPolyline
90
20
70
1
43
0.0
10
97.868300000000019
20
101.00299999999999
10
97.082700000000003
20
101.15600000000001
10
97.675300000000007
20
104.199
10
98.459599999999995
20
104.048
10
98.651100000000014
20
105.02700000000002
10
112.39400000000001
20
102.35700000000001
10
112.203
20
101.37500000000001
10
112.988
20
101.22300000000001
10
112.39700000000001
20
98.1798
10
111.61100000000002
20
98.33120000000001
10
110.505
20
92.6387
10
111.29000000000002
20
92.485600000000005
10
110.69900000000001
20
89.442900000000009
10
109.91200000000001
20
89.596000000000004
10
109.72200000000001
20
88.613500000000002
10
95.9803
20
91.285500000000013
10
96.170400000000015
20
92.266600000000011
10
95.385100000000008
20
92.419700000000006
10
95.976399999999998
20
95.462400000000002
10
96.761700000000005
20
95.309299999999993
0
LWPOLYLINE
5
124
100
AcDbEntity
8
0
100
AcDbPolyline
90
20
70
1
43
0.0
10
8.8180700000000005
20
86.448499999999996
10
9.6173199999999994
20
86.448499999999996
10
9.6173199999999994
20
92.248599999999996
10
8.8180700000000005
20
92.248599999999996
10
8.8180700000000005
20
95.349100000000021
10
9.6173199999999994
20
95.349100000000021
10
9.6173199999999994
20
96.34820000000002
10
23.618200000000002
20
96.34820000000002
10
23.618200000000002
20
95.349100000000021
10
24.418900000000004
20
95.349100000000021
10
24.418900000000004
20
92.248599999999996
10
23.618200000000002
20
92.248599999999996
10
23.618200000000002
20
86.448499999999996
10
24.418900000000004
20
86.448499999999996
10
24.418900000000004
20
83.349400000000017
10
23.618200000000002
20
83.349400000000017
10
23.618200000000002
20
82.3489
10
9.6173199999999994
20
82.3489
10
9.6173199999999994
20
83.349400000000017
10
8.8180700000000005
20
83.349400000000017
0
LWPOLYLINE
5
125
100
AcDbEntity
8
0
100
AcDbPolyline
90
20
70
1
43
0.0
10
135.22999999999999
20
111.035
10
135.02100000000002
20
110.059
10
135.804
20
109.89000000000001
10
135.15899999999999
20
106.85900000000001
10
134.37799999999999
20
107.02500000000001
10
133.172
20
101.352
10
133.95400000000001
20
101.185
10
133.31
20
98.153400000000005
10
132.52700000000002
20
98.3202
10
132.31899999999999
20
97.342000000000013
10
118.62400000000001
20
100.25200000000001
10
118.83200000000002
20
101.23100000000001
10
118.05100000000002
20
101.39800000000001
10
118.69500000000001
20
104.42900000000002
10
119.477
20
104.26200000000001
10
120.68300000000001
20
109.93600000000001
10
119.90000000000002
20
110.10300000000001
10
120.54500000000002
20
113.13400000000001
10
121.328
20
112.96799999999999
10
121.536
20
113.947
0
LWPOLYLINE
5
126
100
AcDbEntity
8
0
100
AcDbPolyline
90
20
70
1
43
0.0
10
93.689999999999998
20
109.76100000000002
10
93.152699999999996
20
106.708
10
92.3643
20
106.84600000000002
10
91.358500000000021
20
101.134
10
92.145200000000003
20
100.99600000000002
10
91.606500000000011
20
97.942800000000005
10
90.818399999999997
20
98.081800000000001
10
90.645900000000012
20
97.096400000000003
10
76.857200000000006
20
99.5274
10
77.032200000000003
20
100.51299999999999
10
76.244100000000003
20
100.65200000000002
10
76.781400000000005
20
103.70400000000001
10
77.569800000000001
20
103.566
10
78.576999999999998
20
109.27900000000001
10
77.790300000000002
20
109.41600000000001
10
78.327600000000004
20
112.47
10
79.116100000000003
20
112.331
10
79.288200000000003
20
113.31600000000002
10
93.076899999999995
20
110.88500000000002
10
92.903300000000002
20
109.90000000000002
0
LINE
5
127
100
AcDbEntity
8
0
100
AcDbLine
10
0.17299506321773483
20
60.207871293390383
30
0
11
122.264
21
0.088194399999999007
31
0
0
LINE
5
128
100
AcDbEntity
8
0
100
AcDbLine
10
0.3165714211706116
20
125.18301904808436
30
0
11
52.193100000000001
21
145.66819015282584
31
0
0
LINE
5
129
100
AcDbEntity
8
0
100
AcDbLine
10
159.44644541793463
20
89.128505481742508
30
0
11
145.69573362701942
21
27.086359510075582
31
0
0
ARC
5
130
100
AcDbEntity
8
0
100
AcDbCircle
10
109.07413147759362
20
35.202988756075698
30
0
40
37.510284113931377
100
AcDbArc
50
290.58725339074158
51
347.5032576426907
0
ARC
5
131
100
AcDbEntity
8
0
100
AcDbCircle
10
-18.335995372849538
20
-257.92673311730528
30
0
40
409.71113651392773
100
AcDbArc
50
66.590536035020875
51
80.087531817569698
0
CIRCLE
5
132
100
AcDbEntity
8
0
100
AcDbCircle
10
27.095700000000001
20
119.50497943919888
30
0
40
2.3999999999999999
0
CIRCLE
5
133
100
AcDbEntity
8
0
100
AcDbCircle
10
27.095700000000001
20
60.719997698019995
30
0
40
2.3999999999999999
0
CIRCLE
5
134
100
AcDbEntity
8
0
100
AcDbCircle
10
75.948837745788111
20
54.260933658135272
30
0
40
2.3999999999999999
0
CIRCLE
5
135
100
AcDbEntity
8
0
100
AcDbCircle
10
72.286139570970406
20
109.59640581800022
30
0
40
2.3999999999999999
0
CIRCLE
5
136
100
AcDbEntity
8
0
100
AcDbCircle
10
121.34279149354894
20
34.417017714326455
30
0
40
2.3999999999999999
0
LINE
5
137
100
AcDbEntity
8
0
100
AcDbLine
10
16.617760000000001
20
115.398
30
0
11
16.617760000000001
21
101.399
31
0
0
LINE
5
138
100
AcDbEntity
8
0
100
AcDbLine
10
9.6173199999999994
20
108.399
30
0
11
23.618200000000002
21
108.399
31
0
0
LINE
5
139
100
AcDbEntity
8
0
100
AcDbLine
10
9.6173199999999994
20
89.348549999999989
30
0
11
23.618200000000002
21
89.348549999999989
31
0
0
LINE
5
140
100
AcDbEntity
8
0
100
AcDbLine
10
9.6173199999999994
20
70.298550000000006
30
0
11
23.618200000000002
21
70.298550000000006
31
0
0
LINE
5
141
100
AcDbEntity
8
0
100
AcDbLine
10
30.573200000000003
20
108.399
30
0
11
44.574199999999998
21
108.399
31
0
0
LINE
5
142
100
AcDbEntity
8
0
100
AcDbLine
10
30.573200000000003
20
89.348549999999989
30
0
11
44.574199999999998
21
89.348549999999989
31
0
0
LINE
5
143
100
AcDbEntity
8
0
100
AcDbLine
10
30.573200000000003
20
70.298550000000006
30
0
11
44.574199999999998
21
70.298550000000006
31
0
0
LINE
5
144
100
AcDbEntity
8
0
100
AcDbLine
10
38.19380000000001
20
128.40200000000004
30
0
11
52.193100000000001
21
128.40200000000004
31
0
0
LINE
5
145
100
AcDbEntity
8
0
100
AcDbLine
10
45.193450000000006
20
135.40200000000002
30
0
11
45.193450000000006
21
121.402
31
0
0
LINE
5
146
100
AcDbEntity
8
0
100
AcDbLine
10
58.981450000000002
20
127.40300000000002
30
0
11
72.947699999999998
21
126.42599999999999
31
0
0
LINE
5
147
100
AcDbEntity
8
0
100
AcDbLine
10
66.452399999999997
20
133.89749999999998
30
0
11
65.475549999999998
21
119.9315
31
0
0
LINE
5
148
100
AcDbEntity
8
0
100
AcDbLine
10
59.85915
20
114.54650000000001
30
0
11
59.126100000000008
21
100.5645
31
0
0
LINE
5
149
100
AcDbEntity
8
0
100
AcDbLine
10
58.862200000000001
20
95.522899999999993
30
0
11
58.129100000000008
21
81.541399999999996
31
0
0
LINE
5
150
100
AcDbEntity
8
0
100
AcDbLine
10
57.86525000000001
20
76.498450000000005
30
0
11
57.132200000000005
21
62.517499999999998
31
0
0
LINE
5
151
100
AcDbEntity
8
0
100
AcDbLine
10
50.508450000000011
20
69.873950000000008
30
0
11
64.489350000000002
21
69.142349999999993
31
0
0
LINE
5
152
100
AcDbEntity
8
0
100
AcDbLine
10
51.505550000000007
20
88.897850000000005
30
0
11
65.485800000000012
21
88.166250000000019
31
0
0
LINE
5
153
100
AcDbEntity
8
0
100
AcDbLine
10
52.502700000000004
20
107.92200000000001
30
0
11
66.483399999999989
21
107.1895
31
0
0
LINE
5
154
100
AcDbEntity
8
0
100
AcDbLine
10
89.490550000000013
20
130.8595
30
0
11
87.059550000000002
21
117.07350000000002
31
0
0
LINE
5
155
100
AcDbEntity
8
0
100
AcDbLine
10
86.182549999999992
20
112.10050000000003
30
0
11
83.751550000000009
21
98.311899999999994
31
0
0
LINE
5
156
100
AcDbEntity
8
0
100
AcDbLine
10
82.874550000000013
20
93.339349999999996
30
0
11
80.443549999999988
21
79.552800000000005
31
0
0
LINE
5
157
100
AcDbEntity
8
0
100
AcDbLine
10
79.566549999999992
20
74.578100000000006
30
0
11
77.135550000000009
21
60.790800000000004
31
0
0
LINE
5
158
100
AcDbEntity
8
0
100
AcDbLine
10
81.38069999999999
20
125.1825
30
0
11
95.169399999999996
21
122.75150000000002
31
0
0
LINE
5
159
100
AcDbEntity
8
0
100
AcDbLine
10
78.073399999999992
20
106.42250000000001
30
0
11
91.861400000000017
21
103.99000000000001
31
0
0
LINE
5
160
100
AcDbEntity
8
0
100
AcDbLine
10
74.764700000000005
20
87.660499999999999
30
0
11
88.553400000000011
21
85.229500000000016
31
0
0
LINE
5
161
100
AcDbEntity
8
0
100
AcDbLine
10
71.457400000000007
20
68.901199999999989
30
0
11
85.244700000000009
21
66.470400000000012
31
0
0
LINE
5
162
100
AcDbEntity
8
0
100
AcDbLine
10
109.15700000000001
20
122.39150000000002
30
0
11
106.48560000000002
21
108.6495
31
0
0
LINE
5
163
100
AcDbEntity
8
0
100
AcDbLine
10
105.52255000000001
20
103.69200000000001
30
0
11
102.85115000000002
21
89.9495
31
0
0
LINE
5
164
100
AcDbEntity
8
0
100
AcDbLine
10
101.88740000000001
20
84.991950000000003
30
0
11
99.216600000000014
21
71.249449999999996
31
0
0
LINE
5
165
100
AcDbEntity
8
0
100
AcDbLine
10
98.252200000000002
20
66.291849999999997
30
0
11
95.58144999999999
21
52.54945
31
0
0
LINE
5
166
100
AcDbEntity
8
0
100
AcDbLine
10
90.045149999999992
20
60.756300000000003
30
0
11
103.78800000000001
21
58.085050000000003
31
0
0
LINE
5
167
100
AcDbEntity
8
0
100
AcDbLine
10
93.68034999999999
20
79.456299999999999
30
0
11
107.423
21
76.7851
31
0
0
LINE
5
168
100
AcDbEntity
8
0
100
AcDbLine
10
97.314999999999998
20
98.156149999999997
30
0
11
111.05800000000001
21
95.484950000000012
31
0
0
LINE
5
169
100
AcDbEntity
8
0
100
AcDbLine
10
100.95050000000001
20
116.85600000000001
30
0
11
114.69250000000002
21
114.1845
31
0
0
LINE
5
170
100
AcDbEntity
8
0
100
AcDbLine
10
120.08000000000001
20
107.09900000000002
30
0
11
133.77500000000001
21
104.1885
31
0
0
LINE
5
171
100
AcDbEntity
8
0
100
AcDbLine
10
116.9285
20
87.393799999999999
30
0
11
130.596
21
84.364149999999995
31
0
0
LINE
5
172
100
AcDbEntity
8
0
100
AcDbLine
10
112.80549999999999
20
68.795000000000002
30
0
11
126.47300000000001
21
65.765550000000005
31
0
0
LINE
5
173
100
AcDbEntity
8
0
100
AcDbLine
10
108.68250000000002
20
50.197100000000006
30
0
11
122.35000000000001
21
47.166899999999998
31
0
0
LINE
5
174
100
AcDbEntity
8
0
100
AcDbLine
10
76.260500000000008
20
39.759800000000006
30
0
11
90.003150000000005
21
37.088499999999996
31
0
0
LINE
5
175
100
AcDbEntity
8
0
100
AcDbLine
10
96.027349999999984
20
34.013500000000001
30
0
11
109.1825
21
29.226800000000001
31
0
0
LINE
5
176
100
AcDbEntity
8
0
100
AcDbLine
10
114.8095
20
24.369900000000008
30
0
11
126.27700000000002
21
16.339399999999998
31
0
0
LINE
5
177
100
AcDbEntity
8
0
100
AcDbLine
10
124.5595
20
26.088300000000004
30
0
11
116.53
21
14.620300000000002
31
0
0
LINE
5
178
100
AcDbEntity
8
0
100
AcDbLine
10
104.99890000000001
20
38.197900000000004
30
0
11
100.21010000000001
21
25.042400000000001
31
0
0
LINE
5
179
100
AcDbEntity
8
0
100
AcDbLine
10
84.468250000000012
20
45.296150000000004
30
0
11
81.796300000000002
21
31.552950000000006
31
0
0
LINE
5
180
100
AcDbEntity
8
0
100
AcDbLine
10
128.38300000000001
20
112.491
30
0
11
125.47150000000001
21
98.797000000000011
31
0
0
LINE
5
181
100
AcDbEntity
8
0
100
AcDbLine
10
125.2775
20
92.712450000000004
30
0
11
122.24700000000001
21
79.045000000000002
31
0
0
LINE
5
182
100
AcDbEntity
8
0
100
AcDbLine
10
121.15349999999999
20
74.114400000000003
30
0
11
118.124
21
60.446350000000002
31
0
0
LINE
5
183
100
AcDbEntity
8
0
100
AcDbLine
10
117.02950000000001
20
55.516300000000015
30
0
11
114.00100000000002
21
41.847549999999998
31
0
0
LINE
5
184
100
AcDbEntity
8
0
100
AcDbLine
10
16.617760000000001
20
96.34820000000002
30
0
11
16.617760000000001
21
82.3489
31
0
0
LINE
5
185
100
AcDbEntity
8
0
100
AcDbLine
10
16.617760000000001
20
77.298200000000008
30
0
11
16.617760000000001
21
63.298900000000003
31
0
0
LINE
5
186
100
AcDbEntity
8
0
100
AcDbLine
10
37.573700000000002
20
115.398
30
0
11
37.573700000000002
21
101.399
31
0
0
LINE
5
187
100
AcDbEntity
8
0
100
AcDbLine
10
37.573700000000002
20
96.34820000000002
30
0
11
37.573700000000002
21
82.3489
31
0
0
LINE
5
188
100
AcDbEntity
8
0
100
AcDbLine
10
37.573700000000002
20
77.298200000000008
30
0
11
37.573700000000002
21
63.298900000000003
31
0
0
CIRCLE
5
189
100
AcDbEntity
8
0
100
AcDbCircle
10
122.31038025009651
20
119.46706067476347
30
0
40
2.3999999999999999
0
LINE
5
190
100
AcDbEntity
8
0
100
AcDbLine
10
0.3165714211706116
20
143.34586437545238
30
0
11
0.3165714211706116
21
-23.397314290344333
31
0
0
LINE
5
191
100
AcDbEntity
8
0
100
AcDbLine
10
0.46014777912348837
20
60.207871293390376
30
0
11
0.31657142117062059
21
60.13717186508994
31
0
0
LINE
5
192
100
AcDbEntity
8
0
100
AcDbLine
10
0.46014777912348837
20
60.207871293390376
30
0
11
0.3165714211706116
21
125.18301904808436
31
0
0
LINE
5
193
100
AcDbEntity
8
0
100
AcDbLine
10
144.44202508701497
20
118.06067549992788
30
0
11
139.0324224688722
21
93.652967710916187
31
0
0
LINE
5
194
100
AcDbEntity
8
0
100
AcDbLine
10
139.0324224688722
20
93.652967710916187
30
0
11
159.44644541793463
21
89.128505481742508
31
0
0
LINE
5
195
100
AcDbEntity
8
0
100
AcDbLine
10
159.44644541793463
20
89.128505481742508
30
0
11
147.11255144856733
21
33.478931722796197
31
0
0
LINE
5
196
100
AcDbEntity
8
0
100
AcDbLine
10
139.0324224688722
20
93.652967710916187
30
0
11
126.6985284995049
21
38.003393951969855
31
0
0
LINE
5
197
100
AcDbEntity
8
0
100
AcDbLine
10
126.6985284995049
20
38.003393951969855
30
0
11
147.11255144856733
21
33.478931722796197
31
0
0
CIRCLE
5
198
100
AcDbEntity
8
0
100
AcDbCircle
10
130.20514477287429
20
39.960740189026012
30
0
40
1.0999999999999996
0
CIRCLE
5
199
100
AcDbEntity
8
0
100
AcDbCircle
10
144.76131785257559
20
36.734582588206443
30
0
40
1.1000000000000001
0
LINE
5
200
100
AcDbEntity
8
0
100
AcDbLine
10
129.1051447728743
20
39.960740189026012
30
0
11
131.30514477287429
21
39.960740189026012
31
0
0
LINE
5
201
100
AcDbEntity
8
0
100
AcDbLine
10
130.20514477287429
20
41.060740189026021
30
0
11
130.20514477287429
21
38.860740189026018
31
0
0
LINE
5
202
100
AcDbEntity
8
0
100
AcDbLine
10
143.66131785257559
20
36.734582588206443
30
0
11
145.86131785257558
21
36.734582588206443
31
0
0
LINE
5
203
100
AcDbEntity
8
0
100
AcDbLine
10
144.76131785257559
20
37.834582588206445
30
0
11
144.76131785257559
21
35.634582588206449
31
0
0
ENDSEC
0
SECTION
2
OBJECTS
0
DICTIONARY
5
C
100
AcDbDictionary
3
ACAD_GROUP
350
D
3
ACAD_MLINESTYLE
350
17
0
DICTIONARY
5
D
100
AcDbDictionary
0
DICTIONARY
5
1A
330
C
100
AcDbDictionary
0
DICTIONARY
5
17
100
AcDbDictionary
0
ENDSEC
0
EOF
