  0
SECTION
  2
HEADER
  9
$ACADVER
  1
AC1009
  9
$EXTMIN
 10
0.0
 20
0.0
 30
0.0
  9
$EXTMAX
 10
1000.0
 20
1000.0
 30
0.0
  9
$FILLMODE
 70
 0
  9
$SPLFRAME
 70
 1
  0
ENDSEC
  0
SECTION
  2
TABLES
  0
TABLE
  2
LAYER
 70
1
  0
LAYER
  2
0
 70
     0
 62
     7
  6
CONTINUOUS
  0
ENDTAB
  0
ENDSEC
  0
SECTION
  2
ENTITIES
  0
LINE
  8
0
 62
     0
 10
0.0950846
 20
137.593
 30
0.0
 11
131.226
 21
137.593
 31
0.0
  0
LINE
  8
0
 62
     0
 10
131.226
 20
137.593
 30
0.0
 11
131.226
 21
0.0881944
 31
0.0
  0
LINE
  8
0
 62
     0
 10
131.226
 20
0.0881944
 30
0.0
 11
0.0950846
 21
0.0881944
 31
0.0
  0
LINE
  8
0
 62
     0
 10
0.0950846
 20
0.0881944
 30
0.0
 11
0.0950846
 21
137.593
 31
0.0
  0
LINE
  8
0
 62
     0
 10
103.797
 20
11.6362
 30
0.0
 11
115.264
 21
3.60634
 31
0.0
  0
LINE
  8
0
 62
     0
 10
115.264
 20
3.60634
 30
0.0
 11
123.293
 21
15.0744
 31
0.0
  0
LINE
  8
0
 62
     0
 10
123.293
 20
15.0744
 30
0.0
 11
111.826
 21
23.1042
 31
0.0
  0
LINE
  8
0
 62
     0
 10
111.826
 20
23.1042
 30
0.0
 11
103.797
 21
11.6362
 31
0.0
  0
LINE
  8
0
 62
     0
 10
86.6331
 20
20.4363
 30
0.0
 11
99.7892
 21
15.6476
 31
0.0
  0
LINE
  8
0
 62
     0
 10
99.7892
 20
15.6476
 30
0.0
 11
104.578
 21
28.8037
 31
0.0
  0
LINE
  8
0
 62
     0
 10
104.578
 20
28.8037
 30
0.0
 11
91.4217
 21
33.5925
 31
0.0
  0
LINE
  8
0
 62
     0
 10
91.4217
 20
33.5925
 30
0.0
 11
86.6331
 21
20.4363
 31
0.0
  0
LINE
  8
0
 62
     0
 10
67.9263
 20
25.8892
 30
0.0
 11
81.6695
 21
23.2186
 31
0.0
  0
LINE
  8
0
 62
     0
 10
81.6695
 20
23.2186
 30
0.0
 11
84.34
 21
36.9616
 31
0.0
  0
LINE
  8
0
 62
     0
 10
84.34
 20
36.9616
 30
0.0
 11
70.5982
 21
39.6325
 31
0.0
  0
LINE
  8
0
 62
     0
 10
70.5982
 20
39.6325
 30
0.0
 11
67.9263
 21
25.8892
 31
0.0
  0
LINE
  8
0
 62
     0
 10
100.168
 20
36.3636
 30
0.0
 11
113.836
 21
33.332
 31
0.0
  0
LINE
  8
0
 62
     0
 10
113.836
 20
33.332
 30
0.0
 11
116.866
 21
47.0006
 31
0.0
  0
LINE
  8
0
 62
     0
 10
116.866
 20
47.0006
 30
0.0
 11
103.197
 21
50.0295
 31
0.0
  0
LINE
  8
0
 62
     0
 10
103.197
 20
50.0295
 30
0.0
 11
100.168
 21
36.3636
 31
0.0
  0
LINE
  8
0
 62
     0
 10
81.7107
 20
46.8849
 30
0.0
 11
95.4539
 21
44.2143
 31
0.0
  0
LINE
  8
0
 62
     0
 10
95.4539
 20
44.2143
 30
0.0
 11
98.1244
 21
57.9575
 31
0.0
  0
LINE
  8
0
 62
     0
 10
98.1244
 20
57.9575
 30
0.0
 11
84.3813
 21
60.6266
 31
0.0
  0
LINE
  8
0
 62
     0
 10
84.3813
 20
60.6266
 30
0.0
 11
81.7107
 21
46.8849
 31
0.0
  0
LINE
  8
0
 62
     0
 10
104.291
 20
54.9617
 30
0.0
 11
117.959
 21
51.9314
 31
0.0
  0
LINE
  8
0
 62
     0
 10
117.959
 20
51.9314
 30
0.0
 11
120.99
 21
65.6001
 31
0.0
  0
LINE
  8
0
 62
     0
 10
120.99
 20
65.6001
 30
0.0
 11
107.32
 21
68.6304
 31
0.0
  0
LINE
  8
0
 62
     0
 10
107.32
 20
68.6304
 30
0.0
 11
104.291
 21
54.9617
 31
0.0
  0
LINE
  8
0
 62
     0
 10
63.2425
 20
55.0072
 30
0.0
 11
77.0308
 21
52.5762
 31
0.0
  0
LINE
  8
0
 62
     0
 10
77.0308
 20
52.5762
 30
0.0
 11
79.4618
 21
66.3635
 31
0.0
  0
LINE
  8
0
 62
     0
 10
79.4618
 20
66.3635
 30
0.0
 11
65.6731
 21
68.7945
 31
0.0
  0
LINE
  8
0
 62
     0
 10
65.6731
 20
68.7945
 30
0.0
 11
63.2425
 21
55.0072
 31
0.0
  0
LINE
  8
0
 62
     0
 10
43.1423
 20
55.8849
 30
0.0
 11
57.1239
 21
55.1519
 31
0.0
  0
LINE
  8
0
 62
     0
 10
57.1239
 20
55.1519
 30
0.0
 11
57.857
 21
69.1321
 31
0.0
  0
LINE
  8
0
 62
     0
 10
57.857
 20
69.1321
 30
0.0
 11
43.8753
 21
69.8652
 31
0.0
  0
LINE
  8
0
 62
     0
 10
43.8753
 20
69.8652
 30
0.0
 11
43.1423
 21
55.8849
 31
0.0
  0
LINE
  8
0
 62
     0
 10
2.61965
 20
70.2991
 30
0.0
 11
16.6192
 21
70.2991
 31
0.0
  0
LINE
  8
0
 62
     0
 10
16.6192
 20
70.2991
 30
0.0
 11
16.6192
 21
56.2998
 31
0.0
  0
LINE
  8
0
 62
     0
 10
16.6192
 20
56.2998
 30
0.0
 11
2.61965
 21
56.2998
 31
0.0
  0
LINE
  8
0
 62
     0
 10
2.61965
 20
56.2998
 30
0.0
 11
2.61965
 21
70.2991
 31
0.0
  0
LINE
  8
0
 62
     0
 10
23.5741
 20
70.2991
 30
0.0
 11
37.5751
 21
70.2991
 31
0.0
  0
LINE
  8
0
 62
     0
 10
37.5751
 20
70.2991
 30
0.0
 11
37.5751
 21
56.2998
 31
0.0
  0
LINE
  8
0
 62
     0
 10
37.5751
 20
56.2998
 30
0.0
 11
23.5741
 21
56.2998
 31
0.0
  0
LINE
  8
0
 62
     0
 10
23.5741
 20
56.2998
 30
0.0
 11
23.5741
 21
70.2991
 31
0.0
  0
LINE
  8
0
 62
     0
 10
85.3461
 20
65.5863
 30
0.0
 11
99.0893
 21
62.9144
 31
0.0
  0
LINE
  8
0
 62
     0
 10
99.0893
 20
62.9144
 30
0.0
 11
101.76
 21
76.6576
 31
0.0
  0
LINE
  8
0
 62
     0
 10
101.76
 20
76.6576
 30
0.0
 11
88.0166
 21
79.3281
 31
0.0
  0
LINE
  8
0
 62
     0
 10
88.0166
 20
79.3281
 30
0.0
 11
85.3461
 21
65.5863
 31
0.0
  0
LINE
  8
0
 62
     0
 10
108.414
 20
73.5598
 30
0.0
 11
122.083
 21
70.5309
 31
0.0
  0
LINE
  8
0
 62
     0
 10
122.083
 20
70.5309
 30
0.0
 11
125.112
 21
84.1982
 31
0.0
  0
LINE
  8
0
 62
     0
 10
125.112
 20
84.1982
 30
0.0
 11
111.445
 21
87.2285
 31
0.0
  0
LINE
  8
0
 62
     0
 10
111.445
 20
87.2285
 30
0.0
 11
108.414
 21
73.5598
 31
0.0
  0
LINE
  8
0
 62
     0
 10
66.5508
 20
73.7676
 30
0.0
 11
80.3381
 21
71.337
 31
0.0
  0
LINE
  8
0
 62
     0
 10
80.3381
 20
71.337
 30
0.0
 11
82.7691
 21
85.1242
 31
0.0
  0
LINE
  8
0
 62
     0
 10
82.7691
 20
85.1242
 30
0.0
 11
68.9818
 21
87.5552
 31
0.0
  0
LINE
  8
0
 62
     0
 10
68.9818
 20
87.5552
 30
0.0
 11
66.5508
 21
73.7676
 31
0.0
  0
LINE
  8
0
 62
     0
 10
44.1399
 20
74.9088
 30
0.0
 11
58.1201
 21
74.1758
 31
0.0
  0
LINE
  8
0
 62
     0
 10
58.1201
 20
74.1758
 30
0.0
 11
58.8532
 21
88.156
 31
0.0
  0
LINE
  8
0
 62
     0
 10
58.8532
 20
88.156
 30
0.0
 11
44.873
 21
88.8891
 31
0.0
  0
LINE
  8
0
 62
     0
 10
44.873
 20
88.8891
 30
0.0
 11
44.1399
 21
74.9088
 31
0.0
  0
LINE
  8
0
 62
     0
 10
2.61965
 20
89.3491
 30
0.0
 11
16.6192
 21
89.3491
 31
0.0
  0
LINE
  8
0
 62
     0
 10
16.6192
 20
89.3491
 30
0.0
 11
16.6192
 21
75.3498
 31
0.0
  0
LINE
  8
0
 62
     0
 10
16.6192
 20
75.3498
 30
0.0
 11
2.61965
 21
75.3498
 31
0.0
  0
LINE
  8
0
 62
     0
 10
2.61965
 20
75.3498
 30
0.0
 11
2.61965
 21
89.3491
 31
0.0
  0
LINE
  8
0
 62
     0
 10
23.5741
 20
89.3491
 30
0.0
 11
37.5751
 21
89.3491
 31
0.0
  0
LINE
  8
0
 62
     0
 10
37.5751
 20
89.3491
 30
0.0
 11
37.5751
 21
75.3498
 31
0.0
  0
LINE
  8
0
 62
     0
 10
37.5751
 20
75.3498
 30
0.0
 11
23.5741
 21
75.3498
 31
0.0
  0
LINE
  8
0
 62
     0
 10
23.5741
 20
75.3498
 30
0.0
 11
23.5741
 21
89.3491
 31
0.0
  0
LINE
  8
0
 62
     0
 10
88.9811
 20
84.2864
 30
0.0
 11
102.723
 21
81.6144
 31
0.0
  0
LINE
  8
0
 62
     0
 10
102.723
 20
81.6144
 30
0.0
 11
105.395
 21
95.3576
 31
0.0
  0
LINE
  8
0
 62
     0
 10
105.395
 20
95.3576
 30
0.0
 11
91.652
 21
98.0281
 31
0.0
  0
LINE
  8
0
 62
     0
 10
91.652
 20
98.0281
 30
0.0
 11
88.9811
 21
84.2864
 31
0.0
  0
LINE
  8
0
 62
     0
 10
69.8581
 20
92.5283
 30
0.0
 11
83.6468
 21
90.0977
 31
0.0
  0
LINE
  8
0
 62
     0
 10
83.6468
 20
90.0977
 30
0.0
 11
86.0778
 21
103.885
 31
0.0
  0
LINE
  8
0
 62
     0
 10
86.0778
 20
103.885
 30
0.0
 11
72.2891
 21
106.316
 31
0.0
  0
LINE
  8
0
 62
     0
 10
72.2891
 20
106.316
 30
0.0
 11
69.8581
 21
92.5283
 31
0.0
  0
LINE
  8
0
 62
     0
 10
111.625
 20
93.2519
 30
0.0
 11
125.32
 21
90.3429
 31
0.0
  0
LINE
  8
0
 62
     0
 10
125.32
 20
90.3429
 30
0.0
 11
128.23
 21
104.035
 31
0.0
  0
LINE
  8
0
 62
     0
 10
128.23
 20
104.035
 30
0.0
 11
114.537
 21
106.945
 31
0.0
  0
LINE
  8
0
 62
     0
 10
114.537
 20
106.945
 30
0.0
 11
111.625
 21
93.2519
 31
0.0
  0
LINE
  8
0
 62
     0
 10
45.1362
 20
93.9327
 30
0.0
 11
59.1164
 21
93.1997
 31
0.0
  0
LINE
  8
0
 62
     0
 10
59.1164
 20
93.1997
 30
0.0
 11
59.8509
 21
107.18
 31
0.0
  0
LINE
  8
0
 62
     0
 10
59.8509
 20
107.18
 30
0.0
 11
45.8692
 21
107.913
 31
0.0
  0
LINE
  8
0
 62
     0
 10
45.8692
 20
107.913
 30
0.0
 11
45.1362
 21
93.9327
 31
0.0
  0
LINE
  8
0
 62
     0
 10
2.61965
 20
108.399
 30
0.0
 11
16.6192
 21
108.399
 31
0.0
  0
LINE
  8
0
 62
     0
 10
16.6192
 20
108.399
 30
0.0
 11
16.6192
 21
94.3998
 31
0.0
  0
LINE
  8
0
 62
     0
 10
16.6192
 20
94.3998
 30
0.0
 11
2.61965
 21
94.3998
 31
0.0
  0
LINE
  8
0
 62
     0
 10
2.61965
 20
94.3998
 30
0.0
 11
2.61965
 21
108.399
 31
0.0
  0
LINE
  8
0
 62
     0
 10
23.5741
 20
108.399
 30
0.0
 11
37.5751
 21
108.399
 31
0.0
  0
LINE
  8
0
 62
     0
 10
37.5751
 20
108.399
 30
0.0
 11
37.5751
 21
94.3998
 31
0.0
  0
LINE
  8
0
 62
     0
 10
37.5751
 20
94.3998
 30
0.0
 11
23.5741
 21
94.3998
 31
0.0
  0
LINE
  8
0
 62
     0
 10
23.5741
 20
94.3998
 30
0.0
 11
23.5741
 21
108.399
 31
0.0
  0
LINE
  8
0
 62
     0
 10
92.6151
 20
102.986
 30
0.0
 11
106.358
 21
100.314
 31
0.0
  0
LINE
  8
0
 62
     0
 10
106.358
 20
100.314
 30
0.0
 11
109.031
 21
114.058
 31
0.0
  0
LINE
  8
0
 62
     0
 10
109.031
 20
114.058
 30
0.0
 11
95.287
 21
116.728
 31
0.0
  0
LINE
  8
0
 62
     0
 10
95.287
 20
116.728
 30
0.0
 11
92.6151
 21
102.986
 31
0.0
  0
LINE
  8
0
 62
     0
 10
73.1668
 20
111.289
 30
0.0
 11
86.9541
 21
108.858
 31
0.0
  0
LINE
  8
0
 62
     0
 10
86.9541
 20
108.858
 30
0.0
 11
89.3851
 21
122.644
 31
0.0
  0
LINE
  8
0
 62
     0
 10
89.3851
 20
122.644
 30
0.0
 11
75.5978
 21
125.076
 31
0.0
  0
LINE
  8
0
 62
     0
 10
75.5978
 20
125.076
 30
0.0
 11
73.1668
 21
111.289
 31
0.0
  0
LINE
  8
0
 62
     0
 10
51.4932
 20
113.421
 30
0.0
 11
65.4597
 21
112.442
 31
0.0
  0
LINE
  8
0
 62
     0
 10
65.4597
 20
112.442
 30
0.0
 11
66.4365
 21
126.41
 31
0.0
  0
LINE
  8
0
 62
     0
 10
66.4365
 20
126.41
 30
0.0
 11
52.47
 21
127.386
 31
0.0
  0
LINE
  8
0
 62
     0
 10
52.47
 20
127.386
 30
0.0
 11
51.4932
 21
113.421
 31
0.0
  0
LINE
  8
0
 62
     0
 10
31.1947
 20
128.403
 30
0.0
 11
45.194
 21
128.403
 31
0.0
  0
LINE
  8
0
 62
     0
 10
45.194
 20
128.403
 30
0.0
 11
45.194
 21
114.402
 31
0.0
  0
LINE
  8
0
 62
     0
 10
45.194
 20
114.402
 30
0.0
 11
31.1947
 21
114.402
 31
0.0
  0
LINE
  8
0
 62
     0
 10
31.1947
 20
114.402
 30
0.0
 11
31.1947
 21
128.403
 31
0.0
  0
ENDSEC
  0
EOF
