G04 #@! TF.GenerationSoftware,KiCad,Pcbnew,(5.0.2)-1*
G04 #@! TF.CreationDate,2019-01-24T16:51:55+08:00*
G04 #@! TF.ProjectId,52Te_Rev,35325465-5f52-4657-962e-6b696361645f,rev?*
G04 #@! TF.SameCoordinates,Original*
G04 #@! TF.FileFunction,Legend,Bot*
G04 #@! TF.FilePolarity,Positive*
%FSLAX46Y46*%
G04 Gerber Fmt 4.6, Leading zero omitted, Abs format (unit mm)*
G04 Created by KiCad (PCBNEW (5.0.2)-1) date 24/01/2019 16:51:55*
%MOMM*%
%LPD*%
G01*
G04 APERTURE LIST*
%ADD10C,0.150000*%
%ADD11C,0.300000*%
%ADD12C,0.800000*%
%ADD13C,3.000000*%
%ADD14C,0.500000*%
%ADD15C,1.000000*%
%ADD16C,3.500000*%
%ADD17C,0.400000*%
%ADD18C,0.010000*%
%ADD19C,0.125000*%
G04 APERTURE END LIST*
D10*
G04 #@! TO.C,D1*
X165200000Y-133540000D02*
X165200000Y-132040000D01*
X159800000Y-133540000D02*
X165200000Y-133540000D01*
X159800000Y-132040000D02*
X159800000Y-133540000D01*
X165200000Y-132040000D02*
X159800000Y-132040000D01*
X163000000Y-133290000D02*
X162100000Y-132790000D01*
X163000000Y-132290000D02*
X163000000Y-133290000D01*
X162100000Y-132790000D02*
X163000000Y-132290000D01*
X162000000Y-132290000D02*
X162000000Y-133290000D01*
G04 #@! TO.C,D2*
X162040000Y-151310000D02*
X162040000Y-152310000D01*
X162140000Y-151810000D02*
X163040000Y-151310000D01*
X163040000Y-151310000D02*
X163040000Y-152310000D01*
X163040000Y-152310000D02*
X162140000Y-151810000D01*
X165240000Y-151060000D02*
X159840000Y-151060000D01*
X159840000Y-151060000D02*
X159840000Y-152560000D01*
X159840000Y-152560000D02*
X165240000Y-152560000D01*
X165240000Y-152560000D02*
X165240000Y-151060000D01*
G04 #@! TO.C,D3*
X165230000Y-171660000D02*
X165230000Y-170160000D01*
X159830000Y-171660000D02*
X165230000Y-171660000D01*
X159830000Y-170160000D02*
X159830000Y-171660000D01*
X165230000Y-170160000D02*
X159830000Y-170160000D01*
X163030000Y-171410000D02*
X162130000Y-170910000D01*
X163030000Y-170410000D02*
X163030000Y-171410000D01*
X162130000Y-170910000D02*
X163030000Y-170410000D01*
X162030000Y-170410000D02*
X162030000Y-171410000D01*
G04 #@! TO.C,D4*
X193800000Y-113570000D02*
X193800000Y-112070000D01*
X188400000Y-113570000D02*
X193800000Y-113570000D01*
X188400000Y-112070000D02*
X188400000Y-113570000D01*
X193800000Y-112070000D02*
X188400000Y-112070000D01*
X191600000Y-113320000D02*
X190700000Y-112820000D01*
X191600000Y-112320000D02*
X191600000Y-113320000D01*
X190700000Y-112820000D02*
X191600000Y-112320000D01*
X190600000Y-112320000D02*
X190600000Y-113320000D01*
G04 #@! TO.C,D5*
X182970000Y-132310000D02*
X182970000Y-133310000D01*
X183070000Y-132810000D02*
X183970000Y-132310000D01*
X183970000Y-132310000D02*
X183970000Y-133310000D01*
X183970000Y-133310000D02*
X183070000Y-132810000D01*
X186170000Y-132060000D02*
X180770000Y-132060000D01*
X180770000Y-132060000D02*
X180770000Y-133560000D01*
X180770000Y-133560000D02*
X186170000Y-133560000D01*
X186170000Y-133560000D02*
X186170000Y-132060000D01*
G04 #@! TO.C,D6*
X186180000Y-152640000D02*
X186180000Y-151140000D01*
X180780000Y-152640000D02*
X186180000Y-152640000D01*
X180780000Y-151140000D02*
X180780000Y-152640000D01*
X186180000Y-151140000D02*
X180780000Y-151140000D01*
X183980000Y-152390000D02*
X183080000Y-151890000D01*
X183980000Y-151390000D02*
X183980000Y-152390000D01*
X183080000Y-151890000D02*
X183980000Y-151390000D01*
X182980000Y-151390000D02*
X182980000Y-152390000D01*
G04 #@! TO.C,D7*
X186170000Y-171640000D02*
X186170000Y-170140000D01*
X180770000Y-171640000D02*
X186170000Y-171640000D01*
X180770000Y-170140000D02*
X180770000Y-171640000D01*
X186170000Y-170140000D02*
X180770000Y-170140000D01*
X183970000Y-171390000D02*
X183070000Y-170890000D01*
X183970000Y-170390000D02*
X183970000Y-171390000D01*
X183070000Y-170890000D02*
X183970000Y-170390000D01*
X182970000Y-170390000D02*
X182970000Y-171390000D01*
G04 #@! TO.C,D8*
X210826096Y-113426340D02*
X210756340Y-114423904D01*
X210890974Y-113932097D02*
X211823660Y-113496096D01*
X211823660Y-113496096D02*
X211753904Y-114493660D01*
X211753904Y-114493660D02*
X210890974Y-113932097D01*
X214035740Y-113400169D02*
X208648894Y-113023484D01*
X208648894Y-113023484D02*
X208544260Y-114519831D01*
X208544260Y-114519831D02*
X213931106Y-114896516D01*
X213931106Y-114896516D02*
X214035740Y-113400169D01*
G04 #@! TO.C,D9*
X207587048Y-134230279D02*
X207665552Y-132732335D01*
X202194448Y-133947665D02*
X207587048Y-134230279D01*
X202272952Y-132449721D02*
X202194448Y-133947665D01*
X207665552Y-132732335D02*
X202272952Y-132449721D01*
X205403147Y-133865483D02*
X204530548Y-133319066D01*
X205455483Y-132866853D02*
X205403147Y-133865483D01*
X204530548Y-133319066D02*
X205455483Y-132866853D01*
X204456853Y-132814517D02*
X204404517Y-133813147D01*
G04 #@! TO.C,D10*
X203496853Y-151874517D02*
X203444517Y-152873147D01*
X203570548Y-152379066D02*
X204495483Y-151926853D01*
X204495483Y-151926853D02*
X204443147Y-152925483D01*
X204443147Y-152925483D02*
X203570548Y-152379066D01*
X206705552Y-151792335D02*
X201312952Y-151509721D01*
X201312952Y-151509721D02*
X201234448Y-153007665D01*
X201234448Y-153007665D02*
X206627048Y-153290279D01*
X206627048Y-153290279D02*
X206705552Y-151792335D01*
G04 #@! TO.C,D11*
X202486853Y-170974517D02*
X202434517Y-171973147D01*
X202560548Y-171479066D02*
X203485483Y-171026853D01*
X203485483Y-171026853D02*
X203433147Y-172025483D01*
X203433147Y-172025483D02*
X202560548Y-171479066D01*
X205695552Y-170892335D02*
X200302952Y-170609721D01*
X200302952Y-170609721D02*
X200224448Y-172107665D01*
X200224448Y-172107665D02*
X205617048Y-172390279D01*
X205617048Y-172390279D02*
X205695552Y-170892335D01*
G04 #@! TO.C,D12*
X235328745Y-117567456D02*
X235589217Y-116090244D01*
X230010783Y-116629756D02*
X235328745Y-117567456D01*
X230271255Y-115152544D02*
X230010783Y-116629756D01*
X235589217Y-116090244D02*
X230271255Y-115152544D01*
X233205580Y-116939228D02*
X232406077Y-116290541D01*
X233379228Y-115954420D02*
X233205580Y-116939228D01*
X232406077Y-116290541D02*
X233379228Y-115954420D01*
X232394420Y-115780772D02*
X232220772Y-116765580D01*
G04 #@! TO.C,D13*
X229076386Y-134562546D02*
X228902738Y-135547354D01*
X229088043Y-135072315D02*
X230061194Y-134736194D01*
X230061194Y-134736194D02*
X229887546Y-135721002D01*
X229887546Y-135721002D02*
X229088043Y-135072315D01*
X232271183Y-134872018D02*
X226953221Y-133934318D01*
X226953221Y-133934318D02*
X226692749Y-135411530D01*
X226692749Y-135411530D02*
X232010711Y-136349230D01*
X232010711Y-136349230D02*
X232271183Y-134872018D01*
G04 #@! TO.C,D14*
X228686779Y-155085682D02*
X228947251Y-153608470D01*
X223368817Y-154147982D02*
X228686779Y-155085682D01*
X223629289Y-152670770D02*
X223368817Y-154147982D01*
X228947251Y-153608470D02*
X223629289Y-152670770D01*
X226563614Y-154457454D02*
X225764111Y-153808767D01*
X226737262Y-153472646D02*
X226563614Y-154457454D01*
X225764111Y-153808767D02*
X226737262Y-153472646D01*
X225752454Y-153298998D02*
X225578806Y-154283806D01*
G04 #@! TO.C,D15*
X225408745Y-173867456D02*
X225669217Y-172390244D01*
X220090783Y-172929756D02*
X225408745Y-173867456D01*
X220351255Y-171452544D02*
X220090783Y-172929756D01*
X225669217Y-172390244D02*
X220351255Y-171452544D01*
X223285580Y-173239228D02*
X222486077Y-172590541D01*
X223459228Y-172254420D02*
X223285580Y-173239228D01*
X222486077Y-172590541D02*
X223459228Y-172254420D01*
X222474420Y-172080772D02*
X222300772Y-173065580D01*
G04 #@! TO.C,D16*
X230252203Y-184865096D02*
X230061394Y-185846723D01*
X230254961Y-185374990D02*
X231233830Y-185055905D01*
X231233830Y-185055905D02*
X231043021Y-186037532D01*
X231043021Y-186037532D02*
X230254961Y-185374990D01*
X233441112Y-185230278D02*
X228140325Y-184199909D01*
X228140325Y-184199909D02*
X227854112Y-185672350D01*
X227854112Y-185672350D02*
X233154899Y-186702719D01*
X233154899Y-186702719D02*
X233441112Y-185230278D01*
G04 #@! TO.C,D17*
X251874591Y-124063782D02*
X251683782Y-125045409D01*
X251877349Y-124573676D02*
X252856218Y-124254591D01*
X252856218Y-124254591D02*
X252665409Y-125236218D01*
X252665409Y-125236218D02*
X251877349Y-124573676D01*
X255063500Y-124428964D02*
X249762713Y-123398595D01*
X249762713Y-123398595D02*
X249476500Y-124871036D01*
X249476500Y-124871036D02*
X254777287Y-125901405D01*
X254777287Y-125901405D02*
X255063500Y-124428964D01*
G04 #@! TO.C,D18*
X251087287Y-144651405D02*
X251373500Y-143178964D01*
X245786500Y-143621036D02*
X251087287Y-144651405D01*
X246072713Y-142148595D02*
X245786500Y-143621036D01*
X251373500Y-143178964D02*
X246072713Y-142148595D01*
X248975409Y-143986218D02*
X248187349Y-143323676D01*
X249166218Y-143004591D02*
X248975409Y-143986218D01*
X248187349Y-143323676D02*
X249166218Y-143004591D01*
X248184591Y-142813782D02*
X247993782Y-143795409D01*
G04 #@! TO.C,D19*
X244544591Y-161513782D02*
X244353782Y-162495409D01*
X244547349Y-162023676D02*
X245526218Y-161704591D01*
X245526218Y-161704591D02*
X245335409Y-162686218D01*
X245335409Y-162686218D02*
X244547349Y-162023676D01*
X247733500Y-161878964D02*
X242432713Y-160848595D01*
X242432713Y-160848595D02*
X242146500Y-162321036D01*
X242146500Y-162321036D02*
X247447287Y-163351405D01*
X247447287Y-163351405D02*
X247733500Y-161878964D01*
G04 #@! TO.C,D20*
X240874591Y-180163782D02*
X240683782Y-181145409D01*
X240877349Y-180673676D02*
X241856218Y-180354591D01*
X241856218Y-180354591D02*
X241665409Y-181336218D01*
X241665409Y-181336218D02*
X240877349Y-180673676D01*
X244063500Y-180528964D02*
X238762713Y-179498595D01*
X238762713Y-179498595D02*
X238476500Y-180971036D01*
X238476500Y-180971036D02*
X243777287Y-182001405D01*
X243777287Y-182001405D02*
X244063500Y-180528964D01*
G04 #@! TO.C,D21*
X253910655Y-193678224D02*
X254423685Y-192268685D01*
X248836315Y-191831315D02*
X253910655Y-193678224D01*
X249349345Y-190421776D02*
X248836315Y-191831315D01*
X254423685Y-192268685D02*
X249349345Y-190421776D01*
X251928836Y-192690856D02*
X251254123Y-191913192D01*
X252270856Y-191751164D02*
X251928836Y-192690856D01*
X251254123Y-191913192D02*
X252270856Y-191751164D01*
X251331164Y-191409144D02*
X250989144Y-192348836D01*
G04 #@! TO.C,D22*
X273695065Y-135754972D02*
X274006932Y-134287751D01*
X268413068Y-134632249D02*
X273695065Y-135754972D01*
X268724935Y-133165028D02*
X268413068Y-134632249D01*
X274006932Y-134287751D02*
X268724935Y-133165028D01*
X271595118Y-135053030D02*
X270818741Y-134376835D01*
X271803030Y-134074882D02*
X271595118Y-135053030D01*
X270818741Y-134376835D02*
X271803030Y-134074882D01*
X270824882Y-133866970D02*
X270616970Y-134845118D01*
G04 #@! TO.C,D23*
X267460072Y-153473632D02*
X267243632Y-154449928D01*
X267449482Y-153983424D02*
X268436368Y-153690072D01*
X268436368Y-153690072D02*
X268219928Y-154666368D01*
X268219928Y-154666368D02*
X267449482Y-153983424D01*
X270638329Y-153922165D02*
X265366330Y-152753391D01*
X265366330Y-152753391D02*
X265041671Y-154217835D01*
X265041671Y-154217835D02*
X270313670Y-155386609D01*
X270313670Y-155386609D02*
X270638329Y-153922165D01*
G04 #@! TO.C,D24*
X263450072Y-172133632D02*
X263233632Y-173109928D01*
X263439482Y-172643424D02*
X264426368Y-172350072D01*
X264426368Y-172350072D02*
X264209928Y-173326368D01*
X264209928Y-173326368D02*
X263439482Y-172643424D01*
X266628329Y-172582165D02*
X261356330Y-171413391D01*
X261356330Y-171413391D02*
X261031671Y-172877835D01*
X261031671Y-172877835D02*
X266303670Y-174046609D01*
X266303670Y-174046609D02*
X266628329Y-172582165D01*
G04 #@! TO.C,D25*
X262053670Y-192636609D02*
X262378329Y-191172165D01*
X256781671Y-191467835D02*
X262053670Y-192636609D01*
X257106330Y-190003391D02*
X256781671Y-191467835D01*
X262378329Y-191172165D02*
X257106330Y-190003391D01*
X259959928Y-191916368D02*
X259189482Y-191233424D01*
X260176368Y-190940072D02*
X259959928Y-191916368D01*
X259189482Y-191233424D02*
X260176368Y-190940072D01*
X259200072Y-190723632D02*
X258983632Y-191699928D01*
G04 #@! TO.C,D26*
X271907212Y-202633636D02*
X271333636Y-203452788D01*
X271702339Y-203100569D02*
X272726364Y-203207212D01*
X272726364Y-203207212D02*
X272152788Y-204026364D01*
X272152788Y-204026364D02*
X271702339Y-203100569D01*
X274671893Y-204264292D02*
X270248472Y-201166980D01*
X270248472Y-201166980D02*
X269388107Y-202395708D01*
X269388107Y-202395708D02*
X273811528Y-205493020D01*
X273811528Y-205493020D02*
X274671893Y-204264292D01*
G04 #@! TO.C,J1*
X292112536Y-158545319D02*
X303828088Y-161142594D01*
X290813898Y-164403095D02*
X292112536Y-158545319D01*
X302529450Y-167000370D02*
X290813898Y-164403095D01*
X303828088Y-161142594D02*
X302529450Y-167000370D01*
D11*
G04 #@! TO.C,SW1*
X161050000Y-120709999D02*
X161050000Y-119810000D01*
D12*
X161550000Y-122910000D02*
X161550000Y-121110001D01*
D13*
X162680000Y-119410000D02*
X162680000Y-121650000D01*
D14*
X171150000Y-121210000D02*
X169750000Y-121210000D01*
D15*
X170750000Y-118510000D02*
X170750000Y-121010000D01*
D16*
X169450000Y-119710000D02*
X162750000Y-119710000D01*
D10*
X171450000Y-121510000D02*
X171450000Y-120510000D01*
X171450000Y-120510000D02*
X171250000Y-120510000D01*
X171230000Y-120510000D02*
X171230000Y-118260000D01*
X171250000Y-118260000D02*
X171450000Y-118260000D01*
X160950000Y-120810000D02*
X161150000Y-120810000D01*
X161180000Y-120810000D02*
X161180000Y-123050000D01*
X161150000Y-123050000D02*
X160950000Y-123050000D01*
X160950000Y-123410000D02*
X160950000Y-123050000D01*
X160950000Y-119810000D02*
X160950000Y-120810000D01*
X160950000Y-123410000D02*
X164230000Y-123410000D01*
X166450000Y-121510000D02*
X171450000Y-121510000D01*
X171450000Y-117910000D02*
X163049999Y-117910000D01*
X164233682Y-123388529D02*
G75*
G02X166450000Y-121510000I2151318J-291471D01*
G01*
X160950000Y-119810001D02*
G75*
G02X163049999Y-117910000I2000000J-99999D01*
G01*
X171450000Y-118260000D02*
X171450000Y-117910000D01*
D15*
X163833682Y-122988529D02*
G75*
G02X166050000Y-121110000I2151318J-291471D01*
G01*
D14*
X161150000Y-123210000D02*
X163850000Y-123210000D01*
D17*
X171250000Y-118110000D02*
X169850000Y-118110000D01*
X171250000Y-120610000D02*
X171250000Y-121310000D01*
G04 #@! TO.C,SW2*
X171260000Y-139670000D02*
X171260000Y-140370000D01*
X171260000Y-137170000D02*
X169860000Y-137170000D01*
D14*
X161160000Y-142270000D02*
X163860000Y-142270000D01*
D15*
X163843682Y-142048529D02*
G75*
G02X166060000Y-140170000I2151318J-291471D01*
G01*
D10*
X171460000Y-137320000D02*
X171460000Y-136970000D01*
X160960000Y-138870001D02*
G75*
G02X163059999Y-136970000I2000000J-99999D01*
G01*
X164243682Y-142448529D02*
G75*
G02X166460000Y-140570000I2151318J-291471D01*
G01*
X171460000Y-136970000D02*
X163059999Y-136970000D01*
X166460000Y-140570000D02*
X171460000Y-140570000D01*
X160960000Y-142470000D02*
X164240000Y-142470000D01*
X160960000Y-138870000D02*
X160960000Y-139870000D01*
X160960000Y-142470000D02*
X160960000Y-142110000D01*
X161160000Y-142110000D02*
X160960000Y-142110000D01*
X161190000Y-139870000D02*
X161190000Y-142110000D01*
X160960000Y-139870000D02*
X161160000Y-139870000D01*
X171260000Y-137320000D02*
X171460000Y-137320000D01*
X171240000Y-139570000D02*
X171240000Y-137320000D01*
X171460000Y-139570000D02*
X171260000Y-139570000D01*
X171460000Y-140570000D02*
X171460000Y-139570000D01*
D16*
X169460000Y-138770000D02*
X162760000Y-138770000D01*
D15*
X170760000Y-137570000D02*
X170760000Y-140070000D01*
D14*
X171160000Y-140270000D02*
X169760000Y-140270000D01*
D13*
X162690000Y-138470000D02*
X162690000Y-140710000D01*
D12*
X161560000Y-141970000D02*
X161560000Y-140170001D01*
D11*
X161060000Y-139769999D02*
X161060000Y-138870000D01*
G04 #@! TO.C,SW3*
X161050000Y-158839999D02*
X161050000Y-157940000D01*
D12*
X161550000Y-161040000D02*
X161550000Y-159240001D01*
D13*
X162680000Y-157540000D02*
X162680000Y-159780000D01*
D14*
X171150000Y-159340000D02*
X169750000Y-159340000D01*
D15*
X170750000Y-156640000D02*
X170750000Y-159140000D01*
D16*
X169450000Y-157840000D02*
X162750000Y-157840000D01*
D10*
X171450000Y-159640000D02*
X171450000Y-158640000D01*
X171450000Y-158640000D02*
X171250000Y-158640000D01*
X171230000Y-158640000D02*
X171230000Y-156390000D01*
X171250000Y-156390000D02*
X171450000Y-156390000D01*
X160950000Y-158940000D02*
X161150000Y-158940000D01*
X161180000Y-158940000D02*
X161180000Y-161180000D01*
X161150000Y-161180000D02*
X160950000Y-161180000D01*
X160950000Y-161540000D02*
X160950000Y-161180000D01*
X160950000Y-157940000D02*
X160950000Y-158940000D01*
X160950000Y-161540000D02*
X164230000Y-161540000D01*
X166450000Y-159640000D02*
X171450000Y-159640000D01*
X171450000Y-156040000D02*
X163049999Y-156040000D01*
X164233682Y-161518529D02*
G75*
G02X166450000Y-159640000I2151318J-291471D01*
G01*
X160950000Y-157940001D02*
G75*
G02X163049999Y-156040000I2000000J-99999D01*
G01*
X171450000Y-156390000D02*
X171450000Y-156040000D01*
D15*
X163833682Y-161118529D02*
G75*
G02X166050000Y-159240000I2151318J-291471D01*
G01*
D14*
X161150000Y-161340000D02*
X163850000Y-161340000D01*
D17*
X171250000Y-156240000D02*
X169850000Y-156240000D01*
X171250000Y-158740000D02*
X171250000Y-159440000D01*
G04 #@! TO.C,SW4*
X199840000Y-100620000D02*
X199840000Y-101320000D01*
X199840000Y-98120000D02*
X198440000Y-98120000D01*
D14*
X189740000Y-103220000D02*
X192440000Y-103220000D01*
D15*
X192423682Y-102998529D02*
G75*
G02X194640000Y-101120000I2151318J-291471D01*
G01*
D10*
X200040000Y-98270000D02*
X200040000Y-97920000D01*
X189540000Y-99820001D02*
G75*
G02X191639999Y-97920000I2000000J-99999D01*
G01*
X192823682Y-103398529D02*
G75*
G02X195040000Y-101520000I2151318J-291471D01*
G01*
X200040000Y-97920000D02*
X191639999Y-97920000D01*
X195040000Y-101520000D02*
X200040000Y-101520000D01*
X189540000Y-103420000D02*
X192820000Y-103420000D01*
X189540000Y-99820000D02*
X189540000Y-100820000D01*
X189540000Y-103420000D02*
X189540000Y-103060000D01*
X189740000Y-103060000D02*
X189540000Y-103060000D01*
X189770000Y-100820000D02*
X189770000Y-103060000D01*
X189540000Y-100820000D02*
X189740000Y-100820000D01*
X199840000Y-98270000D02*
X200040000Y-98270000D01*
X199820000Y-100520000D02*
X199820000Y-98270000D01*
X200040000Y-100520000D02*
X199840000Y-100520000D01*
X200040000Y-101520000D02*
X200040000Y-100520000D01*
D16*
X198040000Y-99720000D02*
X191340000Y-99720000D01*
D15*
X199340000Y-98520000D02*
X199340000Y-101020000D01*
D14*
X199740000Y-101220000D02*
X198340000Y-101220000D01*
D13*
X191270000Y-99420000D02*
X191270000Y-101660000D01*
D12*
X190140000Y-102920000D02*
X190140000Y-101120001D01*
D11*
X189640000Y-100719999D02*
X189640000Y-99820000D01*
D17*
G04 #@! TO.C,SW5*
X192210000Y-120610000D02*
X192210000Y-121310000D01*
X192210000Y-118110000D02*
X190810000Y-118110000D01*
D14*
X182110000Y-123210000D02*
X184810000Y-123210000D01*
D15*
X184793682Y-122988529D02*
G75*
G02X187010000Y-121110000I2151318J-291471D01*
G01*
D10*
X192410000Y-118260000D02*
X192410000Y-117910000D01*
X181910000Y-119810001D02*
G75*
G02X184009999Y-117910000I2000000J-99999D01*
G01*
X185193682Y-123388529D02*
G75*
G02X187410000Y-121510000I2151318J-291471D01*
G01*
X192410000Y-117910000D02*
X184009999Y-117910000D01*
X187410000Y-121510000D02*
X192410000Y-121510000D01*
X181910000Y-123410000D02*
X185190000Y-123410000D01*
X181910000Y-119810000D02*
X181910000Y-120810000D01*
X181910000Y-123410000D02*
X181910000Y-123050000D01*
X182110000Y-123050000D02*
X181910000Y-123050000D01*
X182140000Y-120810000D02*
X182140000Y-123050000D01*
X181910000Y-120810000D02*
X182110000Y-120810000D01*
X192210000Y-118260000D02*
X192410000Y-118260000D01*
X192190000Y-120510000D02*
X192190000Y-118260000D01*
X192410000Y-120510000D02*
X192210000Y-120510000D01*
X192410000Y-121510000D02*
X192410000Y-120510000D01*
D16*
X190410000Y-119710000D02*
X183710000Y-119710000D01*
D15*
X191710000Y-118510000D02*
X191710000Y-121010000D01*
D14*
X192110000Y-121210000D02*
X190710000Y-121210000D01*
D13*
X183640000Y-119410000D02*
X183640000Y-121650000D01*
D12*
X182510000Y-122910000D02*
X182510000Y-121110001D01*
D11*
X182010000Y-120709999D02*
X182010000Y-119810000D01*
G04 #@! TO.C,SW6*
X182010000Y-139759999D02*
X182010000Y-138860000D01*
D12*
X182510000Y-141960000D02*
X182510000Y-140160001D01*
D13*
X183640000Y-138460000D02*
X183640000Y-140700000D01*
D14*
X192110000Y-140260000D02*
X190710000Y-140260000D01*
D15*
X191710000Y-137560000D02*
X191710000Y-140060000D01*
D16*
X190410000Y-138760000D02*
X183710000Y-138760000D01*
D10*
X192410000Y-140560000D02*
X192410000Y-139560000D01*
X192410000Y-139560000D02*
X192210000Y-139560000D01*
X192190000Y-139560000D02*
X192190000Y-137310000D01*
X192210000Y-137310000D02*
X192410000Y-137310000D01*
X181910000Y-139860000D02*
X182110000Y-139860000D01*
X182140000Y-139860000D02*
X182140000Y-142100000D01*
X182110000Y-142100000D02*
X181910000Y-142100000D01*
X181910000Y-142460000D02*
X181910000Y-142100000D01*
X181910000Y-138860000D02*
X181910000Y-139860000D01*
X181910000Y-142460000D02*
X185190000Y-142460000D01*
X187410000Y-140560000D02*
X192410000Y-140560000D01*
X192410000Y-136960000D02*
X184009999Y-136960000D01*
X185193682Y-142438529D02*
G75*
G02X187410000Y-140560000I2151318J-291471D01*
G01*
X181910000Y-138860001D02*
G75*
G02X184009999Y-136960000I2000000J-99999D01*
G01*
X192410000Y-137310000D02*
X192410000Y-136960000D01*
D15*
X184793682Y-142038529D02*
G75*
G02X187010000Y-140160000I2151318J-291471D01*
G01*
D14*
X182110000Y-142260000D02*
X184810000Y-142260000D01*
D17*
X192210000Y-137160000D02*
X190810000Y-137160000D01*
X192210000Y-139660000D02*
X192210000Y-140360000D01*
G04 #@! TO.C,SW7*
X192210000Y-158720000D02*
X192210000Y-159420000D01*
X192210000Y-156220000D02*
X190810000Y-156220000D01*
D14*
X182110000Y-161320000D02*
X184810000Y-161320000D01*
D15*
X184793682Y-161098529D02*
G75*
G02X187010000Y-159220000I2151318J-291471D01*
G01*
D10*
X192410000Y-156370000D02*
X192410000Y-156020000D01*
X181910000Y-157920001D02*
G75*
G02X184009999Y-156020000I2000000J-99999D01*
G01*
X185193682Y-161498529D02*
G75*
G02X187410000Y-159620000I2151318J-291471D01*
G01*
X192410000Y-156020000D02*
X184009999Y-156020000D01*
X187410000Y-159620000D02*
X192410000Y-159620000D01*
X181910000Y-161520000D02*
X185190000Y-161520000D01*
X181910000Y-157920000D02*
X181910000Y-158920000D01*
X181910000Y-161520000D02*
X181910000Y-161160000D01*
X182110000Y-161160000D02*
X181910000Y-161160000D01*
X182140000Y-158920000D02*
X182140000Y-161160000D01*
X181910000Y-158920000D02*
X182110000Y-158920000D01*
X192210000Y-156370000D02*
X192410000Y-156370000D01*
X192190000Y-158620000D02*
X192190000Y-156370000D01*
X192410000Y-158620000D02*
X192210000Y-158620000D01*
X192410000Y-159620000D02*
X192410000Y-158620000D01*
D16*
X190410000Y-157820000D02*
X183710000Y-157820000D01*
D15*
X191710000Y-156620000D02*
X191710000Y-159120000D01*
D14*
X192110000Y-159320000D02*
X190710000Y-159320000D01*
D13*
X183640000Y-157520000D02*
X183640000Y-159760000D01*
D12*
X182510000Y-161020000D02*
X182510000Y-159220001D01*
D11*
X182010000Y-158819999D02*
X182010000Y-157920000D01*
G04 #@! TO.C,SW8*
X210679203Y-101804668D02*
X210741984Y-100906861D01*
D12*
X211024521Y-104034188D02*
X211150082Y-102238574D01*
D13*
X212395916Y-100621539D02*
X212239661Y-102856082D01*
D14*
X220719722Y-103007991D02*
X219323132Y-102910332D01*
D15*
X220509039Y-100286666D02*
X220334647Y-102780576D01*
D16*
X219128498Y-101393059D02*
X212444818Y-100925691D01*
D10*
X220998064Y-103328188D02*
X221067821Y-102330624D01*
X221067821Y-102330624D02*
X220868308Y-102316672D01*
X220848356Y-102315277D02*
X221005309Y-100070758D01*
X221025260Y-100072153D02*
X221224773Y-100086104D01*
X210572471Y-101897450D02*
X210771984Y-101911401D01*
X210801911Y-101913494D02*
X210645656Y-104148037D01*
X210615729Y-104145945D02*
X210416217Y-104131993D01*
X210391104Y-104491116D02*
X210416217Y-104131993D01*
X210642228Y-100899886D02*
X210572471Y-101897450D01*
X210391104Y-104491116D02*
X213663114Y-104719918D01*
X216010244Y-102979405D02*
X220998064Y-103328188D01*
X221249187Y-99736957D02*
X212869648Y-99151003D01*
X213668286Y-104698756D02*
G75*
G02X216010244Y-102979405I2125745J-440829D01*
G01*
X210642228Y-100899887D02*
G75*
G02X212869648Y-99151003I1988152J-239268D01*
G01*
X221224773Y-100086104D02*
X221249187Y-99736957D01*
D15*
X213297163Y-104271828D02*
G75*
G02X215639121Y-102552477I2125745J-440829D01*
G01*
D14*
X210604568Y-104305555D02*
X213297991Y-104493897D01*
D17*
X221035723Y-99922519D02*
X219639134Y-99824859D01*
X220861332Y-102416429D02*
X220812503Y-103114724D01*
D11*
G04 #@! TO.C,SW9*
X204136825Y-121271658D02*
X204183928Y-120372893D01*
D12*
X204521001Y-123494812D02*
X204615206Y-121697280D01*
D13*
X205832628Y-120058748D02*
X205715396Y-122295679D01*
D14*
X214196816Y-122299567D02*
X212798734Y-122226297D01*
D15*
X213938671Y-119582333D02*
X213807831Y-122078907D01*
D16*
X212577649Y-120712652D02*
X205886831Y-120362001D01*
D10*
X214480704Y-122614857D02*
X214533040Y-121616227D01*
X214533040Y-121616227D02*
X214333314Y-121605760D01*
X214313341Y-121604713D02*
X214431097Y-119357797D01*
X214451070Y-119358844D02*
X214650796Y-119369311D01*
X204031729Y-121366289D02*
X204231455Y-121376756D01*
X204261414Y-121378326D02*
X204144181Y-123615256D01*
X204114222Y-123613686D02*
X203914496Y-123603219D01*
X203895655Y-123962725D02*
X203914496Y-123603219D01*
X204084065Y-120367659D02*
X204031729Y-121366289D01*
X203895655Y-123962725D02*
X207171160Y-124134387D01*
X209487556Y-122353177D02*
X214480704Y-122614857D01*
X214669113Y-119019790D02*
X206280624Y-118580168D01*
X207175961Y-124113138D02*
G75*
G02X209487556Y-122353177I2133115J-403663D01*
G01*
X204084064Y-120367660D02*
G75*
G02X206280624Y-118580168I1992026J-204534D01*
G01*
X214650796Y-119369311D02*
X214669113Y-119019790D01*
D15*
X206797444Y-123692752D02*
G75*
G02X209109039Y-121932791I2133115J-403663D01*
G01*
D14*
X204105848Y-123773467D02*
X206802148Y-123914774D01*
D17*
X214458920Y-119209049D02*
X213060839Y-119135779D01*
X214328080Y-121705623D02*
X214291445Y-122404664D01*
G04 #@! TO.C,SW10*
X213338080Y-140725623D02*
X213301445Y-141424664D01*
X213468920Y-138229049D02*
X212070839Y-138155779D01*
D14*
X203115848Y-142793467D02*
X205812148Y-142934774D01*
D15*
X205807444Y-142712752D02*
G75*
G02X208119039Y-140952791I2133115J-403663D01*
G01*
D10*
X213660796Y-138389311D02*
X213679113Y-138039790D01*
X203094064Y-139387660D02*
G75*
G02X205290624Y-137600168I1992026J-204534D01*
G01*
X206185961Y-143133138D02*
G75*
G02X208497556Y-141373177I2133115J-403663D01*
G01*
X213679113Y-138039790D02*
X205290624Y-137600168D01*
X208497556Y-141373177D02*
X213490704Y-141634857D01*
X202905655Y-142982725D02*
X206181160Y-143154387D01*
X203094065Y-139387659D02*
X203041729Y-140386289D01*
X202905655Y-142982725D02*
X202924496Y-142623219D01*
X203124222Y-142633686D02*
X202924496Y-142623219D01*
X203271414Y-140398326D02*
X203154181Y-142635256D01*
X203041729Y-140386289D02*
X203241455Y-140396756D01*
X213461070Y-138378844D02*
X213660796Y-138389311D01*
X213323341Y-140624713D02*
X213441097Y-138377797D01*
X213543040Y-140636227D02*
X213343314Y-140625760D01*
X213490704Y-141634857D02*
X213543040Y-140636227D01*
D16*
X211587649Y-139732652D02*
X204896831Y-139382001D01*
D15*
X212948671Y-138602333D02*
X212817831Y-141098907D01*
D14*
X213206816Y-141319567D02*
X211808734Y-141246297D01*
D13*
X204842628Y-139078748D02*
X204725396Y-141315679D01*
D12*
X203531001Y-142514812D02*
X203625206Y-140717280D01*
D11*
X203146825Y-140291658D02*
X203193928Y-139392893D01*
G04 #@! TO.C,SW11*
X202136825Y-159311658D02*
X202183928Y-158412893D01*
D12*
X202521001Y-161534812D02*
X202615206Y-159737280D01*
D13*
X203832628Y-158098748D02*
X203715396Y-160335679D01*
D14*
X212196816Y-160339567D02*
X210798734Y-160266297D01*
D15*
X211938671Y-157622333D02*
X211807831Y-160118907D01*
D16*
X210577649Y-158752652D02*
X203886831Y-158402001D01*
D10*
X212480704Y-160654857D02*
X212533040Y-159656227D01*
X212533040Y-159656227D02*
X212333314Y-159645760D01*
X212313341Y-159644713D02*
X212431097Y-157397797D01*
X212451070Y-157398844D02*
X212650796Y-157409311D01*
X202031729Y-159406289D02*
X202231455Y-159416756D01*
X202261414Y-159418326D02*
X202144181Y-161655256D01*
X202114222Y-161653686D02*
X201914496Y-161643219D01*
X201895655Y-162002725D02*
X201914496Y-161643219D01*
X202084065Y-158407659D02*
X202031729Y-159406289D01*
X201895655Y-162002725D02*
X205171160Y-162174387D01*
X207487556Y-160393177D02*
X212480704Y-160654857D01*
X212669113Y-157059790D02*
X204280624Y-156620168D01*
X205175961Y-162153138D02*
G75*
G02X207487556Y-160393177I2133115J-403663D01*
G01*
X202084064Y-158407660D02*
G75*
G02X204280624Y-156620168I1992026J-204534D01*
G01*
X212650796Y-157409311D02*
X212669113Y-157059790D01*
D15*
X204797444Y-161732752D02*
G75*
G02X207109039Y-159972791I2133115J-403663D01*
G01*
D14*
X202105848Y-161813467D02*
X204802148Y-161954774D01*
D17*
X212458920Y-157249049D02*
X211060839Y-157175779D01*
X212328080Y-159745623D02*
X212291445Y-160444664D01*
D11*
G04 #@! TO.C,SW12*
X233457978Y-104200570D02*
X233614261Y-103314244D01*
D12*
X233568356Y-106453972D02*
X233880923Y-104681319D01*
D13*
X235288957Y-103203368D02*
X234899985Y-105409337D01*
D14*
X243317712Y-106446822D02*
X241938981Y-106203714D01*
D15*
X243392639Y-103718381D02*
X242958519Y-106180401D01*
D16*
X241904011Y-104674408D02*
X235305799Y-103510965D01*
D10*
X243561060Y-106794358D02*
X243734708Y-105809551D01*
X243734708Y-105809551D02*
X243537747Y-105774821D01*
X243518051Y-105771348D02*
X243908759Y-103555531D01*
X243928455Y-103559004D02*
X244125417Y-103593733D01*
X233342133Y-104281687D02*
X233539094Y-104316417D01*
X233568638Y-104321626D02*
X233179666Y-106527596D01*
X233150122Y-106522386D02*
X232953161Y-106487656D01*
X232890647Y-106842187D02*
X232953161Y-106487656D01*
X233515781Y-103296879D02*
X233342133Y-104281687D01*
X232890647Y-106842187D02*
X236120817Y-107411753D01*
X238637021Y-105926117D02*
X243561060Y-106794358D01*
X244186194Y-103249050D02*
X235913808Y-101790406D01*
X236128170Y-107391248D02*
G75*
G02X238637021Y-105926117I2068022J-660615D01*
G01*
X233515781Y-103296879D02*
G75*
G02X235913808Y-101790406I1952250J-445777D01*
G01*
X244125417Y-103593733D02*
X244186194Y-103249050D01*
D15*
X235803707Y-106927866D02*
G75*
G02X238312558Y-105462735I2068022J-660615D01*
G01*
D14*
X233122338Y-106679955D02*
X235781319Y-107148805D01*
D17*
X243954502Y-103411282D02*
X242575772Y-103168175D01*
X243520382Y-105873302D02*
X243398828Y-106562667D01*
G04 #@! TO.C,SW13*
X240220382Y-124643302D02*
X240098828Y-125332667D01*
X240654502Y-122181282D02*
X239275772Y-121938175D01*
D14*
X229822338Y-125449955D02*
X232481319Y-125918805D01*
D15*
X232503707Y-125697866D02*
G75*
G02X235012558Y-124232735I2068022J-660615D01*
G01*
D10*
X240825417Y-122363733D02*
X240886194Y-122019050D01*
X230215781Y-122066879D02*
G75*
G02X232613808Y-120560406I1952250J-445777D01*
G01*
X232828170Y-126161248D02*
G75*
G02X235337021Y-124696117I2068022J-660615D01*
G01*
X240886194Y-122019050D02*
X232613808Y-120560406D01*
X235337021Y-124696117D02*
X240261060Y-125564358D01*
X229590647Y-125612187D02*
X232820817Y-126181753D01*
X230215781Y-122066879D02*
X230042133Y-123051687D01*
X229590647Y-125612187D02*
X229653161Y-125257656D01*
X229850122Y-125292386D02*
X229653161Y-125257656D01*
X230268638Y-123091626D02*
X229879666Y-125297596D01*
X230042133Y-123051687D02*
X230239094Y-123086417D01*
X240628455Y-122329004D02*
X240825417Y-122363733D01*
X240218051Y-124541348D02*
X240608759Y-122325531D01*
X240434708Y-124579551D02*
X240237747Y-124544821D01*
X240261060Y-125564358D02*
X240434708Y-124579551D01*
D16*
X238604011Y-123444408D02*
X232005799Y-122280965D01*
D15*
X240092639Y-122488381D02*
X239658519Y-124950401D01*
D14*
X240017712Y-125216822D02*
X238638981Y-124973714D01*
D13*
X231988957Y-121973368D02*
X231599985Y-124179337D01*
D12*
X230268356Y-125223972D02*
X230580923Y-123451319D01*
D11*
X230157978Y-122970570D02*
X230314261Y-122084244D01*
G04 #@! TO.C,SW14*
X226847978Y-141730570D02*
X227004261Y-140844244D01*
D12*
X226958356Y-143983972D02*
X227270923Y-142211319D01*
D13*
X228678957Y-140733368D02*
X228289985Y-142939337D01*
D14*
X236707712Y-143976822D02*
X235328981Y-143733714D01*
D15*
X236782639Y-141248381D02*
X236348519Y-143710401D01*
D16*
X235294011Y-142204408D02*
X228695798Y-141040965D01*
D10*
X236951060Y-144324358D02*
X237124708Y-143339551D01*
X237124708Y-143339551D02*
X236927747Y-143304821D01*
X236908051Y-143301348D02*
X237298759Y-141085531D01*
X237318455Y-141089005D02*
X237515417Y-141123733D01*
X226732133Y-141811687D02*
X226929094Y-141846417D01*
X226958638Y-141851626D02*
X226569666Y-144057596D01*
X226540122Y-144052386D02*
X226343161Y-144017656D01*
X226280647Y-144372187D02*
X226343161Y-144017656D01*
X226905781Y-140826879D02*
X226732133Y-141811687D01*
X226280647Y-144372187D02*
X229510817Y-144941753D01*
X232027020Y-143456117D02*
X236951060Y-144324358D01*
X237576194Y-140779049D02*
X229303809Y-139320406D01*
X229518170Y-144921249D02*
G75*
G02X232027020Y-143456117I2068022J-660614D01*
G01*
X226905781Y-140826878D02*
G75*
G02X229303809Y-139320406I1952250J-445778D01*
G01*
X237515417Y-141123733D02*
X237576194Y-140779049D01*
D15*
X229193707Y-144457866D02*
G75*
G02X231702558Y-142992735I2068022J-660615D01*
G01*
D14*
X226512338Y-144209955D02*
X229171319Y-144678805D01*
D17*
X237344501Y-140941282D02*
X235965772Y-140698175D01*
X236910382Y-143403302D02*
X236788828Y-144092667D01*
G04 #@! TO.C,SW15*
X233600382Y-162163302D02*
X233478828Y-162852667D01*
X234034502Y-159701282D02*
X232655772Y-159458175D01*
D14*
X223202338Y-162969955D02*
X225861319Y-163438805D01*
D15*
X225883707Y-163217866D02*
G75*
G02X228392558Y-161752735I2068022J-660615D01*
G01*
D10*
X234205417Y-159883733D02*
X234266194Y-159539050D01*
X223595781Y-159586879D02*
G75*
G02X225993808Y-158080406I1952250J-445777D01*
G01*
X226208170Y-163681248D02*
G75*
G02X228717021Y-162216117I2068022J-660615D01*
G01*
X234266194Y-159539050D02*
X225993808Y-158080406D01*
X228717021Y-162216117D02*
X233641060Y-163084358D01*
X222970647Y-163132187D02*
X226200817Y-163701753D01*
X223595781Y-159586879D02*
X223422133Y-160571687D01*
X222970647Y-163132187D02*
X223033161Y-162777656D01*
X223230122Y-162812386D02*
X223033161Y-162777656D01*
X223648638Y-160611626D02*
X223259666Y-162817596D01*
X223422133Y-160571687D02*
X223619094Y-160606417D01*
X234008455Y-159849004D02*
X234205417Y-159883733D01*
X233598051Y-162061348D02*
X233988759Y-159845531D01*
X233814708Y-162099551D02*
X233617747Y-162064821D01*
X233641060Y-163084358D02*
X233814708Y-162099551D01*
D16*
X231984011Y-160964408D02*
X225385799Y-159800965D01*
D15*
X233472639Y-160008381D02*
X233038519Y-162470401D01*
D14*
X233397712Y-162736822D02*
X232018981Y-162493714D01*
D13*
X225368957Y-159493368D02*
X224979985Y-161699337D01*
D12*
X223648356Y-162743972D02*
X223960923Y-160971319D01*
D11*
X223537978Y-160490570D02*
X223694261Y-159604244D01*
D17*
G04 #@! TO.C,SW16*
X238443315Y-191511214D02*
X238309748Y-192198353D01*
X238920337Y-189057146D02*
X237546059Y-188790013D01*
D14*
X228032777Y-192136273D02*
X230683170Y-192651458D01*
D15*
X230709410Y-192430943D02*
G75*
G02X233243449Y-191009820I2056178J-696606D01*
G01*
D10*
X239088041Y-189242551D02*
X239154824Y-188898982D01*
X228485201Y-188760580D02*
G75*
G02X230909155Y-187296186I1944174J-479780D01*
G01*
X231025738Y-192899917D02*
G75*
G02X233559776Y-191478795I2056177J-696606D01*
G01*
X239154824Y-188898982D02*
X230909155Y-187296186D01*
X233559776Y-191478795D02*
X238467912Y-192432840D01*
X227798290Y-192294437D02*
X231018027Y-192920291D01*
X228485202Y-188760579D02*
X228294393Y-189742206D01*
X227798290Y-192294437D02*
X227866981Y-191941051D01*
X228063306Y-191979213D02*
X227866981Y-191941051D01*
X228520167Y-189786092D02*
X228092755Y-191984937D01*
X228294393Y-189742206D02*
X228490718Y-189780368D01*
X238891716Y-189204390D02*
X239088041Y-189242551D01*
X238442763Y-191409235D02*
X238872083Y-189200574D01*
X238658721Y-191451213D02*
X238462396Y-191413051D01*
X238467912Y-192432840D02*
X238658721Y-191451213D01*
D16*
X236848114Y-190284293D02*
X230271212Y-189005873D01*
D15*
X238353200Y-189354392D02*
X237876177Y-191808460D01*
D14*
X238230667Y-192081109D02*
X236856389Y-191813976D01*
D13*
X230259741Y-188698028D02*
X229832328Y-190896873D01*
D12*
X228482670Y-191918109D02*
X228826126Y-190151181D01*
D11*
X228411637Y-189663124D02*
X228583365Y-188779660D01*
D17*
G04 #@! TO.C,SW17*
X263123315Y-114431214D02*
X262989748Y-115118353D01*
X263600337Y-111977146D02*
X262226059Y-111710013D01*
D14*
X252712777Y-115056273D02*
X255363170Y-115571458D01*
D15*
X255389410Y-115350943D02*
G75*
G02X257923449Y-113929820I2056178J-696606D01*
G01*
D10*
X263768041Y-112162551D02*
X263834824Y-111818982D01*
X253165201Y-111680580D02*
G75*
G02X255589155Y-110216186I1944174J-479780D01*
G01*
X255705738Y-115819917D02*
G75*
G02X258239776Y-114398795I2056177J-696606D01*
G01*
X263834824Y-111818982D02*
X255589155Y-110216186D01*
X258239776Y-114398795D02*
X263147912Y-115352840D01*
X252478290Y-115214437D02*
X255698027Y-115840291D01*
X253165202Y-111680579D02*
X252974393Y-112662206D01*
X252478290Y-115214437D02*
X252546981Y-114861051D01*
X252743306Y-114899213D02*
X252546981Y-114861051D01*
X253200167Y-112706092D02*
X252772755Y-114904937D01*
X252974393Y-112662206D02*
X253170718Y-112700368D01*
X263571716Y-112124390D02*
X263768041Y-112162551D01*
X263122763Y-114329235D02*
X263552083Y-112120574D01*
X263338721Y-114371213D02*
X263142396Y-114333051D01*
X263147912Y-115352840D02*
X263338721Y-114371213D01*
D16*
X261528114Y-113204293D02*
X254951212Y-111925873D01*
D15*
X263033200Y-112274392D02*
X262556177Y-114728460D01*
D14*
X262910667Y-115001109D02*
X261536389Y-114733976D01*
D13*
X254939741Y-111618028D02*
X254512328Y-113816873D01*
D12*
X253162670Y-114838109D02*
X253506126Y-113071181D01*
D11*
X253091637Y-112583124D02*
X253263365Y-111699660D01*
G04 #@! TO.C,SW18*
X249461637Y-131263124D02*
X249633365Y-130379660D01*
D12*
X249532670Y-133518109D02*
X249876126Y-131751181D01*
D13*
X251309741Y-130298028D02*
X250882328Y-132496873D01*
D14*
X259280667Y-133681109D02*
X257906389Y-133413976D01*
D15*
X259403200Y-130954392D02*
X258926177Y-133408460D01*
D16*
X257898114Y-131884293D02*
X251321212Y-130605873D01*
D10*
X259517912Y-134032840D02*
X259708721Y-133051213D01*
X259708721Y-133051213D02*
X259512396Y-133013051D01*
X259492763Y-133009235D02*
X259922083Y-130800574D01*
X259941716Y-130804390D02*
X260138041Y-130842551D01*
X249344393Y-131342206D02*
X249540718Y-131380368D01*
X249570167Y-131386092D02*
X249142755Y-133584937D01*
X249113306Y-133579213D02*
X248916981Y-133541051D01*
X248848290Y-133894437D02*
X248916981Y-133541051D01*
X249535202Y-130360579D02*
X249344393Y-131342206D01*
X248848290Y-133894437D02*
X252068027Y-134520291D01*
X254609776Y-133078795D02*
X259517912Y-134032840D01*
X260204824Y-130498982D02*
X251959155Y-128896186D01*
X252075738Y-134499917D02*
G75*
G02X254609776Y-133078795I2056177J-696606D01*
G01*
X249535201Y-130360580D02*
G75*
G02X251959155Y-128896186I1944174J-479780D01*
G01*
X260138041Y-130842551D02*
X260204824Y-130498982D01*
D15*
X251759410Y-134030943D02*
G75*
G02X254293449Y-132609820I2056178J-696606D01*
G01*
D14*
X249082777Y-133736273D02*
X251733170Y-134251458D01*
D17*
X259970337Y-130657146D02*
X258596059Y-130390013D01*
X259493315Y-133111214D02*
X259359748Y-133798353D01*
G04 #@! TO.C,SW19*
X255853315Y-151811214D02*
X255719748Y-152498353D01*
X256330337Y-149357146D02*
X254956059Y-149090013D01*
D14*
X245442777Y-152436273D02*
X248093170Y-152951458D01*
D15*
X248119410Y-152730943D02*
G75*
G02X250653449Y-151309820I2056178J-696606D01*
G01*
D10*
X256498041Y-149542551D02*
X256564824Y-149198982D01*
X245895201Y-149060580D02*
G75*
G02X248319155Y-147596186I1944174J-479780D01*
G01*
X248435738Y-153199917D02*
G75*
G02X250969776Y-151778795I2056177J-696606D01*
G01*
X256564824Y-149198982D02*
X248319155Y-147596186D01*
X250969776Y-151778795D02*
X255877912Y-152732840D01*
X245208290Y-152594437D02*
X248428027Y-153220291D01*
X245895202Y-149060579D02*
X245704393Y-150042206D01*
X245208290Y-152594437D02*
X245276981Y-152241051D01*
X245473306Y-152279213D02*
X245276981Y-152241051D01*
X245930167Y-150086092D02*
X245502755Y-152284937D01*
X245704393Y-150042206D02*
X245900718Y-150080368D01*
X256301716Y-149504390D02*
X256498041Y-149542551D01*
X255852763Y-151709235D02*
X256282083Y-149500574D01*
X256068721Y-151751213D02*
X255872396Y-151713051D01*
X255877912Y-152732840D02*
X256068721Y-151751213D01*
D16*
X254258114Y-150584293D02*
X247681212Y-149305873D01*
D15*
X255763200Y-149654392D02*
X255286177Y-152108460D01*
D14*
X255640667Y-152381109D02*
X254266389Y-152113976D01*
D13*
X247669741Y-148998028D02*
X247242328Y-151196873D01*
D12*
X245892670Y-152218109D02*
X246236126Y-150451181D01*
D11*
X245821637Y-149963124D02*
X245993365Y-149079660D01*
G04 #@! TO.C,SW20*
X242121637Y-168673124D02*
X242293365Y-167789660D01*
D12*
X242192670Y-170928109D02*
X242536126Y-169161181D01*
D13*
X243969741Y-167708028D02*
X243542328Y-169906873D01*
D14*
X251940667Y-171091109D02*
X250566389Y-170823976D01*
D15*
X252063200Y-168364392D02*
X251586177Y-170818460D01*
D16*
X250558114Y-169294293D02*
X243981212Y-168015873D01*
D10*
X252177912Y-171442840D02*
X252368721Y-170461213D01*
X252368721Y-170461213D02*
X252172396Y-170423051D01*
X252152763Y-170419235D02*
X252582083Y-168210574D01*
X252601716Y-168214390D02*
X252798041Y-168252551D01*
X242004393Y-168752206D02*
X242200718Y-168790368D01*
X242230167Y-168796092D02*
X241802755Y-170994937D01*
X241773306Y-170989213D02*
X241576981Y-170951051D01*
X241508290Y-171304437D02*
X241576981Y-170951051D01*
X242195202Y-167770579D02*
X242004393Y-168752206D01*
X241508290Y-171304437D02*
X244728027Y-171930291D01*
X247269776Y-170488795D02*
X252177912Y-171442840D01*
X252864824Y-167908982D02*
X244619155Y-166306186D01*
X244735738Y-171909917D02*
G75*
G02X247269776Y-170488795I2056177J-696606D01*
G01*
X242195201Y-167770580D02*
G75*
G02X244619155Y-166306186I1944174J-479780D01*
G01*
X252798041Y-168252551D02*
X252864824Y-167908982D01*
D15*
X244419410Y-171440943D02*
G75*
G02X246953449Y-170019820I2056178J-696606D01*
G01*
D14*
X241742777Y-171146273D02*
X244393170Y-171661458D01*
D17*
X252630337Y-168067146D02*
X251256059Y-167800013D01*
X252153315Y-170521214D02*
X252019748Y-171208353D01*
D11*
G04 #@! TO.C,SW21*
X248699460Y-195745450D02*
X249007277Y-194899728D01*
D12*
X248416861Y-197983785D02*
X249032497Y-196292339D01*
D13*
X250675785Y-195081344D02*
X249909659Y-197186255D01*
D14*
X258019345Y-199669701D02*
X256703775Y-199190873D01*
D15*
X258566922Y-196995723D02*
X257711872Y-199344954D01*
D16*
X256934898Y-197678728D02*
X250638957Y-195387193D01*
D10*
X258198646Y-200054215D02*
X258540667Y-199114522D01*
X258540667Y-199114522D02*
X258352728Y-199046118D01*
X258333934Y-199039278D02*
X259103480Y-196924969D01*
X259122273Y-196931810D02*
X259310212Y-197000214D01*
X248571288Y-195805218D02*
X248759227Y-195873622D01*
X248787417Y-195883883D02*
X248021292Y-197988795D01*
X247993101Y-197978534D02*
X247805163Y-197910130D01*
X247682036Y-198248419D02*
X247805163Y-197910130D01*
X248913308Y-194865526D02*
X248571288Y-195805218D01*
X247682036Y-198248419D02*
X250764227Y-199370245D01*
X253500183Y-198344114D02*
X258198646Y-200054215D01*
X259429919Y-196671321D02*
X251536500Y-193798352D01*
X250775031Y-199351330D02*
G75*
G02X253500183Y-198344114I1921889J-1009686D01*
G01*
X248913308Y-194865526D02*
G75*
G02X251536500Y-193798352I1845183J-778009D01*
G01*
X259310212Y-197000214D02*
X259429919Y-196671321D01*
D15*
X250535962Y-198838645D02*
G75*
G02X253261114Y-197831429I1921889J-1009686D01*
G01*
D14*
X247938378Y-198128885D02*
X250475548Y-199052339D01*
D17*
X259173576Y-196790856D02*
X257858007Y-196312028D01*
X258318526Y-199140087D02*
X258079112Y-199797872D01*
D11*
G04 #@! TO.C,SW22*
X272286809Y-122367150D02*
X272473929Y-121486818D01*
D12*
X272318476Y-124623032D02*
X272692717Y-122862367D01*
D13*
X274151474Y-121434455D02*
X273685752Y-123625506D01*
D14*
X282062143Y-124956133D02*
X280692737Y-124665057D01*
D15*
X282232246Y-122231970D02*
X281712467Y-124677339D01*
D16*
X280711160Y-123135462D02*
X274157571Y-121742454D01*
D10*
X282293214Y-125311951D02*
X282501126Y-124333803D01*
X282501126Y-124333803D02*
X282305496Y-124292221D01*
X282285933Y-124288063D02*
X282753735Y-122087231D01*
X282773298Y-122091389D02*
X282968927Y-122132971D01*
X272168202Y-122444175D02*
X272363832Y-122485757D01*
X272393176Y-122491995D02*
X271927454Y-124683045D01*
X271898110Y-124676808D02*
X271702480Y-124635226D01*
X271627632Y-124987359D02*
X271702480Y-124635226D01*
X272376114Y-121466027D02*
X272168202Y-122444175D01*
X271627632Y-124987359D02*
X274835956Y-125669309D01*
X277402476Y-124272393D02*
X282293214Y-125311951D01*
X283041696Y-121790620D02*
X274825255Y-120044161D01*
X274844022Y-125649074D02*
G75*
G02X277402476Y-124272393I2043706J-732385D01*
G01*
X272376114Y-121466028D02*
G75*
G02X274825255Y-120044161I1935504J-513637D01*
G01*
X282968927Y-122132971D02*
X283041696Y-121790620D01*
D15*
X274535928Y-125174650D02*
G75*
G02X277094382Y-123797969I2043706J-732385D01*
G01*
D14*
X271864844Y-124833311D02*
X274505842Y-125394673D01*
D17*
X282804484Y-121944667D02*
X281435078Y-121653590D01*
X282284705Y-124390036D02*
X282139167Y-125074739D01*
G04 #@! TO.C,SW23*
X279149817Y-144184780D02*
X278998309Y-144868187D01*
X279690916Y-141744040D02*
X278324102Y-141441024D01*
D14*
X268726484Y-144537109D02*
X271362483Y-145121496D01*
D15*
X271394488Y-144901744D02*
G75*
G02X273964858Y-143547442I2037237J-750192D01*
G01*
D10*
X279853709Y-141933772D02*
X279929463Y-141592069D01*
X269267120Y-141174416D02*
G75*
G02X271728576Y-139773976I1930948J-530508D01*
G01*
X271698430Y-145378838D02*
G75*
G02X274268800Y-144024536I2037237J-750192D01*
G01*
X279929463Y-141592069D02*
X271728576Y-139773976D01*
X274268800Y-144024536D02*
X279150280Y-145106734D01*
X268487937Y-144689081D02*
X271690188Y-145399003D01*
X269267120Y-141174415D02*
X269050680Y-142150711D01*
X268487937Y-144689081D02*
X268565855Y-144337614D01*
X268761115Y-144380902D02*
X268565855Y-144337614D01*
X269275228Y-142200492D02*
X268790403Y-144387395D01*
X269050680Y-142150711D02*
X269245939Y-142193999D01*
X279658450Y-141890484D02*
X279853709Y-141933772D01*
X279151935Y-144082821D02*
X279638924Y-141886155D01*
X279366720Y-144130438D02*
X279171461Y-144087150D01*
X279150280Y-145106734D02*
X279366720Y-144130438D01*
D16*
X277587280Y-142916522D02*
X271046097Y-141466377D01*
D15*
X279116192Y-142026338D02*
X278575093Y-144467078D01*
D14*
X278922324Y-144748914D02*
X277555509Y-144445898D01*
D13*
X271042688Y-141158337D02*
X270557863Y-143345240D01*
D12*
X269181935Y-144330796D02*
X269571526Y-142573465D01*
D11*
X269169954Y-142074724D02*
X269364749Y-141196059D01*
G04 #@! TO.C,SW24*
X265039954Y-160674724D02*
X265234749Y-159796059D01*
D12*
X265051935Y-162930796D02*
X265441526Y-161173465D01*
D13*
X266912688Y-159758337D02*
X266427863Y-161945240D01*
D14*
X274792324Y-163348914D02*
X273425509Y-163045898D01*
D15*
X274986192Y-160626338D02*
X274445093Y-163067078D01*
D16*
X273457280Y-161516522D02*
X266916097Y-160066377D01*
D10*
X275020280Y-163706734D02*
X275236720Y-162730438D01*
X275236720Y-162730438D02*
X275041461Y-162687150D01*
X275021935Y-162682821D02*
X275508924Y-160486155D01*
X275528450Y-160490484D02*
X275723709Y-160533772D01*
X264920680Y-160750711D02*
X265115939Y-160793999D01*
X265145228Y-160800492D02*
X264660403Y-162987395D01*
X264631115Y-162980902D02*
X264435855Y-162937614D01*
X264357937Y-163289081D02*
X264435855Y-162937614D01*
X265137120Y-159774415D02*
X264920680Y-160750711D01*
X264357937Y-163289081D02*
X267560188Y-163999003D01*
X270138800Y-162624536D02*
X275020280Y-163706734D01*
X275799463Y-160192069D02*
X267598576Y-158373976D01*
X267568430Y-163978838D02*
G75*
G02X270138800Y-162624536I2037237J-750192D01*
G01*
X265137120Y-159774416D02*
G75*
G02X267598576Y-158373976I1930948J-530508D01*
G01*
X275723709Y-160533772D02*
X275799463Y-160192069D01*
D15*
X267264488Y-163501744D02*
G75*
G02X269834858Y-162147442I2037237J-750192D01*
G01*
D14*
X264596484Y-163137109D02*
X267232483Y-163721496D01*
D17*
X275560916Y-160344040D02*
X274194102Y-160041024D01*
X275019817Y-162784780D02*
X274868309Y-163468187D01*
G04 #@! TO.C,SW25*
X270899817Y-181394780D02*
X270748309Y-182078187D01*
X271440916Y-178954040D02*
X270074102Y-178651024D01*
D14*
X260476484Y-181747109D02*
X263112483Y-182331496D01*
D15*
X263144488Y-182111744D02*
G75*
G02X265714858Y-180757442I2037237J-750192D01*
G01*
D10*
X271603709Y-179143772D02*
X271679463Y-178802069D01*
X261017120Y-178384416D02*
G75*
G02X263478576Y-176983976I1930948J-530508D01*
G01*
X263448430Y-182588838D02*
G75*
G02X266018800Y-181234536I2037237J-750192D01*
G01*
X271679463Y-178802069D02*
X263478576Y-176983976D01*
X266018800Y-181234536D02*
X270900280Y-182316734D01*
X260237937Y-181899081D02*
X263440188Y-182609003D01*
X261017120Y-178384415D02*
X260800680Y-179360711D01*
X260237937Y-181899081D02*
X260315855Y-181547614D01*
X260511115Y-181590902D02*
X260315855Y-181547614D01*
X261025228Y-179410492D02*
X260540403Y-181597395D01*
X260800680Y-179360711D02*
X260995939Y-179403999D01*
X271408450Y-179100484D02*
X271603709Y-179143772D01*
X270901935Y-181292821D02*
X271388924Y-179096155D01*
X271116720Y-181340438D02*
X270921461Y-181297150D01*
X270900280Y-182316734D02*
X271116720Y-181340438D01*
D16*
X269337280Y-180126522D02*
X262796097Y-178676377D01*
D15*
X270866192Y-179236338D02*
X270325093Y-181677078D01*
D14*
X270672324Y-181958914D02*
X269305509Y-181655898D01*
D13*
X262792688Y-178368337D02*
X262307863Y-180555240D01*
D12*
X260931935Y-181540796D02*
X261321526Y-179783465D01*
D11*
X260919954Y-179284724D02*
X261114749Y-178406059D01*
D17*
G04 #@! TO.C,SW26*
X276631217Y-211899043D02*
X276229714Y-212472450D01*
X278065158Y-209851163D02*
X276918345Y-209048156D01*
D14*
X266866483Y-208235717D02*
X269078193Y-209784373D01*
D15*
X269191857Y-209593595D02*
G75*
G02X272084838Y-209326022I1595075J-1472704D01*
G01*
D10*
X278142952Y-210088751D02*
X278343704Y-209802048D01*
X268652812Y-205335885D02*
G75*
G02X271462826Y-204984005I1580947J-1229067D01*
G01*
X269290087Y-210150688D02*
G75*
G02X272183068Y-209883113I1595076J-1472703D01*
G01*
X278343704Y-209802048D02*
X271462826Y-204984005D01*
X272183068Y-209883113D02*
X276278829Y-212750995D01*
X266587937Y-208284832D02*
X269274756Y-210166162D01*
X268652812Y-205335884D02*
X268079236Y-206155036D01*
X266587937Y-208284832D02*
X266794425Y-207989937D01*
X266958255Y-208104652D02*
X266794425Y-207989937D01*
X268267641Y-206286959D02*
X266982830Y-208121860D01*
X268079236Y-206155036D02*
X268243066Y-206269752D01*
X277979122Y-209974036D02*
X278142952Y-210088751D01*
X276672192Y-211805657D02*
X277962740Y-209962565D01*
X276852405Y-211931843D02*
X276688575Y-211817128D01*
X276278829Y-212750995D02*
X276852405Y-211931843D01*
D16*
X275672962Y-210129369D02*
X270184644Y-206286407D01*
D15*
X277426152Y-209892036D02*
X275992210Y-211939916D01*
D14*
X276205156Y-212333177D02*
X275058343Y-211530170D01*
D13*
X270299376Y-206000511D02*
X269014565Y-207835411D01*
D12*
X267366216Y-208219402D02*
X268398653Y-206744929D01*
D11*
X268218509Y-206130478D02*
X268734727Y-205393242D01*
D10*
G04 #@! TO.C,SW27*
X296086237Y-176494229D02*
X295842163Y-176440119D01*
X295842163Y-176440119D02*
X297140801Y-170582343D01*
X297140801Y-170582343D02*
X297384875Y-170636453D01*
X300313763Y-171285771D02*
X300557837Y-171339881D01*
X300557837Y-171339881D02*
X299259199Y-177197657D01*
X299259199Y-177197657D02*
X299015125Y-177143547D01*
G04 #@! TO.C,U1*
X308083196Y-127104700D02*
X310562988Y-127654456D01*
X310562988Y-127654456D02*
X303965909Y-157411959D01*
X303965909Y-157411959D02*
X301486117Y-156862202D01*
X301486117Y-156862202D02*
X308083196Y-127104700D01*
X293204445Y-123806160D02*
X295684237Y-124355917D01*
X295684237Y-124355917D02*
X289087158Y-154113419D01*
X289087158Y-154113419D02*
X286607366Y-153563662D01*
X286607366Y-153563662D02*
X293204445Y-123806160D01*
D18*
G04 #@! TO.C,G\002A\002A\002A*
G36*
X218289285Y-109058749D02*
X218281890Y-109360823D01*
X218698981Y-109692747D01*
X219527064Y-109990818D01*
X220465955Y-110112120D01*
X221270722Y-110046398D01*
X221678750Y-109817500D01*
X221621284Y-109504990D01*
X221459363Y-109451640D01*
X220765089Y-109347818D01*
X219993854Y-109164857D01*
X219553671Y-109044199D01*
X218746550Y-108927911D01*
X218289285Y-109058749D01*
X218289285Y-109058749D01*
G37*
X218289285Y-109058749D02*
X218281890Y-109360823D01*
X218698981Y-109692747D01*
X219527064Y-109990818D01*
X220465955Y-110112120D01*
X221270722Y-110046398D01*
X221678750Y-109817500D01*
X221621284Y-109504990D01*
X221459363Y-109451640D01*
X220765089Y-109347818D01*
X219993854Y-109164857D01*
X219553671Y-109044199D01*
X218746550Y-108927911D01*
X218289285Y-109058749D01*
G36*
X219063874Y-111238599D02*
X218422488Y-111426163D01*
X218345871Y-111675130D01*
X218854052Y-111925974D01*
X219932500Y-112115601D01*
X220790681Y-112394712D01*
X221185691Y-112948288D01*
X221197639Y-113067007D01*
X220912581Y-113165500D01*
X220163997Y-113192166D01*
X219218125Y-113147943D01*
X217233750Y-112995622D01*
X218980000Y-113492613D01*
X219978169Y-113805445D01*
X220719920Y-114090708D01*
X220979576Y-114236502D01*
X221020847Y-114643440D01*
X220852325Y-115357468D01*
X220547407Y-116117320D01*
X220359582Y-116443422D01*
X220108228Y-116345372D01*
X219776565Y-116056922D01*
X219457406Y-115641534D01*
X219643797Y-115333653D01*
X219920196Y-115149000D01*
X220420927Y-114747535D01*
X220567500Y-114503626D01*
X220321265Y-114291115D01*
X219775488Y-114295813D01*
X219219567Y-114497489D01*
X219079336Y-114607664D01*
X218696088Y-114781121D01*
X218520848Y-114607664D01*
X218063717Y-114333767D01*
X217611888Y-114273062D01*
X217155366Y-114302784D01*
X217158909Y-114461176D01*
X217636204Y-114883150D01*
X217677255Y-114917339D01*
X218438260Y-115551052D01*
X217677255Y-116370983D01*
X216937495Y-116984693D01*
X215905474Y-117629873D01*
X215328750Y-117923193D01*
X214439574Y-118341506D01*
X214079488Y-118562249D01*
X214200505Y-118652824D01*
X214754640Y-118680632D01*
X214788893Y-118681486D01*
X216249219Y-118433154D01*
X217678434Y-117692114D01*
X218612956Y-116854712D01*
X219176296Y-116344415D01*
X219490071Y-116354905D01*
X219507466Y-116390405D01*
X219962294Y-117281938D01*
X220524454Y-118035670D01*
X221095027Y-118575030D01*
X221575093Y-118823450D01*
X221865734Y-118704360D01*
X221885644Y-118231250D01*
X221788097Y-117523918D01*
X221677498Y-116520324D01*
X221643575Y-116167500D01*
X221512114Y-114738750D01*
X222510935Y-116881875D01*
X223031051Y-117915149D01*
X223487123Y-118675231D01*
X223791426Y-119018374D01*
X223818847Y-119025000D01*
X223971041Y-118792428D01*
X223883554Y-118469375D01*
X223275305Y-116935266D01*
X222749615Y-115332054D01*
X222363360Y-113857481D01*
X222173413Y-112709287D01*
X222163197Y-112488080D01*
X222155000Y-111189911D01*
X220250000Y-111171967D01*
X219063874Y-111238599D01*
X219063874Y-111238599D01*
G37*
X219063874Y-111238599D02*
X218422488Y-111426163D01*
X218345871Y-111675130D01*
X218854052Y-111925974D01*
X219932500Y-112115601D01*
X220790681Y-112394712D01*
X221185691Y-112948288D01*
X221197639Y-113067007D01*
X220912581Y-113165500D01*
X220163997Y-113192166D01*
X219218125Y-113147943D01*
X217233750Y-112995622D01*
X218980000Y-113492613D01*
X219978169Y-113805445D01*
X220719920Y-114090708D01*
X220979576Y-114236502D01*
X221020847Y-114643440D01*
X220852325Y-115357468D01*
X220547407Y-116117320D01*
X220359582Y-116443422D01*
X220108228Y-116345372D01*
X219776565Y-116056922D01*
X219457406Y-115641534D01*
X219643797Y-115333653D01*
X219920196Y-115149000D01*
X220420927Y-114747535D01*
X220567500Y-114503626D01*
X220321265Y-114291115D01*
X219775488Y-114295813D01*
X219219567Y-114497489D01*
X219079336Y-114607664D01*
X218696088Y-114781121D01*
X218520848Y-114607664D01*
X218063717Y-114333767D01*
X217611888Y-114273062D01*
X217155366Y-114302784D01*
X217158909Y-114461176D01*
X217636204Y-114883150D01*
X217677255Y-114917339D01*
X218438260Y-115551052D01*
X217677255Y-116370983D01*
X216937495Y-116984693D01*
X215905474Y-117629873D01*
X215328750Y-117923193D01*
X214439574Y-118341506D01*
X214079488Y-118562249D01*
X214200505Y-118652824D01*
X214754640Y-118680632D01*
X214788893Y-118681486D01*
X216249219Y-118433154D01*
X217678434Y-117692114D01*
X218612956Y-116854712D01*
X219176296Y-116344415D01*
X219490071Y-116354905D01*
X219507466Y-116390405D01*
X219962294Y-117281938D01*
X220524454Y-118035670D01*
X221095027Y-118575030D01*
X221575093Y-118823450D01*
X221865734Y-118704360D01*
X221885644Y-118231250D01*
X221788097Y-117523918D01*
X221677498Y-116520324D01*
X221643575Y-116167500D01*
X221512114Y-114738750D01*
X222510935Y-116881875D01*
X223031051Y-117915149D01*
X223487123Y-118675231D01*
X223791426Y-119018374D01*
X223818847Y-119025000D01*
X223971041Y-118792428D01*
X223883554Y-118469375D01*
X223275305Y-116935266D01*
X222749615Y-115332054D01*
X222363360Y-113857481D01*
X222173413Y-112709287D01*
X222163197Y-112488080D01*
X222155000Y-111189911D01*
X220250000Y-111171967D01*
X219063874Y-111238599D01*
G36*
X224759824Y-108012823D02*
X224384112Y-108219194D01*
X224041802Y-108802362D01*
X224011563Y-109643083D01*
X224006478Y-110431339D01*
X223774332Y-110746165D01*
X223608077Y-110770000D01*
X223170174Y-110934146D01*
X223107500Y-111087500D01*
X223364662Y-111369179D01*
X223583750Y-111405000D01*
X223966787Y-111681003D01*
X224060000Y-112198750D01*
X223956825Y-112795516D01*
X223758701Y-112992500D01*
X223672861Y-113246295D01*
X223832978Y-113877319D01*
X223917451Y-114093552D01*
X224164047Y-115030434D01*
X224328001Y-116347449D01*
X224377500Y-117586052D01*
X224432445Y-118885911D01*
X224583051Y-119719441D01*
X224807974Y-120037345D01*
X225085873Y-119790329D01*
X225211201Y-119511628D01*
X225292938Y-118945249D01*
X225308428Y-117999379D01*
X225280612Y-117323202D01*
X225171250Y-115600647D01*
X226055566Y-116231162D01*
X226741995Y-116628518D01*
X227209905Y-116607946D01*
X227402131Y-116478044D01*
X227603327Y-116191247D01*
X227431131Y-115850306D01*
X226809288Y-115331915D01*
X226597190Y-115176464D01*
X225858530Y-114567629D01*
X225399612Y-114047508D01*
X225325665Y-113863633D01*
X225243565Y-113247552D01*
X225137565Y-112783742D01*
X225089415Y-112317638D01*
X225397394Y-112148597D01*
X225981194Y-112148742D01*
X226739226Y-112072820D01*
X227143273Y-111814593D01*
X227148253Y-111801875D01*
X227011784Y-111478446D01*
X226652426Y-111405000D01*
X225727027Y-111317291D01*
X225253305Y-110968342D01*
X225135344Y-110229413D01*
X225206036Y-109463683D01*
X225286412Y-108459123D01*
X225152731Y-107998300D01*
X224759824Y-108012823D01*
X224759824Y-108012823D01*
G37*
X224759824Y-108012823D02*
X224384112Y-108219194D01*
X224041802Y-108802362D01*
X224011563Y-109643083D01*
X224006478Y-110431339D01*
X223774332Y-110746165D01*
X223608077Y-110770000D01*
X223170174Y-110934146D01*
X223107500Y-111087500D01*
X223364662Y-111369179D01*
X223583750Y-111405000D01*
X223966787Y-111681003D01*
X224060000Y-112198750D01*
X223956825Y-112795516D01*
X223758701Y-112992500D01*
X223672861Y-113246295D01*
X223832978Y-113877319D01*
X223917451Y-114093552D01*
X224164047Y-115030434D01*
X224328001Y-116347449D01*
X224377500Y-117586052D01*
X224432445Y-118885911D01*
X224583051Y-119719441D01*
X224807974Y-120037345D01*
X225085873Y-119790329D01*
X225211201Y-119511628D01*
X225292938Y-118945249D01*
X225308428Y-117999379D01*
X225280612Y-117323202D01*
X225171250Y-115600647D01*
X226055566Y-116231162D01*
X226741995Y-116628518D01*
X227209905Y-116607946D01*
X227402131Y-116478044D01*
X227603327Y-116191247D01*
X227431131Y-115850306D01*
X226809288Y-115331915D01*
X226597190Y-115176464D01*
X225858530Y-114567629D01*
X225399612Y-114047508D01*
X225325665Y-113863633D01*
X225243565Y-113247552D01*
X225137565Y-112783742D01*
X225089415Y-112317638D01*
X225397394Y-112148597D01*
X225981194Y-112148742D01*
X226739226Y-112072820D01*
X227143273Y-111814593D01*
X227148253Y-111801875D01*
X227011784Y-111478446D01*
X226652426Y-111405000D01*
X225727027Y-111317291D01*
X225253305Y-110968342D01*
X225135344Y-110229413D01*
X225206036Y-109463683D01*
X225286412Y-108459123D01*
X225152731Y-107998300D01*
X224759824Y-108012823D01*
G36*
X222077807Y-124361483D02*
X221917940Y-125054395D01*
X222118386Y-126041442D01*
X222313668Y-126677705D01*
X222250921Y-126823104D01*
X222009556Y-126656042D01*
X221226745Y-126365503D01*
X220391148Y-126571831D01*
X219744744Y-127209454D01*
X219707004Y-127280000D01*
X219459856Y-128088141D01*
X219316349Y-129170741D01*
X219302181Y-129575449D01*
X219391340Y-130616861D01*
X219626604Y-131721045D01*
X219950767Y-132709554D01*
X220306623Y-133403940D01*
X220601975Y-133630000D01*
X220853226Y-133887667D01*
X220885000Y-134106250D01*
X221056441Y-134528769D01*
X221202500Y-134582500D01*
X221511635Y-134451286D01*
X221520000Y-134412579D01*
X221364167Y-134050139D01*
X221035888Y-133503809D01*
X220752236Y-132796913D01*
X220509470Y-131715577D01*
X220384296Y-130736855D01*
X220373964Y-129298226D01*
X220569254Y-128171472D01*
X220919748Y-127419399D01*
X221375028Y-127104815D01*
X221884677Y-127290526D01*
X222398276Y-128039342D01*
X222453190Y-128159561D01*
X222871201Y-128827591D01*
X223275839Y-129071942D01*
X223535818Y-128849822D01*
X223569923Y-128523541D01*
X223473846Y-127228709D01*
X223286714Y-125987059D01*
X223043052Y-124952723D01*
X222777381Y-124279835D01*
X222580276Y-124105000D01*
X222077807Y-124361483D01*
X222077807Y-124361483D01*
G37*
X222077807Y-124361483D02*
X221917940Y-125054395D01*
X222118386Y-126041442D01*
X222313668Y-126677705D01*
X222250921Y-126823104D01*
X222009556Y-126656042D01*
X221226745Y-126365503D01*
X220391148Y-126571831D01*
X219744744Y-127209454D01*
X219707004Y-127280000D01*
X219459856Y-128088141D01*
X219316349Y-129170741D01*
X219302181Y-129575449D01*
X219391340Y-130616861D01*
X219626604Y-131721045D01*
X219950767Y-132709554D01*
X220306623Y-133403940D01*
X220601975Y-133630000D01*
X220853226Y-133887667D01*
X220885000Y-134106250D01*
X221056441Y-134528769D01*
X221202500Y-134582500D01*
X221511635Y-134451286D01*
X221520000Y-134412579D01*
X221364167Y-134050139D01*
X221035888Y-133503809D01*
X220752236Y-132796913D01*
X220509470Y-131715577D01*
X220384296Y-130736855D01*
X220373964Y-129298226D01*
X220569254Y-128171472D01*
X220919748Y-127419399D01*
X221375028Y-127104815D01*
X221884677Y-127290526D01*
X222398276Y-128039342D01*
X222453190Y-128159561D01*
X222871201Y-128827591D01*
X223275839Y-129071942D01*
X223535818Y-128849822D01*
X223569923Y-128523541D01*
X223473846Y-127228709D01*
X223286714Y-125987059D01*
X223043052Y-124952723D01*
X222777381Y-124279835D01*
X222580276Y-124105000D01*
X222077807Y-124361483D01*
G36*
X220021845Y-138722131D02*
X218980000Y-139093614D01*
X218436700Y-139335237D01*
X218446736Y-139560574D01*
X218802559Y-139844968D01*
X219480603Y-140243922D01*
X219785260Y-140192137D01*
X219729817Y-139821250D01*
X219727912Y-139412659D01*
X219864563Y-139345000D01*
X220230206Y-139612237D01*
X220508185Y-140220570D01*
X220567500Y-140640967D01*
X220338110Y-141106230D01*
X219812123Y-141671886D01*
X219232816Y-142104018D01*
X218943485Y-142202500D01*
X218832584Y-141982942D01*
X219114822Y-141400798D01*
X219126070Y-141383544D01*
X219468445Y-140818389D01*
X219414221Y-140630365D01*
X218924460Y-140669169D01*
X218329972Y-140951931D01*
X218181980Y-141300760D01*
X217976568Y-141917778D01*
X217577146Y-142491385D01*
X217206038Y-142939146D01*
X217277494Y-143118218D01*
X217879508Y-143148803D01*
X218057667Y-143147770D01*
X219132686Y-142992672D01*
X220149890Y-142641906D01*
X221004366Y-141981542D01*
X221482748Y-141220385D01*
X221743892Y-140653446D01*
X222143598Y-140382742D01*
X222891417Y-140301182D01*
X223288611Y-140297500D01*
X224164143Y-140271482D01*
X224515789Y-140161330D01*
X224453641Y-139918891D01*
X224377500Y-139821250D01*
X223799192Y-139486379D01*
X222958487Y-139345020D01*
X222948750Y-139345000D01*
X222104981Y-139204336D01*
X221517468Y-138865654D01*
X221514051Y-138861581D01*
X221196820Y-138596341D01*
X220751315Y-138545105D01*
X220021845Y-138722131D01*
X220021845Y-138722131D01*
G37*
X220021845Y-138722131D02*
X218980000Y-139093614D01*
X218436700Y-139335237D01*
X218446736Y-139560574D01*
X218802559Y-139844968D01*
X219480603Y-140243922D01*
X219785260Y-140192137D01*
X219729817Y-139821250D01*
X219727912Y-139412659D01*
X219864563Y-139345000D01*
X220230206Y-139612237D01*
X220508185Y-140220570D01*
X220567500Y-140640967D01*
X220338110Y-141106230D01*
X219812123Y-141671886D01*
X219232816Y-142104018D01*
X218943485Y-142202500D01*
X218832584Y-141982942D01*
X219114822Y-141400798D01*
X219126070Y-141383544D01*
X219468445Y-140818389D01*
X219414221Y-140630365D01*
X218924460Y-140669169D01*
X218329972Y-140951931D01*
X218181980Y-141300760D01*
X217976568Y-141917778D01*
X217577146Y-142491385D01*
X217206038Y-142939146D01*
X217277494Y-143118218D01*
X217879508Y-143148803D01*
X218057667Y-143147770D01*
X219132686Y-142992672D01*
X220149890Y-142641906D01*
X221004366Y-141981542D01*
X221482748Y-141220385D01*
X221743892Y-140653446D01*
X222143598Y-140382742D01*
X222891417Y-140301182D01*
X223288611Y-140297500D01*
X224164143Y-140271482D01*
X224515789Y-140161330D01*
X224453641Y-139918891D01*
X224377500Y-139821250D01*
X223799192Y-139486379D01*
X222958487Y-139345020D01*
X222948750Y-139345000D01*
X222104981Y-139204336D01*
X221517468Y-138865654D01*
X221514051Y-138861581D01*
X221196820Y-138596341D01*
X220751315Y-138545105D01*
X220021845Y-138722131D01*
G36*
X218498092Y-144519287D02*
X218422786Y-144821875D01*
X218807972Y-145182192D01*
X219241425Y-145320001D01*
X219735356Y-145290659D01*
X219740284Y-144928558D01*
X219738212Y-144923126D01*
X219401071Y-144571193D01*
X218903697Y-144430114D01*
X218498092Y-144519287D01*
X218498092Y-144519287D01*
G37*
X218498092Y-144519287D02*
X218422786Y-144821875D01*
X218807972Y-145182192D01*
X219241425Y-145320001D01*
X219735356Y-145290659D01*
X219740284Y-144928558D01*
X219738212Y-144923126D01*
X219401071Y-144571193D01*
X218903697Y-144430114D01*
X218498092Y-144519287D01*
G36*
X222410164Y-141015472D02*
X222220092Y-141368144D01*
X222157963Y-142146153D01*
X222155000Y-142531170D01*
X222137197Y-143462784D01*
X222039463Y-143883898D01*
X221795310Y-143918869D01*
X221490428Y-143774173D01*
X220658799Y-143568767D01*
X220048385Y-143613637D01*
X219520779Y-143800751D01*
X219545666Y-144064167D01*
X219760457Y-144298313D01*
X220127392Y-144972661D01*
X220250000Y-145692451D01*
X220133128Y-146372312D01*
X219654564Y-146711177D01*
X219297500Y-146806250D01*
X218630629Y-147047167D01*
X218345162Y-147337666D01*
X218345000Y-147343763D01*
X218616722Y-147535671D01*
X219284571Y-147534144D01*
X219297500Y-147532274D01*
X220037398Y-147554770D01*
X220240527Y-147908621D01*
X220007014Y-148425593D01*
X219387610Y-148960714D01*
X218482547Y-149374160D01*
X217764842Y-149505000D01*
X217220289Y-149322177D01*
X216930475Y-148923721D01*
X217020536Y-148534649D01*
X217172212Y-148439328D01*
X217336172Y-148294486D01*
X217233750Y-148271484D01*
X216800390Y-148447987D01*
X216133053Y-148901459D01*
X215979175Y-149023712D01*
X215042099Y-149789588D01*
X215979175Y-150148800D01*
X217202033Y-150353773D01*
X218656663Y-150212094D01*
X220064625Y-149755145D01*
X220240883Y-149668465D01*
X220899873Y-149116701D01*
X221306242Y-148216215D01*
X221495532Y-146862550D01*
X221520000Y-145909312D01*
X221580428Y-145104788D01*
X221752829Y-144871835D01*
X221824016Y-144919515D01*
X221969849Y-145356128D01*
X222100791Y-146264214D01*
X222196132Y-147480273D01*
X222220891Y-148053018D01*
X222322324Y-149649530D01*
X222507679Y-150642383D01*
X222786330Y-151058527D01*
X223167650Y-150924911D01*
X223206719Y-150887447D01*
X223310958Y-150487716D01*
X223393964Y-149619943D01*
X223441379Y-148451047D01*
X223446240Y-148102708D01*
X223460626Y-146850588D01*
X223491946Y-146168924D01*
X223561148Y-145993185D01*
X223689176Y-146258841D01*
X223867060Y-146806250D01*
X224432068Y-148327469D01*
X224975007Y-149223746D01*
X225481093Y-149505000D01*
X225749814Y-149422425D01*
X225683989Y-149066274D01*
X225471878Y-148631875D01*
X225071813Y-147598130D01*
X225059055Y-146848796D01*
X225426171Y-146482999D01*
X225634501Y-146463540D01*
X226201448Y-146333820D01*
X226249697Y-145985193D01*
X225769464Y-145578532D01*
X225690660Y-145540250D01*
X225152705Y-145026529D01*
X225095102Y-144748858D01*
X224214625Y-144748858D01*
X224210897Y-144755207D01*
X223885640Y-144971384D01*
X223601804Y-144673569D01*
X223446199Y-143981146D01*
X223437712Y-143691887D01*
X223450424Y-142678750D01*
X223928047Y-143559403D01*
X224206302Y-144266178D01*
X224214625Y-144748858D01*
X225095102Y-144748858D01*
X225061679Y-144587750D01*
X225082082Y-143846105D01*
X225067171Y-142864772D01*
X225061880Y-142721111D01*
X224990993Y-141933122D01*
X224782376Y-141621578D01*
X224311893Y-141628069D01*
X224218750Y-141645208D01*
X223575171Y-141631644D01*
X223425000Y-141364721D01*
X223160324Y-141014159D01*
X222790000Y-140932500D01*
X222410164Y-141015472D01*
X222410164Y-141015472D01*
G37*
X222410164Y-141015472D02*
X222220092Y-141368144D01*
X222157963Y-142146153D01*
X222155000Y-142531170D01*
X222137197Y-143462784D01*
X222039463Y-143883898D01*
X221795310Y-143918869D01*
X221490428Y-143774173D01*
X220658799Y-143568767D01*
X220048385Y-143613637D01*
X219520779Y-143800751D01*
X219545666Y-144064167D01*
X219760457Y-144298313D01*
X220127392Y-144972661D01*
X220250000Y-145692451D01*
X220133128Y-146372312D01*
X219654564Y-146711177D01*
X219297500Y-146806250D01*
X218630629Y-147047167D01*
X218345162Y-147337666D01*
X218345000Y-147343763D01*
X218616722Y-147535671D01*
X219284571Y-147534144D01*
X219297500Y-147532274D01*
X220037398Y-147554770D01*
X220240527Y-147908621D01*
X220007014Y-148425593D01*
X219387610Y-148960714D01*
X218482547Y-149374160D01*
X217764842Y-149505000D01*
X217220289Y-149322177D01*
X216930475Y-148923721D01*
X217020536Y-148534649D01*
X217172212Y-148439328D01*
X217336172Y-148294486D01*
X217233750Y-148271484D01*
X216800390Y-148447987D01*
X216133053Y-148901459D01*
X215979175Y-149023712D01*
X215042099Y-149789588D01*
X215979175Y-150148800D01*
X217202033Y-150353773D01*
X218656663Y-150212094D01*
X220064625Y-149755145D01*
X220240883Y-149668465D01*
X220899873Y-149116701D01*
X221306242Y-148216215D01*
X221495532Y-146862550D01*
X221520000Y-145909312D01*
X221580428Y-145104788D01*
X221752829Y-144871835D01*
X221824016Y-144919515D01*
X221969849Y-145356128D01*
X222100791Y-146264214D01*
X222196132Y-147480273D01*
X222220891Y-148053018D01*
X222322324Y-149649530D01*
X222507679Y-150642383D01*
X222786330Y-151058527D01*
X223167650Y-150924911D01*
X223206719Y-150887447D01*
X223310958Y-150487716D01*
X223393964Y-149619943D01*
X223441379Y-148451047D01*
X223446240Y-148102708D01*
X223460626Y-146850588D01*
X223491946Y-146168924D01*
X223561148Y-145993185D01*
X223689176Y-146258841D01*
X223867060Y-146806250D01*
X224432068Y-148327469D01*
X224975007Y-149223746D01*
X225481093Y-149505000D01*
X225749814Y-149422425D01*
X225683989Y-149066274D01*
X225471878Y-148631875D01*
X225071813Y-147598130D01*
X225059055Y-146848796D01*
X225426171Y-146482999D01*
X225634501Y-146463540D01*
X226201448Y-146333820D01*
X226249697Y-145985193D01*
X225769464Y-145578532D01*
X225690660Y-145540250D01*
X225152705Y-145026529D01*
X225095102Y-144748858D01*
X224214625Y-144748858D01*
X224210897Y-144755207D01*
X223885640Y-144971384D01*
X223601804Y-144673569D01*
X223446199Y-143981146D01*
X223437712Y-143691887D01*
X223450424Y-142678750D01*
X223928047Y-143559403D01*
X224206302Y-144266178D01*
X224214625Y-144748858D01*
X225095102Y-144748858D01*
X225061679Y-144587750D01*
X225082082Y-143846105D01*
X225067171Y-142864772D01*
X225061880Y-142721111D01*
X224990993Y-141933122D01*
X224782376Y-141621578D01*
X224311893Y-141628069D01*
X224218750Y-141645208D01*
X223575171Y-141631644D01*
X223425000Y-141364721D01*
X223160324Y-141014159D01*
X222790000Y-140932500D01*
X222410164Y-141015472D01*
G36*
X221100196Y-154645297D02*
X220487124Y-154991238D01*
X220317518Y-155380094D01*
X220172395Y-155771242D01*
X219771625Y-155928840D01*
X218939918Y-155913751D01*
X218809393Y-155903749D01*
X217949882Y-155897848D01*
X217450174Y-156017971D01*
X217392500Y-156103499D01*
X217677563Y-156423087D01*
X218403014Y-156676345D01*
X219374248Y-156799739D01*
X219535625Y-156803164D01*
X220118079Y-156994488D01*
X220250000Y-157434562D01*
X220148614Y-157858910D01*
X219724525Y-157940313D01*
X219309182Y-157873461D01*
X218288510Y-157808365D01*
X217483940Y-157907273D01*
X216903551Y-158095708D01*
X216874451Y-158302696D01*
X217124643Y-158513230D01*
X217537038Y-159052481D01*
X217916745Y-159922010D01*
X217999663Y-160196620D01*
X218478639Y-161417294D01*
X219103559Y-162032632D01*
X219891414Y-162059067D01*
X219917264Y-162051085D01*
X220454582Y-162022616D01*
X220567500Y-162228023D01*
X220354271Y-162444148D01*
X219661592Y-162493596D01*
X218810030Y-162429951D01*
X217500153Y-162357081D01*
X216310837Y-162399720D01*
X215393183Y-162541098D01*
X214898293Y-162764444D01*
X214852500Y-162869181D01*
X215146030Y-162996450D01*
X215930830Y-163112920D01*
X217063214Y-163200213D01*
X217630625Y-163224513D01*
X220408750Y-163316250D01*
X220433801Y-164268750D01*
X220487281Y-165534373D01*
X220578283Y-166276124D01*
X220726090Y-166604868D01*
X220847970Y-166650000D01*
X221137387Y-166383667D01*
X221319885Y-165935625D01*
X221471129Y-165047472D01*
X221515665Y-164348125D01*
X221550633Y-163713753D01*
X221621124Y-163475000D01*
X221955456Y-163557759D01*
X222710323Y-163771022D01*
X223399207Y-163973003D01*
X224385993Y-164202738D01*
X225221805Y-164290703D01*
X225786782Y-164245822D01*
X225961064Y-164077025D01*
X225647500Y-163805557D01*
X225086788Y-163600733D01*
X224139982Y-163346960D01*
X223345625Y-163169398D01*
X222274365Y-162888724D01*
X221664916Y-162606527D01*
X221560141Y-162370151D01*
X222002903Y-162226940D01*
X222472500Y-162205000D01*
X223141068Y-162100079D01*
X223424919Y-161847253D01*
X223425000Y-161842498D01*
X223637626Y-161411656D01*
X224070576Y-160895127D01*
X222261154Y-160895127D01*
X222242567Y-161269433D01*
X221983845Y-161691558D01*
X221689154Y-161589712D01*
X221523515Y-161042277D01*
X221520000Y-160926226D01*
X221684866Y-160484521D01*
X221961164Y-160489219D01*
X222261154Y-160895127D01*
X224070576Y-160895127D01*
X224168375Y-160778449D01*
X224377500Y-160569736D01*
X224776248Y-160152971D01*
X220515881Y-160152971D01*
X220463952Y-161069590D01*
X220303114Y-161393119D01*
X220099195Y-161140950D01*
X219918023Y-160330479D01*
X219878274Y-159984490D01*
X219876060Y-159081469D01*
X220081932Y-158717252D01*
X220121969Y-158712500D01*
X220361022Y-159004673D01*
X220498751Y-159786010D01*
X220515881Y-160152971D01*
X224776248Y-160152971D01*
X225090109Y-159824930D01*
X225220623Y-159585625D01*
X223029715Y-159585625D01*
X222931620Y-159904057D01*
X222509627Y-159974370D01*
X222015736Y-159815960D01*
X221714289Y-159484373D01*
X221714872Y-159118656D01*
X222203576Y-159086402D01*
X222211076Y-159087498D01*
X222817401Y-159330497D01*
X223029715Y-159585625D01*
X225220623Y-159585625D01*
X225303259Y-159434108D01*
X225012362Y-159408069D01*
X224847037Y-159464892D01*
X224254858Y-159450051D01*
X223417262Y-159169820D01*
X222543339Y-158730860D01*
X221842182Y-158239832D01*
X221522880Y-157803397D01*
X221520000Y-157767717D01*
X221658005Y-157451351D01*
X222168571Y-157353045D01*
X222817527Y-157390708D01*
X223831429Y-157402538D01*
X224390044Y-157250383D01*
X224444750Y-157003338D01*
X223946920Y-156730498D01*
X223383042Y-156587107D01*
X222499664Y-156359198D01*
X222066576Y-156040577D01*
X221901127Y-155489402D01*
X221893946Y-155430696D01*
X221713710Y-154792419D01*
X221283585Y-154627905D01*
X221100196Y-154645297D01*
X221100196Y-154645297D01*
G37*
X221100196Y-154645297D02*
X220487124Y-154991238D01*
X220317518Y-155380094D01*
X220172395Y-155771242D01*
X219771625Y-155928840D01*
X218939918Y-155913751D01*
X218809393Y-155903749D01*
X217949882Y-155897848D01*
X217450174Y-156017971D01*
X217392500Y-156103499D01*
X217677563Y-156423087D01*
X218403014Y-156676345D01*
X219374248Y-156799739D01*
X219535625Y-156803164D01*
X220118079Y-156994488D01*
X220250000Y-157434562D01*
X220148614Y-157858910D01*
X219724525Y-157940313D01*
X219309182Y-157873461D01*
X218288510Y-157808365D01*
X217483940Y-157907273D01*
X216903551Y-158095708D01*
X216874451Y-158302696D01*
X217124643Y-158513230D01*
X217537038Y-159052481D01*
X217916745Y-159922010D01*
X217999663Y-160196620D01*
X218478639Y-161417294D01*
X219103559Y-162032632D01*
X219891414Y-162059067D01*
X219917264Y-162051085D01*
X220454582Y-162022616D01*
X220567500Y-162228023D01*
X220354271Y-162444148D01*
X219661592Y-162493596D01*
X218810030Y-162429951D01*
X217500153Y-162357081D01*
X216310837Y-162399720D01*
X215393183Y-162541098D01*
X214898293Y-162764444D01*
X214852500Y-162869181D01*
X215146030Y-162996450D01*
X215930830Y-163112920D01*
X217063214Y-163200213D01*
X217630625Y-163224513D01*
X220408750Y-163316250D01*
X220433801Y-164268750D01*
X220487281Y-165534373D01*
X220578283Y-166276124D01*
X220726090Y-166604868D01*
X220847970Y-166650000D01*
X221137387Y-166383667D01*
X221319885Y-165935625D01*
X221471129Y-165047472D01*
X221515665Y-164348125D01*
X221550633Y-163713753D01*
X221621124Y-163475000D01*
X221955456Y-163557759D01*
X222710323Y-163771022D01*
X223399207Y-163973003D01*
X224385993Y-164202738D01*
X225221805Y-164290703D01*
X225786782Y-164245822D01*
X225961064Y-164077025D01*
X225647500Y-163805557D01*
X225086788Y-163600733D01*
X224139982Y-163346960D01*
X223345625Y-163169398D01*
X222274365Y-162888724D01*
X221664916Y-162606527D01*
X221560141Y-162370151D01*
X222002903Y-162226940D01*
X222472500Y-162205000D01*
X223141068Y-162100079D01*
X223424919Y-161847253D01*
X223425000Y-161842498D01*
X223637626Y-161411656D01*
X224070576Y-160895127D01*
X222261154Y-160895127D01*
X222242567Y-161269433D01*
X221983845Y-161691558D01*
X221689154Y-161589712D01*
X221523515Y-161042277D01*
X221520000Y-160926226D01*
X221684866Y-160484521D01*
X221961164Y-160489219D01*
X222261154Y-160895127D01*
X224070576Y-160895127D01*
X224168375Y-160778449D01*
X224377500Y-160569736D01*
X224776248Y-160152971D01*
X220515881Y-160152971D01*
X220463952Y-161069590D01*
X220303114Y-161393119D01*
X220099195Y-161140950D01*
X219918023Y-160330479D01*
X219878274Y-159984490D01*
X219876060Y-159081469D01*
X220081932Y-158717252D01*
X220121969Y-158712500D01*
X220361022Y-159004673D01*
X220498751Y-159786010D01*
X220515881Y-160152971D01*
X224776248Y-160152971D01*
X225090109Y-159824930D01*
X225220623Y-159585625D01*
X223029715Y-159585625D01*
X222931620Y-159904057D01*
X222509627Y-159974370D01*
X222015736Y-159815960D01*
X221714289Y-159484373D01*
X221714872Y-159118656D01*
X222203576Y-159086402D01*
X222211076Y-159087498D01*
X222817401Y-159330497D01*
X223029715Y-159585625D01*
X225220623Y-159585625D01*
X225303259Y-159434108D01*
X225012362Y-159408069D01*
X224847037Y-159464892D01*
X224254858Y-159450051D01*
X223417262Y-159169820D01*
X222543339Y-158730860D01*
X221842182Y-158239832D01*
X221522880Y-157803397D01*
X221520000Y-157767717D01*
X221658005Y-157451351D01*
X222168571Y-157353045D01*
X222817527Y-157390708D01*
X223831429Y-157402538D01*
X224390044Y-157250383D01*
X224444750Y-157003338D01*
X223946920Y-156730498D01*
X223383042Y-156587107D01*
X222499664Y-156359198D01*
X222066576Y-156040577D01*
X221901127Y-155489402D01*
X221893946Y-155430696D01*
X221713710Y-154792419D01*
X221283585Y-154627905D01*
X221100196Y-154645297D01*
G36*
X219256916Y-169973122D02*
X219059375Y-170025115D01*
X218535766Y-170331860D01*
X218348103Y-170746261D01*
X218549976Y-171051221D01*
X218795283Y-171095000D01*
X219493475Y-171206376D01*
X219747783Y-171287718D01*
X220125081Y-171276932D01*
X220248398Y-170768644D01*
X220250000Y-170652718D01*
X220197551Y-170056189D01*
X219924416Y-169860173D01*
X219256916Y-169973122D01*
X219256916Y-169973122D01*
G37*
X219256916Y-169973122D02*
X219059375Y-170025115D01*
X218535766Y-170331860D01*
X218348103Y-170746261D01*
X218549976Y-171051221D01*
X218795283Y-171095000D01*
X219493475Y-171206376D01*
X219747783Y-171287718D01*
X220125081Y-171276932D01*
X220248398Y-170768644D01*
X220250000Y-170652718D01*
X220197551Y-170056189D01*
X219924416Y-169860173D01*
X219256916Y-169973122D01*
G36*
X223475926Y-171200219D02*
X223690243Y-171373484D01*
X224046909Y-171765301D01*
X224077247Y-171924247D01*
X224299729Y-172180578D01*
X224856621Y-172300094D01*
X225457451Y-172258876D01*
X225795005Y-172065695D01*
X225702489Y-171809093D01*
X225208726Y-171730000D01*
X224529074Y-171615587D01*
X224218750Y-171412500D01*
X223755068Y-171110630D01*
X223644388Y-171099861D01*
X223475926Y-171200219D01*
X223475926Y-171200219D01*
G37*
X223475926Y-171200219D02*
X223690243Y-171373484D01*
X224046909Y-171765301D01*
X224077247Y-171924247D01*
X224299729Y-172180578D01*
X224856621Y-172300094D01*
X225457451Y-172258876D01*
X225795005Y-172065695D01*
X225702489Y-171809093D01*
X225208726Y-171730000D01*
X224529074Y-171615587D01*
X224218750Y-171412500D01*
X223755068Y-171110630D01*
X223644388Y-171099861D01*
X223475926Y-171200219D01*
G36*
X222972330Y-169696040D02*
X222651920Y-169817141D01*
X222114722Y-170124984D01*
X221881897Y-170645495D01*
X221837500Y-171415538D01*
X221837500Y-172704293D01*
X219853125Y-172634843D01*
X218654331Y-172669041D01*
X217619787Y-172832428D01*
X216875832Y-173086125D01*
X216548800Y-173391251D01*
X216644039Y-173622428D01*
X217123232Y-173846606D01*
X217914619Y-174055069D01*
X217968281Y-174065358D01*
X218665029Y-174159005D01*
X218891844Y-174016684D01*
X218804948Y-173583634D01*
X218717665Y-173157811D01*
X218925707Y-173014083D01*
X219573662Y-173087893D01*
X219816667Y-173131908D01*
X221572441Y-173428534D01*
X222786503Y-173562989D01*
X223530039Y-173539168D01*
X223874237Y-173360966D01*
X223878613Y-173354128D01*
X223818123Y-173068885D01*
X223432568Y-173000000D01*
X222968878Y-172908631D01*
X223024947Y-172524284D01*
X223085159Y-172406745D01*
X223265414Y-171854520D01*
X223218370Y-171629203D01*
X223184926Y-171233815D01*
X223354800Y-170525822D01*
X223371775Y-170476207D01*
X223593465Y-169776278D01*
X223499959Y-169552517D01*
X222972330Y-169696040D01*
X222972330Y-169696040D01*
G37*
X222972330Y-169696040D02*
X222651920Y-169817141D01*
X222114722Y-170124984D01*
X221881897Y-170645495D01*
X221837500Y-171415538D01*
X221837500Y-172704293D01*
X219853125Y-172634843D01*
X218654331Y-172669041D01*
X217619787Y-172832428D01*
X216875832Y-173086125D01*
X216548800Y-173391251D01*
X216644039Y-173622428D01*
X217123232Y-173846606D01*
X217914619Y-174055069D01*
X217968281Y-174065358D01*
X218665029Y-174159005D01*
X218891844Y-174016684D01*
X218804948Y-173583634D01*
X218717665Y-173157811D01*
X218925707Y-173014083D01*
X219573662Y-173087893D01*
X219816667Y-173131908D01*
X221572441Y-173428534D01*
X222786503Y-173562989D01*
X223530039Y-173539168D01*
X223874237Y-173360966D01*
X223878613Y-173354128D01*
X223818123Y-173068885D01*
X223432568Y-173000000D01*
X222968878Y-172908631D01*
X223024947Y-172524284D01*
X223085159Y-172406745D01*
X223265414Y-171854520D01*
X223218370Y-171629203D01*
X223184926Y-171233815D01*
X223354800Y-170525822D01*
X223371775Y-170476207D01*
X223593465Y-169776278D01*
X223499959Y-169552517D01*
X222972330Y-169696040D01*
G36*
X225653050Y-173738278D02*
X225005697Y-174009477D01*
X224753286Y-174691754D01*
X224600456Y-175273438D01*
X224247987Y-175492148D01*
X223582650Y-175357177D01*
X222491214Y-174877818D01*
X222490504Y-174877475D01*
X221231039Y-174424005D01*
X220117620Y-174404208D01*
X220018682Y-174421415D01*
X219314942Y-174587881D01*
X219139966Y-174792059D01*
X219392996Y-175154889D01*
X219400577Y-175163315D01*
X219846856Y-175883697D01*
X220100933Y-176571875D01*
X220433619Y-177246916D01*
X221059267Y-177444914D01*
X221078170Y-177445000D01*
X221658517Y-177534527D01*
X221837500Y-177695832D01*
X222037700Y-178061100D01*
X222537625Y-178694806D01*
X223186265Y-179430100D01*
X223832610Y-180100134D01*
X224325651Y-180538058D01*
X224484071Y-180620000D01*
X224515927Y-180379204D01*
X224284497Y-179794782D01*
X224260079Y-179746875D01*
X223783734Y-178480590D01*
X223801696Y-177350134D01*
X224002514Y-176730625D01*
X224367145Y-176123273D01*
X224746116Y-175848884D01*
X224988011Y-175990757D01*
X225012500Y-176175000D01*
X225214703Y-176470958D01*
X225785837Y-176290383D01*
X225916277Y-176211831D01*
X226214665Y-175736990D01*
X226262435Y-175514205D01*
X223039296Y-175514205D01*
X222982864Y-175771307D01*
X222790000Y-176175000D01*
X222288239Y-176712249D01*
X221751610Y-176737196D01*
X221395219Y-176307782D01*
X221227767Y-175667457D01*
X221479742Y-175425634D01*
X222075625Y-175424346D01*
X222744124Y-175479541D01*
X223039296Y-175514205D01*
X226262435Y-175514205D01*
X226388635Y-174925649D01*
X226398076Y-174786968D01*
X226391630Y-174029808D01*
X226194175Y-173735028D01*
X225685922Y-173734017D01*
X225653050Y-173738278D01*
X225653050Y-173738278D01*
G37*
X225653050Y-173738278D02*
X225005697Y-174009477D01*
X224753286Y-174691754D01*
X224600456Y-175273438D01*
X224247987Y-175492148D01*
X223582650Y-175357177D01*
X222491214Y-174877818D01*
X222490504Y-174877475D01*
X221231039Y-174424005D01*
X220117620Y-174404208D01*
X220018682Y-174421415D01*
X219314942Y-174587881D01*
X219139966Y-174792059D01*
X219392996Y-175154889D01*
X219400577Y-175163315D01*
X219846856Y-175883697D01*
X220100933Y-176571875D01*
X220433619Y-177246916D01*
X221059267Y-177444914D01*
X221078170Y-177445000D01*
X221658517Y-177534527D01*
X221837500Y-177695832D01*
X222037700Y-178061100D01*
X222537625Y-178694806D01*
X223186265Y-179430100D01*
X223832610Y-180100134D01*
X224325651Y-180538058D01*
X224484071Y-180620000D01*
X224515927Y-180379204D01*
X224284497Y-179794782D01*
X224260079Y-179746875D01*
X223783734Y-178480590D01*
X223801696Y-177350134D01*
X224002514Y-176730625D01*
X224367145Y-176123273D01*
X224746116Y-175848884D01*
X224988011Y-175990757D01*
X225012500Y-176175000D01*
X225214703Y-176470958D01*
X225785837Y-176290383D01*
X225916277Y-176211831D01*
X226214665Y-175736990D01*
X226262435Y-175514205D01*
X223039296Y-175514205D01*
X222982864Y-175771307D01*
X222790000Y-176175000D01*
X222288239Y-176712249D01*
X221751610Y-176737196D01*
X221395219Y-176307782D01*
X221227767Y-175667457D01*
X221479742Y-175425634D01*
X222075625Y-175424346D01*
X222744124Y-175479541D01*
X223039296Y-175514205D01*
X226262435Y-175514205D01*
X226388635Y-174925649D01*
X226398076Y-174786968D01*
X226391630Y-174029808D01*
X226194175Y-173735028D01*
X225685922Y-173734017D01*
X225653050Y-173738278D01*
G36*
X220899071Y-177938929D02*
X220765796Y-178480984D01*
X220913602Y-179490866D01*
X220945758Y-179621712D01*
X221108576Y-180643508D01*
X220907862Y-181237914D01*
X220268034Y-181473347D01*
X219113511Y-181418223D01*
X218980000Y-181401113D01*
X217934364Y-181137542D01*
X217191775Y-180713650D01*
X216879092Y-180220637D01*
X216945159Y-179938225D01*
X216981420Y-179684911D01*
X216567810Y-179814135D01*
X215952580Y-180180265D01*
X215316438Y-180730838D01*
X215276860Y-181181845D01*
X215847312Y-181560167D01*
X216781723Y-181835469D01*
X218700786Y-182156154D01*
X220186523Y-182117599D01*
X221202500Y-181788454D01*
X221688045Y-181452942D01*
X221909642Y-180968400D01*
X221949450Y-180119248D01*
X221941515Y-179849274D01*
X221808059Y-178700005D01*
X221531540Y-177986537D01*
X221153686Y-177785341D01*
X220899071Y-177938929D01*
X220899071Y-177938929D01*
G37*
X220899071Y-177938929D02*
X220765796Y-178480984D01*
X220913602Y-179490866D01*
X220945758Y-179621712D01*
X221108576Y-180643508D01*
X220907862Y-181237914D01*
X220268034Y-181473347D01*
X219113511Y-181418223D01*
X218980000Y-181401113D01*
X217934364Y-181137542D01*
X217191775Y-180713650D01*
X216879092Y-180220637D01*
X216945159Y-179938225D01*
X216981420Y-179684911D01*
X216567810Y-179814135D01*
X215952580Y-180180265D01*
X215316438Y-180730838D01*
X215276860Y-181181845D01*
X215847312Y-181560167D01*
X216781723Y-181835469D01*
X218700786Y-182156154D01*
X220186523Y-182117599D01*
X221202500Y-181788454D01*
X221688045Y-181452942D01*
X221909642Y-180968400D01*
X221949450Y-180119248D01*
X221941515Y-179849274D01*
X221808059Y-178700005D01*
X221531540Y-177986537D01*
X221153686Y-177785341D01*
X220899071Y-177938929D01*
G36*
X224855678Y-181771240D02*
X225214472Y-182337113D01*
X225862947Y-183079378D01*
X226313042Y-183466723D01*
X226432325Y-183378719D01*
X226207017Y-182890211D01*
X225965000Y-182525000D01*
X225435908Y-181898639D01*
X225005777Y-181581944D01*
X224952004Y-181572500D01*
X224855678Y-181771240D01*
X224855678Y-181771240D01*
G37*
X224855678Y-181771240D02*
X225214472Y-182337113D01*
X225862947Y-183079378D01*
X226313042Y-183466723D01*
X226432325Y-183378719D01*
X226207017Y-182890211D01*
X225965000Y-182525000D01*
X225435908Y-181898639D01*
X225005777Y-181581944D01*
X224952004Y-181572500D01*
X224855678Y-181771240D01*
G04 #@! TO.C,J1*
D10*
X296563903Y-161747264D02*
X296440223Y-162305148D01*
X297478359Y-162242646D02*
X296502063Y-162026206D01*
X297220693Y-163404903D02*
X296827937Y-162976404D01*
X297344373Y-162847020D02*
X296368077Y-162630580D01*
X296285624Y-163002502D01*
X296311501Y-163105789D01*
X296347684Y-163162586D01*
X296430358Y-163229690D01*
X296569829Y-163260610D01*
X296673116Y-163234733D01*
X296729913Y-163198549D01*
X296797017Y-163115875D01*
X296879470Y-162743953D01*
X297004253Y-164381199D02*
X296611497Y-163952700D01*
X297127933Y-163823316D02*
X296151637Y-163606876D01*
X296069184Y-163978798D01*
X296095061Y-164082085D01*
X296131245Y-164138882D01*
X296213919Y-164205986D01*
X296353389Y-164236906D01*
X296456677Y-164211029D01*
X296513474Y-164174845D01*
X296580577Y-164092171D01*
X296663030Y-163720249D01*
X296875310Y-164742815D02*
X296890880Y-164892592D01*
X296839347Y-165125044D01*
X296772244Y-165207717D01*
X296715447Y-165243901D01*
X296612159Y-165269778D01*
X296519179Y-165249165D01*
X296436505Y-165182061D01*
X296400321Y-165125264D01*
X296374444Y-165021977D01*
X296369181Y-164825709D01*
X296343304Y-164722422D01*
X296307120Y-164665625D01*
X296224446Y-164598522D01*
X296131465Y-164577908D01*
X296028178Y-164603785D01*
X295971381Y-164639969D01*
X295904278Y-164722643D01*
X295852744Y-164955094D01*
X295868315Y-165104872D01*
G04 #@! TO.C,SW27*
X298928522Y-172693949D02*
X298535766Y-172265450D01*
X299052202Y-172136066D02*
X298075906Y-171919626D01*
X297993453Y-172291548D01*
X298019330Y-172394835D01*
X298055513Y-172451632D01*
X298138187Y-172518736D01*
X298277658Y-172549656D01*
X298380945Y-172523779D01*
X298437742Y-172487595D01*
X298504846Y-172404921D01*
X298587299Y-172032999D01*
X298324369Y-172998988D02*
X298252222Y-173324420D01*
X298732696Y-173577264D02*
X298835762Y-173112362D01*
X297859466Y-172895922D01*
X297756400Y-173360825D01*
X298603752Y-173938880D02*
X298619323Y-174088658D01*
X298567789Y-174321109D01*
X298500686Y-174403783D01*
X298443889Y-174439967D01*
X298340602Y-174465843D01*
X298247621Y-174445230D01*
X298164947Y-174378127D01*
X298128763Y-174321330D01*
X298102886Y-174218042D01*
X298097623Y-174021775D01*
X298071746Y-173918487D01*
X298035562Y-173861691D01*
X297952888Y-173794587D01*
X297859908Y-173773974D01*
X297756620Y-173799851D01*
X297699823Y-173836034D01*
X297632720Y-173918708D01*
X297581187Y-174151160D01*
X297596757Y-174300937D01*
X297922410Y-174812110D02*
X297850263Y-175137542D01*
X298330736Y-175390386D02*
X298433803Y-174925483D01*
X297457507Y-174709043D01*
X297354440Y-175173946D01*
X297292600Y-175452888D02*
X297168921Y-176010771D01*
X298207057Y-175948269D02*
X297230761Y-175731829D01*
G04 #@! TO.C,U1*
D19*
X307190266Y-128620142D02*
X307430282Y-128307538D01*
X307469208Y-128681982D02*
X307631538Y-127949760D01*
X307445576Y-127908533D01*
X307391356Y-127933094D01*
X307360381Y-127962809D01*
X307321676Y-128027391D01*
X307298486Y-128131994D01*
X307306271Y-128206883D01*
X307321786Y-128246904D01*
X307360547Y-128292078D01*
X307546508Y-128333305D01*
X307050685Y-128369709D02*
X306818234Y-128318176D01*
X307050795Y-128589222D02*
X307050409Y-127820927D01*
X306725363Y-128517076D01*
X306771467Y-127759087D02*
X306492912Y-128465542D01*
X306515881Y-127921913D01*
X306306951Y-128424316D01*
X306353055Y-127666327D01*
X292288270Y-125316449D02*
X292520721Y-125367982D01*
X292683051Y-124635760D01*
X292210584Y-124896831D02*
X292047868Y-124860757D01*
X291893103Y-125228842D02*
X292125554Y-125280375D01*
X292287884Y-124548153D01*
X292055432Y-124496620D01*
X291683896Y-125182462D02*
X291846226Y-124450240D01*
X291730000Y-124424474D01*
X291652535Y-124443881D01*
X291590585Y-124503310D01*
X291551880Y-124567892D01*
X291497714Y-124702210D01*
X291474525Y-124806813D01*
X291466850Y-124951437D01*
X291474635Y-125026326D01*
X291505665Y-125106368D01*
X291567671Y-125156696D01*
X291683896Y-125182462D01*
X306781727Y-130334571D02*
X306835947Y-130310010D01*
X306905682Y-130325470D01*
X306967688Y-130375797D01*
X306998718Y-130455839D01*
X307006503Y-130530728D01*
X306998828Y-130675352D01*
X306975639Y-130779955D01*
X306921473Y-130914273D01*
X306882768Y-130978855D01*
X306820818Y-131038284D01*
X306743353Y-131057692D01*
X306696862Y-131047385D01*
X306634857Y-130997057D01*
X306619342Y-130957036D01*
X306673452Y-130712962D01*
X306766432Y-130733576D01*
X306394675Y-130980392D02*
X306557005Y-130248170D01*
X306115734Y-130918552D01*
X306278063Y-130186330D01*
X305883282Y-130867019D02*
X306045612Y-130134797D01*
X305929386Y-130109030D01*
X305851921Y-130128438D01*
X305789971Y-130187866D01*
X305751266Y-130252449D01*
X305697100Y-130386766D01*
X305673911Y-130491369D01*
X305666236Y-130635993D01*
X305674021Y-130710882D01*
X305705051Y-130790924D01*
X305767057Y-130841252D01*
X305883282Y-130867019D01*
X291986888Y-127958340D02*
X292149217Y-127226118D01*
X292032992Y-127200352D01*
X291955526Y-127219760D01*
X291893576Y-127279188D01*
X291854871Y-127343771D01*
X291800706Y-127478088D01*
X291777516Y-127582691D01*
X291769841Y-127727315D01*
X291777626Y-127802204D01*
X291808656Y-127882246D01*
X291870662Y-127932574D01*
X291986888Y-127958340D01*
X291568365Y-127646068D02*
X291335913Y-127594534D01*
X291568475Y-127865581D02*
X291568089Y-127097285D01*
X291243043Y-127793434D01*
X291312392Y-127040599D02*
X291033450Y-126978759D01*
X291010592Y-127741901D02*
X291172921Y-127009679D01*
X290778030Y-127470855D02*
X290545578Y-127419321D01*
X290778140Y-127690368D02*
X290777754Y-126922072D01*
X290452708Y-127618221D01*
X306021018Y-133564265D02*
X306261034Y-133251661D01*
X306299959Y-133626105D02*
X306462289Y-132893883D01*
X306276328Y-132852656D01*
X306222108Y-132877217D01*
X306191133Y-132906932D01*
X306152428Y-132971514D01*
X306129238Y-133076117D01*
X306137023Y-133151006D01*
X306152538Y-133191027D01*
X306191298Y-133236201D01*
X306377259Y-133277428D01*
X305842787Y-133488171D02*
X305765321Y-133507578D01*
X305649095Y-133481812D01*
X305610335Y-133436637D01*
X305594820Y-133396616D01*
X305587035Y-133321728D01*
X305602495Y-133251992D01*
X305641200Y-133187410D01*
X305672175Y-133157696D01*
X305726395Y-133133135D01*
X305827106Y-133118880D01*
X305881326Y-133094319D01*
X305912301Y-133064605D01*
X305951006Y-133000023D01*
X305966466Y-132930287D01*
X305958681Y-132855399D01*
X305943166Y-132815377D01*
X305904406Y-132770203D01*
X305788180Y-132744437D01*
X305710715Y-132763844D01*
X305578974Y-132698057D02*
X305300032Y-132636217D01*
X305277173Y-133399359D02*
X305439503Y-132667137D01*
X291401470Y-129591562D02*
X291455690Y-129567001D01*
X291525425Y-129582461D01*
X291587431Y-129632788D01*
X291618461Y-129712830D01*
X291626246Y-129787719D01*
X291618571Y-129932343D01*
X291595382Y-130036946D01*
X291541216Y-130171264D01*
X291502511Y-130235846D01*
X291440561Y-130295275D01*
X291363096Y-130314683D01*
X291316605Y-130304376D01*
X291254600Y-130254048D01*
X291239085Y-130214027D01*
X291293195Y-129969953D01*
X291386175Y-129990567D01*
X291014418Y-130237383D02*
X291176748Y-129505161D01*
X290735477Y-130175543D01*
X290897806Y-129443321D01*
X290503025Y-130124010D02*
X290665355Y-129391788D01*
X290549129Y-129366021D01*
X290471664Y-129385429D01*
X290409714Y-129444857D01*
X290371009Y-129509440D01*
X290316843Y-129643757D01*
X290293654Y-129748360D01*
X290285979Y-129892984D01*
X290293764Y-129967873D01*
X290324794Y-130047915D01*
X290386800Y-130098243D01*
X290503025Y-130124010D01*
X305955140Y-135383121D02*
X305630095Y-136079270D01*
X305629708Y-135310974D01*
X305041181Y-135875548D02*
X305056696Y-135915569D01*
X305118701Y-135965896D01*
X305165192Y-135976203D01*
X305242657Y-135956795D01*
X305304607Y-135897367D01*
X305343313Y-135832784D01*
X305397478Y-135698467D01*
X305420668Y-135593864D01*
X305428342Y-135449240D01*
X305420557Y-135374351D01*
X305389527Y-135294309D01*
X305327521Y-135243981D01*
X305281031Y-135233674D01*
X305203566Y-135253082D01*
X305172591Y-135282797D01*
X304553033Y-135767328D02*
X304568548Y-135807349D01*
X304630553Y-135857677D01*
X304677044Y-135867983D01*
X304754509Y-135848576D01*
X304816459Y-135789147D01*
X304855165Y-135724565D01*
X304909330Y-135590247D01*
X304932520Y-135485644D01*
X304940194Y-135341020D01*
X304932409Y-135266131D01*
X304901379Y-135186089D01*
X304839373Y-135135761D01*
X304792883Y-135125455D01*
X304715418Y-135144862D01*
X304684443Y-135174577D01*
X290851713Y-132071353D02*
X290905933Y-132046792D01*
X290975668Y-132062252D01*
X291037674Y-132112579D01*
X291068704Y-132192621D01*
X291076489Y-132267510D01*
X291068814Y-132412134D01*
X291045625Y-132516737D01*
X290991459Y-132651055D01*
X290952754Y-132715637D01*
X290890804Y-132775066D01*
X290813339Y-132794474D01*
X290766848Y-132784167D01*
X290704843Y-132733839D01*
X290689328Y-132693818D01*
X290743438Y-132449744D01*
X290836418Y-132470358D01*
X290464661Y-132717174D02*
X290626991Y-131984952D01*
X290185720Y-132655334D01*
X290348049Y-131923112D01*
X289953268Y-132603801D02*
X290115598Y-131871579D01*
X289999372Y-131845812D01*
X289921907Y-131865220D01*
X289859957Y-131924648D01*
X289821252Y-131989231D01*
X289767086Y-132123548D01*
X289743897Y-132228151D01*
X289736222Y-132372775D01*
X289744007Y-132447664D01*
X289775037Y-132527706D01*
X289837043Y-132578034D01*
X289953268Y-132603801D01*
X303376225Y-145876754D02*
X303391740Y-145916775D01*
X303453745Y-145967103D01*
X303500236Y-145977409D01*
X303577701Y-145958001D01*
X303639651Y-145898573D01*
X303678357Y-145833991D01*
X303732522Y-145699673D01*
X303755712Y-145595070D01*
X303763386Y-145450446D01*
X303755601Y-145375557D01*
X303724571Y-145295515D01*
X303662565Y-145245187D01*
X303616075Y-145234881D01*
X303538610Y-145254288D01*
X303507635Y-145284003D01*
X303220908Y-145147274D02*
X303127927Y-145126661D01*
X303073707Y-145151222D01*
X303011757Y-145210651D01*
X302957592Y-145344968D01*
X302903482Y-145589042D01*
X302895807Y-145733666D01*
X302926837Y-145813708D01*
X302965597Y-145858883D01*
X303058578Y-145879496D01*
X303112798Y-145854935D01*
X303174749Y-145795506D01*
X303228914Y-145661189D01*
X303283024Y-145417115D01*
X303290698Y-145272490D01*
X303259668Y-145192448D01*
X303220908Y-145147274D01*
X302407714Y-145735203D02*
X302640165Y-145786736D01*
X302802495Y-145054514D01*
X302453818Y-144977214D02*
X302151631Y-144910221D01*
X302252507Y-145225236D01*
X302182772Y-145209776D01*
X302128552Y-145234337D01*
X302097576Y-145264052D01*
X302058871Y-145328634D01*
X302020221Y-145502972D01*
X302028007Y-145577861D01*
X302043522Y-145617882D01*
X302082282Y-145663056D01*
X302221753Y-145693976D01*
X302275973Y-145669415D01*
X302306948Y-145639701D01*
X289060611Y-140145872D02*
X289300627Y-139833268D01*
X289339553Y-140207712D02*
X289501882Y-139475490D01*
X289315921Y-139434263D01*
X289261701Y-139458824D01*
X289230726Y-139488539D01*
X289192021Y-139553121D01*
X289168831Y-139657724D01*
X289176616Y-139732613D01*
X289192131Y-139772634D01*
X289230891Y-139817808D01*
X289416852Y-139859035D01*
X288920754Y-139346657D02*
X288827773Y-139326043D01*
X288773553Y-139350604D01*
X288711603Y-139410033D01*
X288657438Y-139544351D01*
X288603328Y-139788425D01*
X288595653Y-139933049D01*
X288626683Y-140013091D01*
X288665443Y-140058265D01*
X288758424Y-140078879D01*
X288812644Y-140054318D01*
X288874595Y-139994889D01*
X288928760Y-139860571D01*
X288982870Y-139616497D01*
X288990544Y-139471873D01*
X288959514Y-139391831D01*
X288920754Y-139346657D01*
X288548831Y-139264203D02*
X288270276Y-139970659D01*
X288293245Y-139427030D01*
X288084315Y-139929432D01*
X288130419Y-139171444D01*
X287851477Y-139109604D02*
X287804987Y-139099297D01*
X287750767Y-139123858D01*
X287719792Y-139153573D01*
X287681086Y-139218155D01*
X287626921Y-139352472D01*
X287588271Y-139526811D01*
X287580597Y-139671435D01*
X287588382Y-139746324D01*
X287603897Y-139786345D01*
X287642657Y-139831519D01*
X287689147Y-139841826D01*
X287743368Y-139817265D01*
X287774343Y-139787550D01*
X287813048Y-139722968D01*
X287867213Y-139588651D01*
X287905863Y-139414312D01*
X287913538Y-139269688D01*
X287905753Y-139194799D01*
X287890237Y-139154778D01*
X287851477Y-139109604D01*
X303917324Y-143436014D02*
X303932839Y-143476035D01*
X303994844Y-143526363D01*
X304041335Y-143536669D01*
X304118800Y-143517261D01*
X304180750Y-143457833D01*
X304219456Y-143393251D01*
X304273621Y-143258933D01*
X304296811Y-143154330D01*
X304304485Y-143009706D01*
X304296700Y-142934817D01*
X304265670Y-142854775D01*
X304203664Y-142804447D01*
X304157174Y-142794141D01*
X304079709Y-142813548D01*
X304048734Y-142843263D01*
X303762007Y-142706534D02*
X303669026Y-142685921D01*
X303614806Y-142710482D01*
X303552856Y-142769911D01*
X303498691Y-142904228D01*
X303444581Y-143148302D01*
X303436906Y-143292926D01*
X303467936Y-143372968D01*
X303506696Y-143418143D01*
X303599677Y-143438756D01*
X303653897Y-143414195D01*
X303715848Y-143354766D01*
X303770013Y-143220449D01*
X303824123Y-142976375D01*
X303831797Y-142831750D01*
X303800767Y-142751708D01*
X303762007Y-142706534D01*
X302948813Y-143294463D02*
X303181264Y-143345996D01*
X303343594Y-142613774D01*
X302956212Y-142601056D02*
X302940697Y-142561035D01*
X302901936Y-142515861D01*
X302785711Y-142490094D01*
X302731490Y-142514655D01*
X302700515Y-142544370D01*
X302661810Y-142608952D01*
X302646350Y-142678687D01*
X302646405Y-142788444D01*
X302832587Y-143268696D01*
X302530400Y-143201703D01*
X289814536Y-137739803D02*
X289737071Y-137759211D01*
X289620845Y-137733444D01*
X289582085Y-137688270D01*
X289566570Y-137648249D01*
X289558784Y-137573360D01*
X289574244Y-137503625D01*
X289612950Y-137439043D01*
X289643925Y-137409328D01*
X289698145Y-137384767D01*
X289798855Y-137370513D01*
X289853076Y-137345952D01*
X289884051Y-137316237D01*
X289922756Y-137251655D01*
X289938216Y-137181920D01*
X289930431Y-137107031D01*
X289914916Y-137067010D01*
X289876155Y-137021836D01*
X289759930Y-136996069D01*
X289682464Y-137015477D01*
X289055176Y-137534876D02*
X289070692Y-137574897D01*
X289132697Y-137625224D01*
X289179187Y-137635531D01*
X289256653Y-137616123D01*
X289318603Y-137556695D01*
X289357308Y-137492113D01*
X289411473Y-137357795D01*
X289434663Y-137253192D01*
X289442338Y-137108568D01*
X289434553Y-137033679D01*
X289403522Y-136953637D01*
X289341517Y-136903309D01*
X289295027Y-136893002D01*
X289217561Y-136912410D01*
X289186586Y-136942125D01*
X288598059Y-137506698D02*
X288830510Y-137558231D01*
X288992840Y-136826009D01*
X304468054Y-140951829D02*
X304483569Y-140991850D01*
X304545574Y-141042178D01*
X304592065Y-141052484D01*
X304669530Y-141033076D01*
X304731480Y-140973648D01*
X304770186Y-140909066D01*
X304824351Y-140774748D01*
X304847541Y-140670145D01*
X304855215Y-140525521D01*
X304847430Y-140450632D01*
X304816400Y-140370590D01*
X304754394Y-140320262D01*
X304707904Y-140309956D01*
X304630439Y-140329363D01*
X304599464Y-140359078D01*
X304312737Y-140222349D02*
X304219756Y-140201736D01*
X304165536Y-140226297D01*
X304103586Y-140285726D01*
X304049421Y-140420043D01*
X303995311Y-140664117D01*
X303987636Y-140808741D01*
X304018666Y-140888783D01*
X304057426Y-140933958D01*
X304150407Y-140954571D01*
X304204627Y-140930010D01*
X304266578Y-140870581D01*
X304320743Y-140736264D01*
X304374853Y-140492190D01*
X304382527Y-140347565D01*
X304351497Y-140267523D01*
X304312737Y-140222349D01*
X303499543Y-140810278D02*
X303731994Y-140861811D01*
X303894324Y-140129589D01*
X303081130Y-140717518D02*
X303360072Y-140779358D01*
X303220601Y-140748438D02*
X303382931Y-140016216D01*
X303406231Y-140131126D01*
X303437262Y-140211168D01*
X303476022Y-140256342D01*
X290375915Y-135262588D02*
X290298449Y-135281996D01*
X290182224Y-135256229D01*
X290143463Y-135211055D01*
X290127948Y-135171034D01*
X290120163Y-135096145D01*
X290135623Y-135026409D01*
X290174328Y-134961827D01*
X290205303Y-134932113D01*
X290259523Y-134907552D01*
X290360234Y-134893297D01*
X290414454Y-134868736D01*
X290445429Y-134839022D01*
X290484135Y-134774440D01*
X290499595Y-134704704D01*
X290491809Y-134629816D01*
X290476294Y-134589795D01*
X290437534Y-134544620D01*
X290321308Y-134518854D01*
X290243843Y-134538261D01*
X289880037Y-135189236D02*
X290042366Y-134457014D01*
X289926141Y-134431247D01*
X289848675Y-134450655D01*
X289786725Y-134510084D01*
X289748020Y-134574666D01*
X289693855Y-134708983D01*
X289670665Y-134813586D01*
X289662990Y-134958211D01*
X289670775Y-135033099D01*
X289701806Y-135113141D01*
X289763811Y-135163469D01*
X289880037Y-135189236D01*
X289461514Y-134876963D02*
X289229062Y-134825430D01*
X289461624Y-135096476D02*
X289461238Y-134328181D01*
X289136192Y-135024329D01*
X305010344Y-138505719D02*
X305025859Y-138545740D01*
X305087864Y-138596068D01*
X305134355Y-138606374D01*
X305211820Y-138586966D01*
X305273770Y-138527538D01*
X305312476Y-138462956D01*
X305366641Y-138328638D01*
X305389831Y-138224035D01*
X305397505Y-138079411D01*
X305389720Y-138004522D01*
X305358690Y-137924480D01*
X305296684Y-137874152D01*
X305250194Y-137863846D01*
X305172729Y-137883253D01*
X305141754Y-137912968D01*
X304855027Y-137776239D02*
X304762046Y-137755626D01*
X304707826Y-137780187D01*
X304645876Y-137839616D01*
X304591711Y-137973933D01*
X304537601Y-138218007D01*
X304529926Y-138362631D01*
X304560956Y-138442673D01*
X304599716Y-138487848D01*
X304692697Y-138508461D01*
X304746917Y-138483900D01*
X304808868Y-138424471D01*
X304863033Y-138290154D01*
X304917143Y-138046080D01*
X304924817Y-137901455D01*
X304893787Y-137821413D01*
X304855027Y-137776239D01*
X304041833Y-138364168D02*
X304274284Y-138415701D01*
X304436614Y-137683479D01*
X303948466Y-137575259D02*
X303901976Y-137564953D01*
X303847756Y-137589514D01*
X303816781Y-137619228D01*
X303778075Y-137683810D01*
X303723910Y-137818128D01*
X303685260Y-137992466D01*
X303677586Y-138137091D01*
X303685371Y-138211979D01*
X303700886Y-138252000D01*
X303739646Y-138297175D01*
X303786136Y-138307481D01*
X303840357Y-138282920D01*
X303871332Y-138253206D01*
X303910037Y-138188624D01*
X303964202Y-138054306D01*
X304002852Y-137879968D01*
X304010527Y-137735344D01*
X304002742Y-137660455D01*
X303987226Y-137620434D01*
X303948466Y-137575259D01*
X301350225Y-155476368D02*
X301272760Y-155495776D01*
X301241785Y-155525490D01*
X301203080Y-155590072D01*
X301179890Y-155694676D01*
X301187675Y-155769564D01*
X301203190Y-155809585D01*
X301241950Y-155854760D01*
X301427911Y-155895986D01*
X301590241Y-155163764D01*
X301427525Y-155127691D01*
X301373305Y-155152252D01*
X301342330Y-155181966D01*
X301303625Y-155246549D01*
X301288165Y-155316284D01*
X301295950Y-155391173D01*
X301311465Y-155431194D01*
X301350225Y-155476368D01*
X301512941Y-155512441D01*
X300892887Y-155009165D02*
X300985867Y-155029778D01*
X301024628Y-155074952D01*
X301040143Y-155114973D01*
X301063443Y-155229883D01*
X301055768Y-155374507D01*
X300993928Y-155653449D01*
X300955223Y-155718031D01*
X300924248Y-155747745D01*
X300870028Y-155772307D01*
X300777047Y-155751693D01*
X300738287Y-155706519D01*
X300722772Y-155666498D01*
X300714987Y-155591609D01*
X300753637Y-155417271D01*
X300792342Y-155352688D01*
X300823317Y-155322974D01*
X300877537Y-155298413D01*
X300970518Y-155319026D01*
X301009278Y-155364201D01*
X301024793Y-155404222D01*
X301032578Y-155479110D01*
X286209751Y-152184847D02*
X286132286Y-152204255D01*
X286101311Y-152233969D01*
X286062606Y-152298551D01*
X286039416Y-152403155D01*
X286047201Y-152478043D01*
X286062716Y-152518064D01*
X286101476Y-152563239D01*
X286287437Y-152604465D01*
X286449767Y-151872243D01*
X286287051Y-151836170D01*
X286232831Y-151860731D01*
X286201856Y-151890445D01*
X286163151Y-151955028D01*
X286147691Y-152024763D01*
X286155476Y-152099652D01*
X286170991Y-152139673D01*
X286209751Y-152184847D01*
X286372467Y-152220920D01*
X285729168Y-151712490D02*
X285961619Y-151764024D01*
X285907564Y-152117854D01*
X285892049Y-152077833D01*
X285853289Y-152032659D01*
X285737063Y-152006892D01*
X285682843Y-152031453D01*
X285651868Y-152061167D01*
X285613163Y-152125750D01*
X285574513Y-152300088D01*
X285582298Y-152374977D01*
X285597813Y-152414998D01*
X285636573Y-152460172D01*
X285752799Y-152485939D01*
X285807019Y-152461378D01*
X285837994Y-152431663D01*
X286759508Y-149705055D02*
X286682043Y-149724463D01*
X286651068Y-149754177D01*
X286612363Y-149818759D01*
X286589173Y-149923363D01*
X286596958Y-149998251D01*
X286612473Y-150038272D01*
X286651233Y-150083447D01*
X286837194Y-150124673D01*
X286999524Y-149392451D01*
X286836808Y-149356378D01*
X286782588Y-149380939D01*
X286751613Y-149410653D01*
X286712908Y-149475236D01*
X286697448Y-149544971D01*
X286705233Y-149619860D01*
X286720748Y-149659881D01*
X286759508Y-149705055D01*
X286922224Y-149741128D01*
X286248060Y-149481926D02*
X286139840Y-149970074D01*
X286426125Y-149228750D02*
X286426401Y-149777533D01*
X286124215Y-149710540D01*
X301975721Y-152948325D02*
X301898256Y-152967733D01*
X301867281Y-152997447D01*
X301828576Y-153062029D01*
X301805386Y-153166633D01*
X301813171Y-153241521D01*
X301828686Y-153281542D01*
X301867446Y-153326717D01*
X302053407Y-153367943D01*
X302215737Y-152635721D01*
X302053021Y-152599648D01*
X301998801Y-152624209D01*
X301967826Y-152653923D01*
X301929121Y-152718506D01*
X301913661Y-152788241D01*
X301921446Y-152863130D01*
X301936961Y-152903151D01*
X301975721Y-152948325D01*
X302138437Y-152984398D01*
X301735374Y-152602390D02*
X301719859Y-152562369D01*
X301681099Y-152517195D01*
X301564873Y-152491428D01*
X301510653Y-152515989D01*
X301479678Y-152545704D01*
X301440973Y-152610286D01*
X301425513Y-152680021D01*
X301425568Y-152789778D01*
X301611750Y-153270030D01*
X301309563Y-153203037D01*
X287390130Y-147680924D02*
X287630146Y-147368320D01*
X287669072Y-147742764D02*
X287831401Y-147010542D01*
X287645440Y-146969315D01*
X287591220Y-146993876D01*
X287560245Y-147023591D01*
X287521540Y-147088173D01*
X287498350Y-147192776D01*
X287506135Y-147267665D01*
X287521650Y-147307686D01*
X287560410Y-147352860D01*
X287746371Y-147394087D01*
X287250273Y-146881709D02*
X287157292Y-146861095D01*
X287103072Y-146885656D01*
X287041122Y-146945085D01*
X286986957Y-147079403D01*
X286932847Y-147323477D01*
X286925172Y-147468101D01*
X286956202Y-147548143D01*
X286994962Y-147593317D01*
X287087943Y-147613931D01*
X287142163Y-147589370D01*
X287204114Y-147529941D01*
X287258279Y-147395623D01*
X287312389Y-147151549D01*
X287320063Y-147006925D01*
X287289033Y-146926883D01*
X287250273Y-146881709D01*
X286878350Y-146799255D02*
X286599795Y-147505711D01*
X286622764Y-146962082D01*
X286413834Y-147464484D01*
X286459938Y-146706496D01*
X286320467Y-146675576D02*
X286018280Y-146608582D01*
X286119156Y-146923597D01*
X286049421Y-146908137D01*
X285995201Y-146932699D01*
X285964225Y-146962413D01*
X285925520Y-147026995D01*
X285886870Y-147201334D01*
X285894656Y-147276222D01*
X285910171Y-147316243D01*
X285948931Y-147361418D01*
X286088402Y-147392338D01*
X286142622Y-147367777D01*
X286173597Y-147338062D01*
X302261561Y-150904679D02*
X302277076Y-150944700D01*
X302339081Y-150995028D01*
X302385572Y-151005334D01*
X302463037Y-150985926D01*
X302524987Y-150926498D01*
X302563693Y-150861916D01*
X302617858Y-150727598D01*
X302641048Y-150622995D01*
X302648722Y-150478371D01*
X302640937Y-150403482D01*
X302609907Y-150323440D01*
X302547901Y-150273112D01*
X302501411Y-150262806D01*
X302423946Y-150282213D01*
X302392971Y-150311928D01*
X302106244Y-150175199D02*
X302013263Y-150154586D01*
X301959043Y-150179147D01*
X301897093Y-150238576D01*
X301842928Y-150372893D01*
X301788818Y-150616967D01*
X301781143Y-150761591D01*
X301812173Y-150841633D01*
X301850933Y-150886808D01*
X301943914Y-150907421D01*
X301998134Y-150882860D01*
X302060085Y-150823431D01*
X302114250Y-150689114D01*
X302168360Y-150445040D01*
X302176034Y-150300415D01*
X302145004Y-150220373D01*
X302106244Y-150175199D01*
X301293050Y-150763128D02*
X301525501Y-150814661D01*
X301687831Y-150082439D01*
X301060212Y-149943299D02*
X301292664Y-149994833D01*
X301238609Y-150348663D01*
X301223094Y-150308642D01*
X301184334Y-150263468D01*
X301068108Y-150237701D01*
X301013888Y-150262262D01*
X300982912Y-150291977D01*
X300944207Y-150356559D01*
X300905557Y-150530897D01*
X300913343Y-150605786D01*
X300928858Y-150645807D01*
X300967618Y-150690981D01*
X301083844Y-150716748D01*
X301138064Y-150692187D01*
X301169039Y-150662473D01*
X287933610Y-145229445D02*
X288173626Y-144916841D01*
X288212552Y-145291285D02*
X288374881Y-144559063D01*
X288188920Y-144517836D01*
X288134700Y-144542397D01*
X288103725Y-144572112D01*
X288065020Y-144636694D01*
X288041830Y-144741297D01*
X288049615Y-144816186D01*
X288065130Y-144856207D01*
X288103890Y-144901381D01*
X288289851Y-144942608D01*
X287793753Y-144430230D02*
X287700772Y-144409616D01*
X287646552Y-144434177D01*
X287584602Y-144493606D01*
X287530437Y-144627924D01*
X287476327Y-144871998D01*
X287468652Y-145016622D01*
X287499682Y-145096664D01*
X287538442Y-145141838D01*
X287631423Y-145162452D01*
X287685643Y-145137891D01*
X287747594Y-145078462D01*
X287801759Y-144944144D01*
X287855869Y-144700070D01*
X287863543Y-144555446D01*
X287832513Y-144475404D01*
X287793753Y-144430230D01*
X287421830Y-144347776D02*
X287143275Y-145054232D01*
X287166244Y-144510603D01*
X286957314Y-145013005D01*
X287003418Y-144255017D01*
X286825242Y-144288679D02*
X286809727Y-144248658D01*
X286770966Y-144203483D01*
X286654741Y-144177717D01*
X286600520Y-144202278D01*
X286569545Y-144231992D01*
X286530840Y-144296574D01*
X286515380Y-144366310D01*
X286515435Y-144476066D01*
X286701617Y-144956319D01*
X286399430Y-144889325D01*
X302783714Y-148318388D02*
X302799229Y-148358409D01*
X302861234Y-148408737D01*
X302907725Y-148419043D01*
X302985190Y-148399635D01*
X303047140Y-148340207D01*
X303085846Y-148275625D01*
X303140011Y-148141307D01*
X303163201Y-148036704D01*
X303170875Y-147892080D01*
X303163090Y-147817191D01*
X303132060Y-147737149D01*
X303070054Y-147686821D01*
X303023564Y-147676515D01*
X302946099Y-147695922D01*
X302915124Y-147725637D01*
X302628397Y-147588908D02*
X302535416Y-147568295D01*
X302481196Y-147592856D01*
X302419246Y-147652285D01*
X302365081Y-147786602D01*
X302310971Y-148030676D01*
X302303296Y-148175300D01*
X302334326Y-148255342D01*
X302373086Y-148300517D01*
X302466067Y-148321130D01*
X302520287Y-148296569D01*
X302582238Y-148237140D01*
X302636403Y-148102823D01*
X302690513Y-147858749D01*
X302698187Y-147714124D01*
X302667157Y-147634082D01*
X302628397Y-147588908D01*
X301815203Y-148176837D02*
X302047654Y-148228370D01*
X302209984Y-147496148D01*
X301551501Y-147606236D02*
X301443281Y-148094384D01*
X301729566Y-147353061D02*
X301729842Y-147901843D01*
X301427655Y-147834850D01*
X288497110Y-142687659D02*
X288737126Y-142375055D01*
X288776052Y-142749499D02*
X288938381Y-142017277D01*
X288752420Y-141976050D01*
X288698200Y-142000611D01*
X288667225Y-142030326D01*
X288628520Y-142094908D01*
X288605330Y-142199511D01*
X288613115Y-142274400D01*
X288628630Y-142314421D01*
X288667390Y-142359595D01*
X288853351Y-142400822D01*
X288357253Y-141888444D02*
X288264272Y-141867830D01*
X288210052Y-141892391D01*
X288148102Y-141951820D01*
X288093937Y-142086138D01*
X288039827Y-142330212D01*
X288032152Y-142474836D01*
X288063182Y-142554878D01*
X288101942Y-142600052D01*
X288194923Y-142620666D01*
X288249143Y-142596105D01*
X288311094Y-142536676D01*
X288365259Y-142402358D01*
X288419369Y-142158284D01*
X288427043Y-142013660D01*
X288396013Y-141933618D01*
X288357253Y-141888444D01*
X287985330Y-141805990D02*
X287706775Y-142512446D01*
X287729744Y-141968817D01*
X287520814Y-142471219D01*
X287566918Y-141713231D01*
X286962930Y-142347539D02*
X287241872Y-142409379D01*
X287102401Y-142378459D02*
X287264731Y-141646237D01*
X287288031Y-141761147D01*
X287319062Y-141841189D01*
X287357822Y-141886364D01*
D10*
G04 #@! TD*
M02*
