G04 #@! TF.GenerationSoftware,KiCad,Pcbnew,(5.0.2)-1*
G04 #@! TF.CreationDate,2019-01-24T16:51:55+08:00*
G04 #@! TF.ProjectId,52Te_Rev,35325465-5f52-4657-962e-6b696361645f,rev?*
G04 #@! TF.SameCoordinates,Original*
G04 #@! TF.FileFunction,Profile,NP*
%FSLAX46Y46*%
G04 Gerber Fmt 4.6, Leading zero omitted, Abs format (unit mm)*
G04 Created by KiCad (PCBNEW (5.0.2)-1) date 24/01/2019 16:51:55*
%MOMM*%
%LPD*%
G01*
G04 APERTURE LIST*
%ADD10C,0.150000*%
G04 APERTURE END LIST*
D10*
X202440000Y-87280000D02*
X150550000Y-107760000D01*
X206880000Y-88050000D02*
X202440000Y-87280000D01*
X220810000Y-90850000D02*
X206880000Y-88050000D01*
X235370000Y-94380000D02*
X220810000Y-90850000D01*
X249040000Y-98220000D02*
X235370000Y-94380000D01*
X256680000Y-100600000D02*
X249040000Y-98220000D01*
X265980000Y-103650000D02*
X256680000Y-100600000D01*
X277770000Y-107960000D02*
X265980000Y-103650000D01*
X287060000Y-111570000D02*
X277770000Y-107960000D01*
X294270000Y-114720000D02*
X287060000Y-111570000D01*
X303180000Y-118650000D02*
X294270000Y-114720000D01*
X310390000Y-122060000D02*
X303180000Y-118650000D01*
X314100000Y-123910000D02*
X310390000Y-122060000D01*
X295580000Y-207310000D02*
X314100000Y-123910000D01*
X295270000Y-208420000D02*
X295580000Y-207310000D01*
X294920000Y-209530000D02*
X295270000Y-208420000D01*
X294030000Y-211940000D02*
X294920000Y-209530000D01*
X293280000Y-213640000D02*
X294030000Y-211940000D01*
X292610000Y-214990000D02*
X293280000Y-213640000D01*
X291680000Y-216730000D02*
X292610000Y-214990000D01*
X289830000Y-219540000D02*
X291680000Y-216730000D01*
X288960000Y-220740000D02*
X289830000Y-219540000D01*
X286910000Y-223160000D02*
X288960000Y-220740000D01*
X285530000Y-224560000D02*
X286910000Y-223160000D01*
X283760000Y-226180000D02*
X285530000Y-224560000D01*
X281760000Y-227810000D02*
X283760000Y-226180000D01*
X279950000Y-229050000D02*
X281760000Y-227810000D01*
X278930000Y-229710000D02*
X279950000Y-229050000D01*
X276880000Y-230890000D02*
X278930000Y-229710000D01*
X275400000Y-231630000D02*
X276880000Y-230890000D01*
X273410000Y-232480000D02*
X275400000Y-231630000D01*
X272480000Y-232830000D02*
X273410000Y-232480000D01*
X150410000Y-172700000D02*
X272480000Y-232830000D01*
X150550000Y-107760000D02*
X150410000Y-172700000D01*
M02*
