0
SECTION
2
HEADER
9
$INSUNITS
70
4
9
$ACADVER
1
AC1014
9
$HANDSEED
5
FFFF
0
ENDSEC
0
SECTION
2
TABLES
0
TABLE
2
VPORT
5
8
100
AcDbSymbolTable
0
ENDTAB
0
TABLE
2
LTYPE
5
5
100
AcDbSymbolTable
0
LTYPE
5
14
100
AcDbSymbolTableRecord
100
AcDbLinetypeTableRecord
2
BYBLOCK
70
0
0
LTYPE
5
15
100
AcDbSymbolTableRecord
100
AcDbLinetypeTableRecord
2
BYLAYER
70
0
0
ENDTAB
0
TABLE
2
LAYER
5
2
100
AcDbSymbolTable
70
2
0
LAYER
5
50
100
AcDbSymbolTableRecord
100
AcDbLayerTableRecord
2
0
70
0
6
CONTINUOUS
0
ENDTAB
0
TABLE
2
STYLE
5
3
100
AcDbSymbolTable
70
1
0
STYLE
5
11
100
AcDbSymbolTableRecord
100
AcDbTextStyleTableRecord
2
STANDARD
70
0
0
ENDTAB
0
TABLE
2
VIEW
5
6
100
AcDbSymbolTable
70
0
0
ENDTAB
0
TABLE
2
UCS
5
7
100
AcDbSymbolTable
70
0
0
ENDTAB
0
TABLE
2
APPID
5
9
100
AcDbSymbolTable
70
2
0
APPID
5
12
100
AcDbSymbolTableRecord
100
AcDbRegAppTableRecord
2
ACAD
70
0
0
ENDTAB
0
TABLE
2
DIMSTYLE
5
A
100
AcDbSymbolTable
70
1
0
ENDTAB
0
TABLE
2
BLOCK_RECORD
5
1
100
AcDbSymbolTable
70
1
0
BLOCK_RECORD
5
1F
100
AcDbSymbolTableRecord
100
AcDbBlockTableRecord
2
*MODEL_SPACE
0
BLOCK_RECORD
5
1B
100
AcDbSymbolTableRecord
100
AcDbBlockTableRecord
2
*PAPER_SPACE
0
ENDTAB
0
ENDSEC
0
SECTION
2
BLOCKS
0
BLOCK
5
20
100
AcDbEntity
100
AcDbBlockBegin
2
*MODEL_SPACE
0
ENDBLK
5
21
100
AcDbEntity
100
AcDbBlockEnd
0
BLOCK
5
1C
100
AcDbEntity
100
AcDbBlockBegin
2
*PAPER_SPACE
0
ENDBLK
5
1D
100
AcDbEntity
100
AcDbBlockEnd
0
ENDSEC
0
SECTION
2
ENTITIES
0
LINE
5
100
100
AcDbEntity
8
0
100
AcDbLine
10
52.193100000000001
20
145.66819015282584
30
0
11
53.647454137130204
21
145.41133647218902
31
0
0
LINE
5
101
100
AcDbEntity
8
0
100
AcDbLine
10
0.46046057020904479
20
60.066318413165824
30
0
11
122.264
21
0.088194399999999007
31
0
0
LINE
5
102
100
AcDbEntity
8
0
100
AcDbLine
10
0.3165714211706116
20
125.18301904808436
30
0
11
52.193100000000001
21
145.66819015282584
31
0
0
LINE
5
103
100
AcDbEntity
8
0
100
AcDbLine
10
147.11255144856733
20
33.478931722796197
30
0
11
145.69573362701942
21
27.086359510075582
31
0
0
ARC
5
104
100
AcDbEntity
8
0
100
AcDbCircle
10
109.07413147759362
20
35.202988756075698
30
0
40
37.510284113931377
100
AcDbArc
50
290.58725339074158
51
347.5032576426907
0
ARC
5
105
100
AcDbEntity
8
0
100
AcDbCircle
10
-18.335995372849538
20
-257.92673311730528
30
0
40
409.71113651392773
100
AcDbArc
50
66.590536035020875
51
80.087531817569698
0
CIRCLE
5
106
100
AcDbEntity
8
0
100
AcDbCircle
10
27.095700000000001
20
119.50497943919888
30
0
40
1.1000000000000001
0
CIRCLE
5
107
100
AcDbEntity
8
0
100
AcDbCircle
10
27.095700000000001
20
60.719997698019995
30
0
40
1.1000000000000001
0
CIRCLE
5
108
100
AcDbEntity
8
0
100
AcDbCircle
10
75.948837745788111
20
54.260933658135272
30
0
40
1.1000000000000001
0
CIRCLE
5
109
100
AcDbEntity
8
0
100
AcDbCircle
10
72.286139570970406
20
109.59640581800022
30
0
40
1.1000000000000001
0
CIRCLE
5
110
100
AcDbEntity
8
0
100
AcDbCircle
10
121.34279149354894
20
34.417017714326455
30
0
40
1.1000000000000001
0
CIRCLE
5
111
100
AcDbEntity
8
0
100
AcDbCircle
10
122.31038025009651
20
119.46706067476347
30
0
40
1.1000000000000001
0
LINE
5
112
100
AcDbEntity
8
0
100
AcDbLine
10
0.46014777912348837
20
60.207871293390376
30
0
11
0.3165714211706116
21
125.18301904808436
31
0
0
LINE
5
113
100
AcDbEntity
8
0
100
AcDbLine
10
126.6985284995049
20
38.003393951969855
30
0
11
147.11255144856733
21
33.478931722796197
31
0
0
LWPOLYLINE
5
114
100
AcDbEntity
8
0
100
AcDbPolyline
90
20
70
1
43
0.0
10
120.59120701462284
20
113.06287031183101
10
121.37422606048045
20
112.89686627401184
10
121.58221839232218
20
113.87583018205532
10
135.15874862683128
20
110.98880987806156
10
134.94978692573707
20
110.01298872845399
10
135.73286182532146
20
109.8439725623879
10
135.11279946983146
20
106.93016016007748
10
134.33178739263417
20
107.0961627270618
10
133.10084670367957
20
101.30584222255145
10
133.88285550084277
20
101.13884034387338
10
133.26378429739992
20
98.22459149238685
10
132.48079589009845
20
98.391389022831135
10
132.27278943634016
20
97.413158671550775
10
118.69515906882781
20
100.29821923156982
10
118.90314307146409
20
101.27714393628568
10
118.12214360050791
20
101.44414382316108
10
118.74120703560939
20
104.35777933836695
10
119.52320268955533
20
104.19078026648847
10
120.75415444621905
20
109.98217352296439
10
119.97116861856013
20
110.14917050025562
0
LWPOLYLINE
5
115
100
AcDbEntity
8
0
100
AcDbPolyline
90
20
70
1
43
0.0
10
117.52197222994499
20
93.306084846449679
10
118.30291018408769
20
93.132598630004424
10
118.51991901986162
20
94.10833835841288
10
131.99175847320794
20
91.121310108213464
10
131.77588281659806
20
90.146071840991468
10
132.55666759624208
20
89.97302259668389
10
131.9290208666622
20
87.141129193102657
10
131.14803717113563
20
87.314725568958508
10
129.84871924756612
20
81.456932780572856
10
130.63072668450812
20
81.283431130560786
10
130.00298693822765
20
78.452334230122688
10
129.22086526771477
20
78.624561022529747
10
129.00589501386713
20
77.649295973213569
10
115.53143378712744
20
80.635954167582355
10
115.74942342733422
20
81.611707795627225
10
114.9682674563404
20
81.785242444753251
10
115.59600724856919
20
84.616339552417543
10
116.37701077607608
20
84.444138774649687
10
117.67522438275978
20
90.30006485228833
10
116.89422858376281
20
90.475063910962433
0
LWPOLYLINE
5
116
100
AcDbEntity
8
0
100
AcDbPolyline
90
20
70
1
43
0.0
10
113.3989447750689
20
74.707815785050784
10
114.18009583132664
20
74.532881956959272
10
114.39514191114813
20
75.510291395106165
10
127.86878745874631
20
72.523201229955717
10
127.65276251682117
20
71.545888390838797
10
128.43369749730431
20
71.37370272676813
10
127.80603041265178
20
68.543027071228423
10
127.02503352551051
20
68.716626379304898
10
125.72570231979037
20
62.857739210836669
10
126.50670543464146
20
62.685238522857397
10
125.87899079254609
20
59.85434839104694
10
125.09793431269892
20
60.026460836862164
10
124.8819641919693
20
59.04979595756258
10
111.40934147720546
20
62.038159308773402
10
111.62634029809489
20
63.013654008209514
10
110.84430201443215
20
63.187162502091205
10
111.47293362584668
20
66.018343412725187
10
112.25397097847981
20
65.844435095666412
10
113.55225619080397
20
71.702132455239649
10
112.77125596243719
20
71.87573250600083
0
LWPOLYLINE
5
117
100
AcDbEntity
8
0
100
AcDbPolyline
90
20
70
1
43
0.0
10
109.27596958734826
20
56.108872928771589
10
110.05712369874189
20
55.935238673025196
10
110.27213494380676
20
56.912189767461889
10
123.74397006930008
20
53.925063904851591
10
123.52995255085018
20
52.948183942132673
10
124.31068490032646
20
52.775743058285485
10
123.68206476270551
20
49.94358483111111
10
122.90205136164018
20
50.117487818861441
10
121.60269036615554
20
44.259604299090569
10
122.38373987186705
20
44.087393383746743
10
121.75700186572747
20
41.255098853911733
10
120.97716974353378
20
41.428961425770041
10
120.75914401238964
20
40.451646084145885
10
107.28633723207606
20
43.438670256401096
10
107.50329428011912
20
44.414277111149623
10
106.72124400604288
20
44.589288361742149
10
107.34900547914884
20
47.419079908245372
10
108.13102286374466
20
47.246976082300449
10
109.42924709539656
20
53.103984528207356
10
108.64825494152696
20
53.277982780157828
0
LWPOLYLINE
5
118
100
AcDbEntity
8
0
100
AcDbPolyline
90
20
70
1
43
0.0
10
117.62065291246714
20
29.603089718059152
10
118.27667337416587
20
29.145575447895791
10
118.84956856540992
20
29.963925734166743
10
130.15466509651338
20
22.048879598892981
10
129.58064240860057
20
21.230347246877873
10
130.23668675877065
20
20.771416222040916
10
128.57242575458167
20
18.395517586662223
10
127.916422936597
20
18.854319557533195
10
124.47368958027891
20
13.939114248275434
10
125.12973203780729
20
13.480184547422116
10
123.468386375899
20
11.105657617136087
10
122.81234302385039
20
11.564587943744497
10
122.23936800086996
20
10.744723683113357
10
110.93519968318606
20
18.659810076323868
10
111.50818360297293
20
19.479687067306859
10
110.85327017526993
20
19.938526413830377
10
112.51648797918479
20
22.31305513905955
10
113.17051177519217
20
21.854138441830514
10
116.61220524175681
20
26.770784281292013
10
115.95822857210837
20
27.229667910805261
0
LWPOLYLINE
5
119
100
AcDbEntity
8
0
100
AcDbPolyline
90
20
70
1
43
0.0
10
97.387900879115875
20
39.797712519641834
10
98.139084417559758
20
39.523181989349133
10
98.480631470225973
20
40.463511532297218
10
111.44882875336229
20
35.744326561504472
10
111.10686923863253
20
34.804737801295275
10
111.85790367565033
20
34.530425223300625
10
110.86720145941635
20
31.80519894746379
10
110.11423492146078
20
32.079386762480283
10
108.06286626873488
20
26.442726391843419
10
108.81391516835771
20
26.168508537946504
10
107.82318992814447
20
23.441815634145332
10
107.07023676361092
20
23.716098573098265
10
106.72822816641985
20
22.776274948419427
10
93.760468141381423
20
27.496429986949881
10
94.103712655977048
20
28.436451896240182
10
93.351140139133037
20
28.709278185403043
10
94.343809063909845
20
31.43434708067236
10
95.094925214585274
20
31.160141184632948
10
97.147670262683491
20
36.798336548814206
10
96.395282518418924
20
37.072432084038724
0
LWPOLYLINE
5
120
100
AcDbEntity
8
0
100
AcDbPolyline
90
20
70
1
43
0.0
10
76.699296121488942
20
45.685991744027618
10
77.484791628027921
20
45.53281212131661
10
77.676403539390648
20
46.514373139075062
10
91.221940663641092
20
43.881600257614942
10
91.031847175569212
20
42.899133913424322
10
91.815967624146495
20
42.746449403735774
10
91.262815413656284
20
39.89995600600264
10
90.477212068787367
20
40.052756656583043
10
89.332740193399474
20
34.162290364927308
10
90.118036239143549
20
34.010691128285508
10
89.564889302952565
20
31.16431841942649
10
88.779668182709202
20
31.31590319190693
10
88.588192175931923
20
30.334826127416804
10
75.042569251339472
20
32.967399381627239
10
75.232788576783406
20
33.94999920943296
10
74.448507820839268
20
34.101595489684307
10
75.000340351000673
20
36.949159859596705
10
75.7870060437088
20
36.796366523069686
10
76.930304741162402
20
42.684996187731983
10
76.146500321573441
20
42.838097051012241
0
LWPOLYLINE
5
121
100
AcDbEntity
8
0
100
AcDbPolyline
90
20
70
1
43
0.0
10
101.38811563703074
20
122.7818475737059
10
102.17405121854284
20
122.62986003122521
10
102.36503310542885
20
123.60976709482873
10
115.91082238544615
20
120.97690410785985
10
115.72080888302195
20
119.99583439271164
10
116.50575812272646
20
119.84384422145675
10
115.95285652976982
20
116.99700911592869
10
115.16584536606017
20
117.14801125788568
10
114.02277385028327
20
111.25886543044872
10
114.80676266310104
20
111.10686759939222
10
114.25391229210389
20
108.26029623062007
10
113.46892051840156
20
108.41329462727799
10
113.27791311680095
20
107.43025653422333
10
99.731529419374823
20
110.06505320034816
10
99.923146902891048
20
111.04614271668119
10
99.137740126399407
20
111.19816338397612
10
99.690493553819124
20
114.04471725034642
10
100.47607161915965
20
113.8917215222442
10
101.62124183772943
20
119.7820550584108
10
100.83522302693913
20
119.93505872005322
0
LWPOLYLINE
5
122
100
AcDbEntity
8
0
100
AcDbPolyline
90
20
70
1
43
0.0
10
97.754381692960607
20
104.08193803553965
10
98.538600008881929
20
103.93095376204212
10
98.73006762449873
20
104.90978820428138
10
112.2767431575783
20
102.27791111332368
10
112.08573116240402
20
101.29584944179946
10
112.8707593309739
20
101.14384398750312
10
112.31786914234416
20
98.296880498437048
10
111.53187738668112
20
98.448278910405747
10
110.38777682249113
20
92.559678131335772
10
111.17278205373181
20
92.40657711107724
10
110.61990733643867
20
89.560161032722306
10
109.83282675507172
20
89.713276708716307
10
109.64282507810147
20
88.730768037014784
10
96.09748397468239
20
91.364587100764965
10
96.287574586694276
20
92.345638649659492
10
95.502328633273208
20
92.498728112882148
10
96.055475591924704
20
95.345100937318037
10
96.840773587087057
20
95.192001328175849
10
97.98553434206832
20
101.08204679233333
10
97.199970923120759
20
101.23503966796849
0
LWPOLYLINE
5
123
100
AcDbEntity
8
0
100
AcDbPolyline
90
20
70
1
43
0.0
10
94.119122831724582
20
85.381777693171529
10
94.903193695970813
20
85.230402624506794
10
95.094770589849986
20
86.209984476977752
10
108.64163795478719
20
83.577634711416238
10
108.44963722367494
20
82.596130973985638
10
109.23576815170154
20
82.443405537968246
10
108.68287916456745
20
79.596915992870237
10
107.89688342775555
20
79.748615170064099
10
106.75277779018357
20
73.859677942604932
10
107.5377820537318
20
73.706577111077237
10
106.98490733643868
20
70.860161032722317
10
106.19773027574531
20
71.013295477439158
10
106.00872818907237
20
70.030784630052096
10
92.462394030476446
20
72.664487386284634
10
92.652586036196638
20
73.645546149755234
10
91.866973959125659
20
73.798629017261362
10
92.421425645996351
20
76.644976490926851
10
93.205343866581302
20
76.491872932345984
10
94.351660953962764
20
82.382459304485366
10
93.566323220369071
20
82.535266646511502
0
LWPOLYLINE
5
124
100
AcDbEntity
8
0
100
AcDbPolyline
90
20
70
1
43
0.0
10
90.484011464000474
20
66.682068944007753
10
91.269324718624759
20
66.53036638355124
10
91.459503894046193
20
67.509859129307529
10
105.00663029980865
20
64.877535642987439
10
104.81463451677737
20
63.896457191258165
10
105.60171078382413
20
63.743342354555672
10
105.04695032206307
20
60.896850521502621
10
104.26292599850763
20
61.048555227986505
10
103.1167420347854
20
55.159673052642276
10
103.9027798343996
20
55.006465685083882
10
103.34991188516655
20
52.160084451359047
10
102.5638331533191
20
52.31319978704078
10
102.37382644657379
20
51.330765109637575
10
88.827219447939299
20
53.964463419309439
10
89.018717256225571
20
54.945552190639255
10
88.231676780286975
20
55.09866006467508
10
88.786030590421177
20
57.944985306145398
10
89.570352347722093
20
57.791881058991528
10
90.71624728361715
20
63.682424476860682
10
89.93092552673879
20
63.835528718523832
0
LWPOLYLINE
5
125
100
AcDbEntity
8
0
100
AcDbPolyline
90
20
70
1
43
0.0
10
81.71743698459828
20
131.11337408336658
10
82.504537623190743
20
130.9763739722153
10
82.677999474772861
20
131.95915783449314
10
96.268362276181875
20
129.56288213365067
10
96.094720364978201
20
128.57764433102622
10
96.882844578262436
20
128.44064012189045
10
96.38023026383226
20
125.58472815100768
10
95.591865628852716
20
125.72272196078342
10
94.549957189013952
20
119.8149190418803
10
95.336698066013867
20
119.67591181942829
10
94.834046077247578
20
116.81885026407346
10
94.04567573773403
20
116.95784503473861
10
93.872078436544285
20
115.97286034768858
10
80.281769527669823
20
118.37109797037697
10
80.455371099734265
20
119.35410687210131
10
79.667250982037501
20
119.49311042033105
10
80.171204846271579
20
122.3501275010269
10
80.958207732128756
20
122.21112699132659
10
82.000142810986048
20
128.1190809581197
10
81.21345673178908
20
128.25807849848883
0
LWPOLYLINE
5
126
100
AcDbEntity
8
0
100
AcDbPolyline
90
20
70
1
43
0.0
10
78.408754298637518
20
112.35415187244833
10
79.197370243502149
20
112.21513143321411
10
79.369469914134896
20
113.20012954810805
10
92.961061974841357
20
110.80388042385576
10
92.787468430948877
20
109.81891705557173
10
93.574192565575416
20
109.67991279128663
10
93.071530263832258
20
106.82372815100766
10
92.283139293833344
20
106.96172657041389
10
91.242662153374212
20
101.05279295905711
10
92.029328461465937
20
100.91479886916689
10
91.525395414392392
20
98.058648174299663
10
90.737163310484036
20
98.197671473935827
10
90.564662142214161
20
97.212264800236312
10
76.973163495426164
20
99.608497455261201
10
77.148162311046988
20
100.59409078483768
10
76.359918213715702
20
100.7331161997965
10
76.862564232052421
20
103.58827281242196
10
77.650940261948989
20
103.45027700810218
10
78.692879774914076
20
109.36032509941424
10
77.906144690781531
20
109.49733120914622
0
LWPOLYLINE
5
127
100
AcDbEntity
8
0
100
AcDbPolyline
90
20
70
1
43
0.0
10
75.101396593843489
20
93.593493623625477
10
75.888527771074394
20
93.454188105917083
10
76.062037485409917
20
94.439543273264547
10
89.652344800902284
20
92.042193072571933
10
89.478750744019749
20
91.058326755943312
10
90.266897537795302
20
90.919018484946079
10
89.764247728864632
20
88.062249972882739
10
88.975884625493109
20
88.201243467769416
10
87.933965965314826
20
82.292555021377183
10
88.720687410922267
20
82.153251224029887
10
88.218042946319031
20
79.299132487648023
10
87.430003398642185
20
79.437121902163184
10
87.256123435893556
20
78.453335269912628
10
73.665733087005918
20
80.849221540756545
10
73.839353092988347
20
81.834635088535762
10
73.051282326988712
20
81.972629969525428
10
73.55519490991793
20
84.827729255986441
10
74.342210091868054
20
84.688726574549236
10
75.384131896071153
20
90.597432850608925
10
74.597439340428409
20
90.73683153149949
0
LWPOLYLINE
5
128
100
AcDbEntity
8
0
100
AcDbPolyline
90
20
70
1
43
0.0
10
71.792744384804664
20
74.832853620099272
10
72.581351550243824
20
74.693834728538036
10
72.753451220581823
20
75.677732843852169
10
86.345043154598358
20
73.281483741935816
10
86.171456041241782
20
72.297656778620549
10
86.958195118306236
20
72.158349859292898
10
86.455563974500294
20
69.30299709502917
10
85.667191991784449
20
69.442392141186673
10
84.625255441750426
20
63.533188446682651
10
85.413349017962503
20
63.394189579668961
10
84.909399552247976
20
60.537197435076138
10
84.121171810535472
20
60.676620030171584
10
83.948662142214161
20
59.691164800236322
10
70.357168663138026
20
62.087396544174041
10
70.532167478347091
20
63.072689873462586
10
69.743918236153931
20
63.211716195838996
10
70.246841755244574
20
66.06844526995927
10
71.034914244180328
20
65.929450122183525
10
72.076831896071155
20
71.838132850608915
10
71.290103297505794
20
71.977537918156912
0
LWPOLYLINE
5
129
100
AcDbEntity
8
0
100
AcDbPolyline
90
20
70
1
43
0.0
10
58.693815671627931
20
133.3371280328335
10
59.493276415746564
20
133.28012370156659
10
59.562085660366186
20
134.27925793666836
10
73.328820035945682
20
133.31622526647837
10
73.258612820157936
20
132.31912278584625
10
74.056698016181741
20
132.26411691393986
10
73.855383940226062
20
129.36975933491161
10
73.057427892052985
20
129.42575625057285
10
72.638454040717733
20
123.4401199448302
10
73.436450805295067
20
123.385120167823
10
73.233822656432807
20
120.49163510581502
10
72.436260544784744
20
120.54663249315284
10
72.366067501836326
20
119.54973129914188
10
58.599072961259857
20
120.51277527337619
10
58.669280165847738
20
121.51087769757441
10
57.871237309182774
20
121.5658806513546
10
58.073572046938828
20
124.46011864773568
10
58.871558240791842
20
124.40311963388902
10
59.290851112343589
20
130.38887970000894
10
58.492794582253836
20
130.44388359619305
0
LWPOLYLINE
5
130
100
AcDbEntity
8
0
100
AcDbPolyline
90
20
70
1
43
0.0
10
37.492999999999995
20
134.30100000000002
10
38.293800000000005
20
134.30100000000002
10
38.293800000000005
20
135.30200000000002
10
52.093100000000007
20
135.30200000000002
10
52.093100000000007
20
134.30100000000002
10
52.893900000000002
20
134.30100000000002
10
52.893900000000002
20
131.40200000000002
10
52.093100000000007
20
131.40200000000002
10
52.093100000000007
20
125.40200000000002
10
52.893900000000002
20
125.40200000000002
10
52.893900000000002
20
122.50200000000001
10
52.093100000000007
20
122.50200000000001
10
52.093100000000007
20
121.502
10
38.293800000000005
20
121.502
10
38.293800000000005
20
122.50200000000001
10
37.492999999999995
20
122.50200000000001
10
37.492999999999995
20
125.40200000000002
10
38.293800000000005
20
125.40200000000002
10
38.293800000000005
20
131.40200000000002
10
37.492999999999995
20
131.40200000000002
0
LWPOLYLINE
5
131
100
AcDbEntity
8
0
100
AcDbPolyline
90
20
70
1
43
0.0
10
52.112721936916088
20
113.85000657166495
10
52.91075020285264
20
113.80900511940507
10
52.962944754906829
20
114.8079008569938
10
66.74491903176056
20
114.08537161198541
10
66.692726266577736
20
113.08651007141771
10
67.491698015710654
20
113.04351159180229
10
67.339590788342562
20
110.14823564651155
10
66.540474555056875
20
110.19123652003337
10
66.226607545761496
20
104.19838357063283
10
67.02599133469208
20
104.15638442235276
10
66.873877592818957
20
101.26098447710469
10
66.074449329286082
20
101.30198592669794
10
66.02225524704474
20
100.30309918035515
10
52.240555931173567
20
101.02561917796154
10
52.29444858770276
20
102.02348320794547
10
51.494905338484244
20
102.06649091337005
10
51.647118722804834
20
104.96200673680102
10
52.445120056824706
20
104.92100666826113
10
52.7600105474869
20
110.91261547875868
10
51.960608665307923
20
110.95461557764725
0
LWPOLYLINE
5
132
100
AcDbEntity
8
0
100
AcDbPolyline
90
20
70
1
43
0.0
10
29.873899999999999
20
114.29900000000002
10
30.673200000000001
20
114.29900000000002
10
30.673200000000001
20
115.298
10
44.474200000000003
20
115.298
10
44.474200000000003
20
114.29900000000002
10
45.273200000000003
20
114.29900000000002
10
45.273200000000003
20
111.39899999999999
10
44.474200000000003
20
111.39899999999999
10
44.474200000000003
20
105.39900000000002
10
45.273200000000003
20
105.39900000000002
10
45.273200000000003
20
102.499
10
44.474200000000003
20
102.499
10
44.474200000000003
20
101.49900000000001
10
30.673200000000001
20
101.49900000000001
10
30.673200000000001
20
102.499
10
29.873899999999999
20
102.499
10
29.873899999999999
20
105.39900000000002
10
30.673200000000001
20
105.39900000000002
10
30.673200000000001
20
111.39899999999999
10
29.873899999999999
20
111.39899999999999
0
LWPOLYLINE
5
133
100
AcDbEntity
8
0
100
AcDbPolyline
90
20
70
1
43
0.0
10
8.9180700000000019
20
114.29900000000002
10
9.7173200000000008
20
114.29900000000002
10
9.7173200000000008
20
115.298
10
23.518200000000004
20
115.298
10
23.518200000000004
20
114.29900000000002
10
24.318900000000006
20
114.29900000000002
10
24.318900000000006
20
111.39899999999999
10
23.518200000000004
20
111.39899999999999
10
23.518200000000004
20
105.39900000000002
10
24.318900000000006
20
105.39900000000002
10
24.318900000000006
20
102.499
10
23.518200000000004
20
102.499
10
23.518200000000004
20
101.49900000000001
10
9.7173200000000008
20
101.49900000000001
10
9.7173200000000008
20
102.499
10
8.9180700000000019
20
102.499
10
8.9180700000000019
20
105.39900000000002
10
9.7173200000000008
20
105.39900000000002
10
9.7173200000000008
20
111.39899999999999
10
8.9180700000000019
20
111.39899999999999
0
LWPOLYLINE
5
134
100
AcDbEntity
8
0
100
AcDbPolyline
90
20
70
1
43
0.0
10
51.115164023735495
20
94.826738464615445
10
51.914548849327062
20
94.785139254276913
10
51.966746659953102
20
95.784497337412219
10
65.747329302058802
20
95.06156924555944
10
65.696225711506187
20
94.062399043580513
10
66.494086205235192
20
94.021106263641883
10
66.341889877795936
20
91.124698834937618
10
65.542873621228111
20
91.167399703717905
10
65.229011120520397
20
85.175770772112543
10
66.028441412935422
20
85.133069154041308
10
65.877635976264514
20
82.237361535384565
10
65.078402616670019
20
82.278952863579619
10
65.024704713305141
20
81.279991868020659
10
51.244080418213692
20
82.002527855224116
10
51.296284278270164
20
83.001701736113347
10
50.497313282656251
20
83.043000236887892
10
50.64942017526792
20
85.938176263602799
10
51.448537273263753
20
85.896875379924666
10
51.762286638830801
20
91.888319331219904
10
50.964358067019489
20
91.931020860254051
0
LWPOLYLINE
5
135
100
AcDbEntity
8
0
100
AcDbPolyline
90
20
70
1
43
0.0
10
29.873899999999999
20
95.249100000000027
10
30.673200000000001
20
95.249100000000027
10
30.673200000000001
20
96.248200000000011
10
44.474200000000003
20
96.248200000000011
10
44.474200000000003
20
95.249100000000027
10
45.273200000000003
20
95.249100000000027
10
45.273200000000003
20
92.34859999999999
10
44.474200000000003
20
92.34859999999999
10
44.474200000000003
20
86.348500000000001
10
45.273200000000003
20
86.348500000000001
10
45.273200000000003
20
83.449400000000011
10
44.474200000000003
20
83.449400000000011
10
44.474200000000003
20
82.448899999999995
10
30.673200000000001
20
82.448899999999995
10
30.673200000000001
20
83.449400000000011
10
29.873899999999999
20
83.449400000000011
10
29.873899999999999
20
86.348500000000001
10
30.673200000000001
20
86.348500000000001
10
30.673200000000001
20
92.34859999999999
10
29.873899999999999
20
92.34859999999999
0
LWPOLYLINE
5
136
100
AcDbEntity
8
0
100
AcDbPolyline
90
20
70
1
43
0.0
10
8.9180700000000019
20
95.249100000000027
10
9.7173200000000008
20
95.249100000000027
10
9.7173200000000008
20
96.248200000000011
10
23.518200000000004
20
96.248200000000011
10
23.518200000000004
20
95.249100000000027
10
24.318900000000006
20
95.249100000000027
10
24.318900000000006
20
92.34859999999999
10
23.518200000000004
20
92.34859999999999
10
23.518200000000004
20
86.348500000000001
10
24.318900000000006
20
86.348500000000001
10
24.318900000000006
20
83.449400000000011
10
23.518200000000004
20
83.449400000000011
10
23.518200000000004
20
82.448899999999995
10
9.7173200000000008
20
82.448899999999995
10
9.7173200000000008
20
83.449400000000011
10
8.9180700000000019
20
83.449400000000011
10
8.9180700000000019
20
86.348500000000001
10
9.7173200000000008
20
86.348500000000001
10
9.7173200000000008
20
92.34859999999999
10
8.9180700000000019
20
92.34859999999999
0
LWPOLYLINE
5
137
100
AcDbEntity
8
0
100
AcDbPolyline
90
20
70
1
43
0.0
10
8.9180700000000019
20
76.199100000000001
10
9.7173200000000008
20
76.199100000000001
10
9.7173200000000008
20
77.1982
10
23.518200000000004
20
77.1982
10
23.518200000000004
20
76.199100000000001
10
24.318900000000006
20
76.199100000000001
10
24.318900000000006
20
73.298599999999993
10
23.518200000000004
20
73.298599999999993
10
23.518200000000004
20
67.298500000000004
10
24.318900000000006
20
67.298500000000004
10
24.318900000000006
20
64.399400000000014
10
23.518200000000004
20
64.399400000000014
10
23.518200000000004
20
63.398900000000005
10
9.7173200000000008
20
63.398900000000005
10
9.7173200000000008
20
64.399400000000014
10
8.9180700000000019
20
64.399400000000014
10
8.9180700000000019
20
67.298500000000004
10
9.7173200000000008
20
67.298500000000004
10
9.7173200000000008
20
73.298599999999993
10
8.9180700000000019
20
73.298599999999993
0
LWPOLYLINE
5
138
100
AcDbEntity
8
0
100
AcDbPolyline
90
20
70
1
43
0.0
10
29.873899999999999
20
76.199100000000001
10
30.673200000000001
20
76.199100000000001
10
30.673200000000001
20
77.1982
10
44.474200000000003
20
77.1982
10
44.474200000000003
20
76.199100000000001
10
45.273200000000003
20
76.199100000000001
10
45.273200000000003
20
73.298599999999993
10
44.474200000000003
20
73.298599999999993
10
44.474200000000003
20
67.298500000000004
10
45.273200000000003
20
67.298500000000004
10
45.273200000000003
20
64.399400000000014
10
44.474200000000003
20
64.399400000000014
10
44.474200000000003
20
63.398900000000005
10
30.673200000000001
20
63.398900000000005
10
30.673200000000001
20
64.399400000000014
10
29.873899999999999
20
64.399400000000014
10
29.873899999999999
20
67.298500000000004
10
30.673200000000001
20
67.298500000000004
10
30.673200000000001
20
73.298599999999993
10
29.873899999999999
20
73.298599999999993
0
LWPOLYLINE
5
139
100
AcDbEntity
8
0
100
AcDbPolyline
90
20
70
1
43
0.0
10
50.118813376318123
20
75.802701659594561
10
50.918049859767471
20
75.759994366585815
10
50.969155484905258
20
76.759204348487202
10
64.750978667598474
20
76.037964440409027
10
64.698377783322641
20
75.038947645892421
10
65.497791568341398
20
74.997246926808998
10
65.345686518722758
20
72.10079634172827
10
64.546268318015137
20
72.143497313920193
10
64.232716273220746
20
66.15187049688069
10
65.03209810848918
20
66.109171467150958
10
64.879985864020171
20
63.21258387459639
10
64.080559745237892
20
63.25518526646546
10
64.028355247044743
20
62.256099180355157
10
50.246620060885796
20
62.978621058498881
10
50.300224036268055
20
63.977795159327435
10
49.501002979477072
20
64.019101415922947
10
49.652827507514374
20
66.914618739606439
10
50.450813659519753
20
66.872919463242255
10
50.765814220050778
20
72.864550814768535
10
49.966708329202383
20
72.906251122174822
0
LINE
5
140
100
AcDbEntity
8
0
100
AcDbLine
10
144.44202508701497
20
118.06067549992788
30
0
11
126.6985284995049
21
38.003393951969855
31
0
0
LINE
5
141
100
AcDbEntity
8
0
100
AcDbLine
10
0.46014777912348837
20
60.207871293390376
30
0
11
0.46046057020904479
21
60.066318413165824
31
0
0
LINE
5
142
100
AcDbEntity
8
0
100
AcDbLine
10
147.11255144856733
20
33.478931722796197
30
0
11
159.0136772084831
21
87.17588885862159
31
0
0
LINE
5
143
100
AcDbEntity
8
0
100
AcDbLine
10
159.0136772084831
20
87.17588885862159
30
0
11
138.59965425942016
21
91.70035108779517
31
0
0
CIRCLE
5
144
100
AcDbEntity
8
0
100
AcDbCircle
10
130.205198993804
20
39.960984829659061
30
0
40
1.0999999999999988
0
CIRCLE
5
145
100
AcDbEntity
8
0
100
AcDbCircle
10
144.76137207350365
20
36.734827228839862
30
0
40
1.0999999999999959
0
ENDSEC
0
SECTION
2
OBJECTS
0
DICTIONARY
5
C
100
AcDbDictionary
3
ACAD_GROUP
350
D
3
ACAD_MLINESTYLE
350
17
0
DICTIONARY
5
D
100
AcDbDictionary
0
DICTIONARY
5
1A
330
C
100
AcDbDictionary
0
DICTIONARY
5
17
100
AcDbDictionary
0
ENDSEC
0
EOF
