M48
;DRILL file {KiCad (5.0.0)} date 03/06/19 00:44:33
;FORMAT={-:-/ absolute / inch / decimal}
FMAT,2
INCH,TZ
T1C0.0472
T2C0.0748
T3C0.0866
T4C0.1181
T5C0.1614
T6C0.1890
%
G90
G05
M72
T1
X10.3823Y-6.7004
X10.3973Y-6.6331
X10.6514Y-6.7601
X10.6663Y-6.6928
T2
X9.4015Y-7.6546
X9.7292Y-7.884
X6.0984Y-5.8039
X6.4984Y-5.8039
X6.0984Y-4.3035
X6.4984Y-4.3035
X9.4965Y-5.1461
X9.887Y-5.2327
X8.4387Y-6.1929
X8.8314Y-6.2693
X8.6711Y-7.2572
X9.047Y-7.394
X8.8678Y-3.9843
X9.2605Y-4.0606
X8.0979Y-3.6554
X8.4918Y-3.7249
X5.2736Y-5.0528
X5.6736Y-5.0528
X9.3343Y-5.8784
X9.7248Y-5.9649
X8.7249Y-4.7205
X9.1176Y-4.7968
X6.9227Y-5.0754
X7.3222Y-5.0963
X7.8373Y-5.1322
X8.2312Y-5.2017
X6.8833Y-5.8242
X7.2828Y-5.8451
X9.6209Y-4.3694
X10.0122Y-4.4526
X5.2736Y-5.8031
X5.6736Y-5.8031
X6.3988Y-3.5154
X6.7988Y-3.5154
X6.9617Y-4.3261
X7.3611Y-4.3471
X9.1717Y-6.6106
X9.5622Y-6.6972
X7.9676Y-4.3936
X8.3615Y-4.4631
X5.2736Y-4.3035
X5.6736Y-4.3035
X8.5816Y-5.4567
X8.9743Y-5.533
X6.0984Y-5.0535
X6.4984Y-5.0535
X7.217Y-3.5609
X7.616Y-3.5888
X7.7074Y-5.8708
X8.1013Y-5.9402
X7.8958Y-7.0193
X8.2885Y-7.0956
T3
X9.9449Y-6.9976
X10.5181Y-7.1244
T4
X7.2739Y-3.4646
X7.3307Y-3.3683
X7.5302Y-3.3823
X7.5731Y-3.4855
X7.774Y-5.781
X7.8406Y-5.6912
X8.0375Y-5.7259
X8.0694Y-5.8331
X7.964Y-6.9307
X8.0321Y-6.8421
X8.2285Y-6.8802
X8.2585Y-6.9879
X9.4998Y-7.6013
X9.5982Y-7.5481
X9.7456Y-7.7734
X9.762Y-7.6628
X6.1484Y-5.7039
X6.1984Y-5.6039
X6.3984Y-5.6039
X6.4484Y-5.7039
X6.1484Y-4.2035
X6.1984Y-4.1035
X6.3984Y-4.1035
X6.4484Y-4.2035
X9.5669Y-5.0593
X9.6374Y-4.9725
X9.8326Y-5.0158
X9.8598Y-5.1242
X8.5069Y-6.1043
X8.575Y-6.0157
X8.7714Y-6.0539
X8.8014Y-6.1616
X8.7523Y-7.1803
X8.8335Y-7.1034
X9.0214Y-7.1719
X9.0342Y-7.2829
X8.936Y-3.8957
X9.0042Y-3.807
X9.2005Y-3.8452
X9.2305Y-3.9529
X8.1645Y-3.5656
X8.2311Y-3.4758
X8.4281Y-3.5106
X8.46Y-3.6177
X5.3236Y-4.9528
X5.3736Y-4.8528
X5.5736Y-4.8528
X5.6236Y-4.9528
X9.4047Y-5.7916
X9.4752Y-5.7048
X9.6704Y-5.748
X9.6976Y-5.8565
X8.7931Y-4.6319
X8.8613Y-4.5433
X9.0576Y-4.5814
X9.0876Y-4.6891
X6.9779Y-4.9781
X7.033Y-4.8809
X7.2328Y-4.8913
X7.2775Y-4.9938
X7.9039Y-5.0424
X7.9705Y-4.9526
X8.1675Y-4.9873
X8.1993Y-5.0945
X6.9385Y-5.7269
X6.9937Y-5.6297
X7.1934Y-5.6402
X7.2381Y-5.7426
X9.6906Y-4.282
X9.7603Y-4.1946
X9.9559Y-4.2362
X9.984Y-4.3444
X5.3236Y-5.7031
X5.3736Y-5.6031
X5.5736Y-5.6031
X5.6236Y-5.7031
X6.4488Y-3.4154
X6.4988Y-3.3154
X6.6988Y-3.3154
X6.7488Y-3.4154
X7.0169Y-4.2289
X7.072Y-4.1317
X7.2717Y-4.1421
X7.3164Y-4.2446
X9.2421Y-6.5238
X9.3126Y-6.437
X9.5078Y-6.4803
X9.535Y-6.5888
X8.0342Y-4.3038
X8.1008Y-4.214
X8.2978Y-4.2487
X8.3297Y-4.3559
X5.3236Y-4.2035
X5.3736Y-4.1035
X5.5736Y-4.1035
X5.6236Y-4.2035
X8.6498Y-5.3681
X8.718Y-5.2795
X8.9143Y-5.3176
X8.9443Y-5.4253
X6.1484Y-4.9535
X6.1984Y-4.8535
X6.3984Y-4.8535
X6.4484Y-4.9535
T5
X9.5654Y-7.7693
X6.2984Y-5.8039
X6.2984Y-4.3035
X9.6917Y-5.1894
X8.635Y-6.2311
X8.8591Y-7.3256
X9.0642Y-4.0224
X8.2949Y-3.6902
X5.4736Y-5.0528
X9.5295Y-5.9217
X8.9213Y-4.7587
X7.1224Y-5.0858
X8.0343Y-5.1669
X7.0831Y-5.8346
X9.8165Y-4.411
X5.4736Y-5.8031
X6.5988Y-3.5154
X7.1614Y-4.3366
X9.3669Y-6.6539
X8.1646Y-4.4283
X5.4736Y-4.3035
X8.778Y-5.4949
X6.2984Y-5.0535
X7.4165Y-3.5748
X7.9043Y-5.9055
X8.0921Y-7.0575
T6
X5.8898Y-3.8626
X5.8831Y-6.1866
X9.5965Y-7.2154
X7.665Y-4.2559
X9.6343Y-3.8673
X7.8091Y-6.435
T0
M30
