M48
;DRILL file {KiCad (5.0.0)} date 03/06/19 00:44:33
;FORMAT={-:-/ absolute / inch / decimal}
FMAT,2
INCH,TZ
T1C0.0157
T2C0.0320
T3C0.0394
T4C0.0512
%
G90
G05
M72
T1
X5.4626Y-4.7319
X5.463Y-5.4957
X5.4669Y-4.4232
X5.4689Y-5.9315
X5.4697Y-3.9799
X5.4752Y-5.187
X6.2886Y-4.7331
X6.2909Y-5.4933
X6.2921Y-5.1862
X6.2976Y-3.998
X6.3012Y-4.4535
X6.3083Y-5.9524
X6.6008Y-3.198
X6.6059Y-3.6594
X6.6488Y-6.2602
X7.0748Y-5.9752
X7.0957Y-5.5146
X7.1205Y-5.2303
X7.1311Y-4.7693
X7.1535Y-4.0236
X7.1555Y-4.4866
X7.3921Y-3.7201
X7.4201Y-3.2469
X7.4642Y-6.289
X7.8819Y-6.0669
X7.9094Y-3.2815
X7.9465Y-5.5795
X8.0248Y-5.3386
X8.061Y-4.8465
X8.0717Y-7.1984
X8.1437Y-4.5634
X8.1508Y-6.6528
X8.152Y-6.739
X8.2043Y-4.1217
X8.2807Y-3.8362
X8.3437Y-3.3772
X8.5268Y-6.4252
X8.5634Y-6.9894
X8.6217Y-6.3724
X8.6776Y-5.924
X8.7256Y-6.6957
X8.7717Y-5.6398
X8.8083Y-7.5122
X8.8154Y-5.1701
X8.9118Y-4.913
X8.9339Y-6.8685
X8.9437Y-7.028
X8.952Y-4.4343
X9.0429Y-4.1764
X9.0835Y-3.6917
X9.085Y-6.1362
X9.0883Y-6.7689
X9.3425Y-6.1362
X9.3457Y-6.7929
X9.3787Y-5.5202
X9.3787Y-5.5202
X9.4024Y-6.3406
X9.4874Y-7.915
X9.4921Y-6.3118
X9.4984Y-6.0429
X9.5161Y-5.5661
X9.5732Y-6.8063
X9.5878Y-5.6024
X9.6787Y-5.337
X9.698Y-4.8764
X9.7449Y-7.513
X9.7882Y-4.5571
X9.8646Y-4.0787
X10.0299Y-6.4409
X10.0398Y-4.7386
X10.0677Y-5.776
X10.0677Y-6.4083
X10.0965Y-5.476
X10.1154Y-5.5343
X10.1433Y-6.3921
X10.1476Y-6.6799
X10.1634Y-6.4567
X10.2146Y-4.5984
X10.2406Y-5.9188
X10.2767Y-5.8441
X10.2767Y-5.9839
X10.3502Y-5.6743
X10.383Y-5.5047
X10.5626Y-6.0193
X10.5643Y-6.1042
X10.6492Y-5.4291
X10.6516Y-5.7224
X10.6594Y-5.4713
X10.7516Y-5.6366
X10.7524Y-5.3748
X10.7626Y-5.5374
T2
X9.0597Y-6.9178
X9.3526Y-6.9827
X8.3331Y-6.5041
X8.6276Y-6.5613
X7.9948Y-3.9688
X8.2902Y-4.0209
X6.9041Y-4.65
X7.2037Y-4.6657
X8.513Y-7.5448
X8.7949Y-7.6474
X8.7685Y-4.2966
X9.063Y-4.3538
X6.8215Y-6.1481
X7.1211Y-6.1638
X7.1504Y-3.8828
X7.4496Y-3.9038
X10.2225Y-6.3366
X10.3201Y-6.3583
X10.4177Y-6.3799
X10.5154Y-6.4016
X8.6209Y-5.0316
X8.9154Y-5.0889
X6.0587Y-5.3783
X6.3587Y-5.3783
X7.7413Y-5.4464
X8.0367Y-5.4985
X9.1744Y-7.8943
X9.4201Y-8.0664
X10.0875Y-6.1779
X10.1091Y-6.0803
X10.1308Y-5.9826
X10.1493Y-6.1404
X10.1524Y-5.885
X10.1709Y-6.0428
X10.1741Y-5.7874
X10.1926Y-5.9451
X10.1957Y-5.6898
X10.2142Y-5.8475
X10.2173Y-5.5921
X10.2359Y-5.7499
X10.239Y-5.4945
X10.2575Y-5.6522
X10.2606Y-5.3969
X10.2792Y-5.5546
X10.2823Y-5.2992
X10.3008Y-5.457
X10.3039Y-5.2016
X10.3224Y-5.3594
X10.3256Y-5.104
X10.3441Y-5.2617
X10.3657Y-5.1641
X10.3874Y-5.0665
X10.6733Y-6.3078
X10.6949Y-6.2101
X10.7166Y-6.1125
X10.7343Y-6.2701
X10.7382Y-6.0149
X10.7559Y-6.1725
X10.7598Y-5.9172
X10.7776Y-6.0748
X10.7815Y-5.8196
X10.7992Y-5.9772
X10.8031Y-5.722
X10.8209Y-5.8796
X10.8248Y-5.6244
X10.8425Y-5.7819
X10.8464Y-5.5267
X10.8642Y-5.6843
X10.8681Y-5.4291
X10.8858Y-5.5867
X10.8897Y-5.3315
X10.9075Y-5.489
X10.9113Y-5.2338
X10.9291Y-5.3914
X10.9507Y-5.2938
X10.9724Y-5.1962
X6.0539Y-4.6303
X6.3539Y-4.6303
X6.0555Y-6.1291
X6.3555Y-6.1291
X9.3819Y-5.4541
X9.6748Y-5.5191
X7.7906Y-7.3316
X8.085Y-7.3889
X6.3547Y-3.8406
X6.6547Y-3.8406
X5.2303Y-6.1303
X5.5303Y-6.1303
X9.51Y-4.6806
X9.8034Y-4.743
X7.6074Y-6.1846
X7.9028Y-6.2367
X6.8667Y-5.3988
X7.1663Y-5.4145
X5.2339Y-5.3795
X5.5339Y-5.3795
X9.2228Y-6.1876
X9.5157Y-6.2525
X8.4788Y-5.7694
X8.7733Y-5.8266
X7.8711Y-4.7077
X8.1665Y-4.7598
X5.2331Y-4.6287
X5.5331Y-4.6287
T4
X10.3381Y-6.9321
X10.5879Y-6.9875
T3
X10.2621Y-6.6879G85X10.2429Y-6.6836
G05
X10.283Y-6.5937G85X10.2638Y-6.5894
G05
X10.3049Y-6.7679G85X10.2857Y-6.7637
G05
X10.3556Y-6.5392G85X10.3364Y-6.535
G05
X10.4586Y-6.802G85X10.4394Y-6.7977
G05
X10.5093Y-6.5733G85X10.4901Y-6.569
G05
X10.5739Y-6.8276G85X10.5547Y-6.8233
G05
X10.6246Y-6.5989G85X10.6054Y-6.5946
G05
T0
M30
