M48
; DRILL file {KiCad (5.1.0)-1} date 6/23/2019 8:26:31 PM
; FORMAT={-:-/ absolute / metric / decimal}
; #@! TF.CreationDate,2019-06-23T20:26:31+08:00
; #@! TF.GenerationSoftware,Kicad,Pcbnew,(5.1.0)-1
; #@! TF.FileFunction,Plated,1,2,PTH
FMAT,2
METRIC
T1C0.400
T2C0.813
T3C1.000
T4C1.300
%
G90
G05
T1
X138.75Y-120.19
X138.76Y-139.59
X138.86Y-112.35
X138.91Y-150.66
X138.93Y-101.09
X139.07Y-131.75
X159.73Y-120.22
X159.79Y-139.53
X159.82Y-131.73
X159.96Y-101.55
X160.05Y-113.12
X160.23Y-151.19
X167.66Y-81.23
X167.79Y-92.95
X168.88Y-159.01
X179.7Y-151.77
X180.23Y-140.07
X180.86Y-132.85
X181.13Y-121.14
X181.7Y-102.2
X181.75Y-113.96
X187.76Y-94.49
X188.47Y-82.47
X189.59Y-159.74
X200.2Y-154.1
X200.9Y-83.35
X201.84Y-141.72
X203.83Y-135.6
X204.75Y-123.1
X205.02Y-182.84
X206.85Y-115.91
X207.03Y-168.98
X207.06Y-171.17
X208.39Y-104.69
X210.33Y-97.44
X211.93Y-85.78
X216.58Y-163.2
X217.51Y-177.53
X218.99Y-161.86
X220.41Y-150.47
X221.63Y-170.07
X222.8Y-143.25
X223.73Y-190.81
X223.91Y-131.32
X226.36Y-124.79
X226.92Y-174.46
X227.17Y-178.51
X227.38Y-112.63
X229.69Y-106.08
X230.72Y-93.77
X230.76Y-155.86
X230.842Y-171.93
X237.3Y-155.86
X237.38Y-172.54
X238.218Y-140.213
X238.82Y-161.05
X240.98Y-201.04
X241.1Y-160.32
X241.26Y-153.49
X241.71Y-141.38
X243.16Y-172.88
X243.53Y-142.3
X245.84Y-135.56
X246.33Y-123.86
X247.52Y-190.83
X248.62Y-115.75
X250.56Y-103.6
X255.01Y-120.36
X255.72Y-146.71
X256.45Y-139.09
X256.93Y-140.57
X257.64Y-162.36
X257.75Y-169.67
X259.45Y-116.8
X260.11Y-150.338
X261.027Y-148.44
X261.027Y-151.99
X268.29Y-152.89
X268.332Y-155.048
X270.49Y-137.899
X270.55Y-145.35
X270.75Y-138.97
X273.09Y-143.17
X273.11Y-136.52
X273.37Y-140.65
T2
X218.97Y-127.803
X226.45Y-129.257
X230.117Y-175.711
X237.557Y-177.36
X132.92Y-117.57
X140.54Y-117.57
X234.26Y-157.165
X241.7Y-158.815
X233.029Y-200.515
X239.271Y-204.885
X196.628Y-138.338
X204.132Y-139.662
X174.415Y-137.131
X182.025Y-137.529
X215.362Y-146.542
X222.842Y-147.996
X199.926Y-119.577
X207.43Y-120.9
X216.23Y-191.637
X223.39Y-194.243
X132.94Y-136.64
X140.56Y-136.64
X197.88Y-186.223
X205.36Y-187.677
X222.72Y-109.133
X230.2Y-110.587
X132.85Y-155.71
X140.47Y-155.71
X175.365Y-118.111
X182.975Y-118.509
X211.66Y-165.203
X219.14Y-166.657
X203.068Y-100.808
X210.572Y-102.132
X161.41Y-97.55
X169.03Y-97.55
X238.3Y-138.535
X245.74Y-140.185
X153.77Y-117.61
X161.39Y-117.61
X181.619Y-98.624
X189.221Y-99.156
X241.553Y-118.888
X249.007Y-120.472
X193.228Y-157.088
X200.732Y-158.412
X153.89Y-136.61
X161.51Y-136.61
X153.81Y-155.68
X161.43Y-155.68
X256.222Y-156.919
X256.772Y-154.439
X257.322Y-151.959
X257.792Y-155.966
X257.871Y-149.479
X258.342Y-153.486
X258.421Y-146.999
X258.891Y-151.006
X258.971Y-144.52
X259.441Y-148.526
X259.521Y-142.04
X259.991Y-146.047
X260.07Y-139.56
X260.541Y-143.567
X260.62Y-137.08
X261.091Y-141.087
X261.17Y-134.601
X261.64Y-138.607
X261.72Y-132.121
X262.19Y-136.127
X262.269Y-129.641
X262.74Y-133.648
X263.29Y-131.168
X263.839Y-128.688
X271.101Y-160.217
X271.651Y-157.737
X272.2Y-155.258
X272.651Y-159.26
X272.75Y-152.778
X273.201Y-156.78
X273.3Y-150.298
X273.751Y-154.3
X273.85Y-147.818
X274.3Y-151.821
X274.399Y-145.338
X274.85Y-149.341
X274.949Y-142.859
X275.4Y-146.861
X275.499Y-140.379
X275.95Y-144.381
X276.049Y-137.899
X276.499Y-141.902
X276.598Y-135.419
X277.049Y-139.422
X277.148Y-132.939
X277.599Y-136.942
X278.149Y-134.462
X278.699Y-131.982
X173.265Y-156.161
X180.875Y-156.559
T4
X263.417Y-174.397
X269.763Y-175.803
T3
G00X261.308Y-167.042
M15
G01X260.82Y-166.934
M16
G05
G00X261.838Y-164.65
M15
G01X261.35Y-164.542
M16
G05
G00X262.394Y-169.075
M15
G01X261.906Y-168.967
M16
G05
G00X263.682Y-163.266
M15
G01X263.193Y-163.158
M16
G05
G00X266.299Y-169.941
M15
G01X265.811Y-169.833
M16
G05
G00X267.587Y-164.132
M15
G01X267.099Y-164.024
M16
G05
G00X269.228Y-170.59
M15
G01X268.74Y-170.482
M16
G05
G00X270.516Y-164.781
M15
G01X270.027Y-164.673
M16
G05
T0
M30
