M48
; DRILL file {KiCad (5.1.0)-1} date 6/23/2019 8:26:31 PM
; FORMAT={-:-/ absolute / metric / decimal}
; #@! TF.CreationDate,2019-06-23T20:26:31+08:00
; #@! TF.GenerationSoftware,Kicad,Pcbnew,(5.1.0)-1
; #@! TF.FileFunction,NonPlated,1,2,NPTH
FMAT,2
METRIC
T1C1.200
T2C1.900
T3C2.200
T4C3.000
T5C4.100
T6C4.800
%
G90
G05
T1
X264.361Y-167.36
X264.74Y-165.652
X271.196Y-168.875
X271.574Y-167.167
T2
X174.837Y-147.934
X184.983Y-148.466
X200.553Y-178.291
X210.527Y-180.229
X214.343Y-157.301
X224.317Y-159.239
X237.09Y-149.31
X247.01Y-151.51
X175.837Y-128.914
X185.983Y-129.446
X133.95Y-147.4
X144.11Y-147.4
X154.9Y-109.31
X165.06Y-109.31
X133.95Y-109.31
X144.11Y-109.31
X232.96Y-167.91
X242.88Y-170.11
X195.767Y-149.118
X205.773Y-150.882
X217.973Y-138.601
X227.947Y-140.539
X225.243Y-101.201
X235.217Y-103.139
X183.312Y-90.446
X193.448Y-91.154
X202.377Y-111.598
X212.383Y-113.362
X154.9Y-128.36
X165.06Y-128.36
X199.067Y-130.358
X209.073Y-132.122
X162.53Y-89.29
X172.69Y-89.29
X238.799Y-194.426
X247.121Y-200.254
X244.371Y-110.984
X254.309Y-113.096
X176.827Y-109.884
X186.973Y-110.416
X241.21Y-130.71
X251.13Y-132.91
X133.95Y-128.34
X144.11Y-128.34
X221.613Y-119.901
X231.587Y-121.839
X154.9Y-147.42
X165.06Y-147.42
X220.246Y-184.333
X229.794Y-187.807
X205.687Y-92.848
X215.693Y-94.612
T3
X252.64Y-177.78
X267.18Y-180.94
T4
X204.069Y-109.317
X205.761Y-107.036
X210.764Y-107.918
X211.573Y-110.64
X156.17Y-125.82
X157.44Y-123.28
X162.52Y-123.28
X163.79Y-125.82
X200.759Y-128.077
X202.451Y-125.796
X207.454Y-126.678
X208.263Y-129.4
X163.8Y-86.75
X165.07Y-84.21
X170.15Y-84.21
X171.42Y-86.75
X241.296Y-193.074
X243.793Y-191.722
X247.538Y-197.445
X247.954Y-194.636
X246.141Y-108.763
X247.912Y-106.543
X252.881Y-107.599
X253.595Y-110.348
X178.228Y-107.414
X179.629Y-104.944
X184.702Y-105.21
X185.838Y-107.813
X243.0Y-128.506
X244.79Y-126.301
X249.749Y-127.4
X250.439Y-130.155
X135.22Y-125.8
X136.49Y-123.26
X141.57Y-123.26
X142.84Y-125.8
X223.345Y-117.65
X225.076Y-115.399
X230.063Y-116.368
X230.825Y-119.104
X156.17Y-144.88
X157.44Y-142.34
X162.52Y-142.34
X163.79Y-144.88
X222.309Y-182.38
X224.371Y-180.428
X229.144Y-182.165
X229.469Y-184.986
X207.379Y-90.567
X209.071Y-88.286
X214.074Y-89.168
X214.883Y-91.89
X176.238Y-145.464
X177.639Y-142.994
X182.712Y-143.26
X183.848Y-145.863
X202.285Y-176.04
X204.016Y-173.789
X209.003Y-174.758
X209.765Y-177.494
X216.075Y-155.05
X217.806Y-152.799
X222.793Y-153.768
X223.555Y-156.504
X238.88Y-147.106
X240.67Y-144.901
X245.629Y-146.0
X246.319Y-148.755
X177.238Y-126.444
X178.639Y-123.974
X183.712Y-124.24
X184.848Y-126.843
X135.22Y-144.86
X136.49Y-142.32
X141.57Y-142.32
X142.84Y-144.86
X156.17Y-106.77
X157.44Y-104.23
X162.52Y-104.23
X163.79Y-106.77
X135.22Y-106.77
X136.49Y-104.23
X141.57Y-104.23
X142.84Y-106.77
X234.75Y-165.706
X236.54Y-163.501
X241.499Y-164.6
X242.189Y-167.355
X197.459Y-146.837
X199.151Y-144.556
X204.154Y-145.438
X204.963Y-148.16
X219.705Y-136.35
X221.436Y-134.099
X226.423Y-135.068
X227.185Y-137.804
X226.975Y-98.95
X228.706Y-96.699
X233.693Y-97.668
X234.455Y-100.404
X184.756Y-88.0
X186.201Y-85.555
X191.268Y-85.91
X192.358Y-88.532
T5
X204.07Y-131.24
X167.61Y-89.29
X242.96Y-197.34
X249.34Y-112.04
X181.9Y-110.15
X246.17Y-131.81
X139.03Y-128.34
X226.6Y-120.87
X159.98Y-147.42
X225.02Y-186.07
X210.69Y-93.73
X179.91Y-148.2
X205.54Y-179.26
X219.33Y-158.27
X242.05Y-150.41
X180.91Y-129.18
X139.03Y-147.4
X159.98Y-109.31
X139.03Y-109.31
X237.92Y-169.01
X200.77Y-150.0
X222.96Y-139.57
X230.23Y-102.17
X188.38Y-90.8
X207.38Y-112.48
X159.98Y-128.36
T6
X194.69Y-108.1
X243.74Y-183.28
X149.43Y-157.13
X149.61Y-98.11
X198.36Y-163.43
X244.72Y-98.23
T0
M30
